<?xml version="1.0" encoding="UTF-8"?>
<svg xmlns="http://www.w3.org/2000/svg" width="430" height="130" viewBox="0 0 430 130" fill="none">
  <rect x="0.5" y="0.5" width="129" height="129" rx="64.5" fill="url(#paint0_linear_1013_3594)"></rect>
  <rect x="0.5" y="0.5" width="129" height="129" rx="64.5" stroke="url(#paint1_linear_1013_3594)"></rect>
  <path d="M65.0002 48.3335C55.8168 48.3335 48.3335 55.8168 48.3335 65.0002C48.3335 74.1835 55.8168 81.6668 65.0002 81.6668C74.1835 81.6668 81.6668 74.1835 81.6668 65.0002C81.6668 55.8168 74.1835 48.3335 65.0002 48.3335ZM72.2502 70.9502C72.0168 71.3502 71.6002 71.5668 71.1668 71.5668C70.9502 71.5668 70.7335 71.5168 70.5335 71.3835L65.3668 68.3002C64.0835 67.5335 63.1335 65.8502 63.1335 64.3668V57.5335C63.1335 56.8502 63.7002 56.2835 64.3835 56.2835C65.0668 56.2835 65.6335 56.8502 65.6335 57.5335V64.3668C65.6335 64.9668 66.1335 65.8502 66.6502 66.1502L71.8168 69.2335C72.4168 69.5835 72.6168 70.3502 72.2502 70.9502Z" fill="white"></path>
  <rect x="100.5" y="0.5" width="129" height="129" rx="64.5" fill="url(#paint2_linear_1013_3594)"></rect>
  <rect x="100.5" y="0.5" width="129" height="129" rx="64.5" stroke="url(#paint3_linear_1013_3594)"></rect>
  <path d="M171.333 48.6832C170.65 47.9998 169.467 48.4665 169.467 49.4165V55.2332C169.467 57.6665 171.533 59.6832 174.05 59.6832C175.633 59.6998 177.833 59.6998 179.717 59.6998C180.667 59.6998 181.167 58.5832 180.5 57.9165C178.1 55.4998 173.8 51.1498 171.333 48.6832Z" fill="white"></path>
  <path d="M179.167 61.9835H174.35C170.4 61.9835 167.183 58.7668 167.183 54.8168V50.0002C167.183 49.0835 166.433 48.3335 165.517 48.3335H158.45C153.317 48.3335 149.167 51.6668 149.167 57.6168V72.3835C149.167 78.3335 153.317 81.6668 158.45 81.6668H171.55C176.683 81.6668 180.833 78.3335 180.833 72.3835V63.6502C180.833 62.7335 180.083 61.9835 179.167 61.9835ZM164.167 74.5835H157.5C156.817 74.5835 156.25 74.0168 156.25 73.3335C156.25 72.6502 156.817 72.0835 157.5 72.0835H164.167C164.85 72.0835 165.417 72.6502 165.417 73.3335C165.417 74.0168 164.85 74.5835 164.167 74.5835ZM167.5 67.9168H157.5C156.817 67.9168 156.25 67.3502 156.25 66.6668C156.25 65.9835 156.817 65.4168 157.5 65.4168H167.5C168.183 65.4168 168.75 65.9835 168.75 66.6668C168.75 67.3502 168.183 67.9168 167.5 67.9168Z" fill="white"></path>
  <rect x="200.5" y="0.5" width="129" height="129" rx="64.5" fill="url(#paint4_linear_1013_3594)"></rect>
  <rect x="200.5" y="0.5" width="129" height="129" rx="64.5" stroke="url(#paint5_linear_1013_3594)"></rect>
  <path d="M277.5 57.5001L275.017 59.9835L270.017 54.9835L272.5 52.5001C273.2 51.8001 274.1 51.4668 275 51.4668C275.9 51.4668 276.8 51.8001 277.5 52.5001C278.883 53.8835 278.883 56.1168 277.5 57.5001Z" fill="white"></path>
  <path d="M273.85 61.167L255.833 79.167C254.45 80.5503 252.217 80.5503 250.833 79.167C249.45 77.7837 249.45 75.5503 250.833 74.167L268.85 56.167L273.85 61.167Z" fill="white"></path>
  <path d="M261.584 50.8329L262.267 48.5162C262.334 48.2995 262.267 48.0662 262.117 47.8995C261.967 47.7329 261.7 47.6662 261.484 47.7329L259.167 48.4162L256.85 47.7329C256.634 47.6662 256.4 47.7329 256.234 47.8829C256.067 48.0495 256.017 48.2829 256.084 48.4995L256.75 50.8329L256.067 53.1495C256 53.3662 256.067 53.5995 256.217 53.7662C256.384 53.9329 256.617 53.9829 256.834 53.9162L259.167 53.2495L261.484 53.9329C261.55 53.9495 261.6 53.9662 261.667 53.9662C261.834 53.9662 261.984 53.8995 262.117 53.7829C262.284 53.6162 262.334 53.3829 262.267 53.1662L261.584 50.8329Z" fill="white"></path>
  <path d="M254.917 60.8329L255.6 58.5162C255.667 58.2995 255.6 58.0662 255.45 57.8995C255.283 57.7329 255.05 57.6829 254.833 57.7495L252.5 58.4162L250.183 57.7329C249.967 57.6662 249.733 57.7329 249.567 57.8829C249.4 58.0495 249.35 58.2829 249.417 58.4995L250.083 60.8329L249.4 63.1495C249.333 63.3662 249.4 63.5995 249.55 63.7662C249.717 63.9329 249.95 63.9829 250.167 63.9162L252.483 63.2329L254.8 63.9162C254.85 63.9329 254.917 63.9329 254.983 63.9329C255.15 63.9329 255.3 63.8662 255.433 63.7495C255.6 63.5829 255.65 63.3495 255.583 63.1329L254.917 60.8329Z" fill="white"></path>
  <path d="M279.917 69.1666L280.6 66.8499C280.667 66.6333 280.6 66.3999 280.45 66.2333C280.283 66.0666 280.05 66.0166 279.833 66.0833L277.517 66.7666L275.2 66.0833C274.983 66.0166 274.75 66.0833 274.583 66.2333C274.417 66.3999 274.367 66.6333 274.433 66.8499L275.117 69.1666L274.433 71.4833C274.367 71.6999 274.433 71.9333 274.583 72.0999C274.75 72.2666 274.983 72.3166 275.2 72.2499L277.517 71.5666L279.833 72.2499C279.883 72.2666 279.95 72.2666 280.017 72.2666C280.183 72.2666 280.333 72.1999 280.467 72.0833C280.633 71.9166 280.683 71.6833 280.617 71.4666L279.917 69.1666Z" fill="white"></path>
  <rect x="300.5" y="0.5" width="129" height="129" rx="64.5" fill="url(#paint6_linear_1013_3594)"></rect>
  <rect x="300.5" y="0.5" width="129" height="129" rx="64.5" stroke="url(#paint7_linear_1013_3594)"></rect>
  <path d="M380 82.917H350C349.317 82.917 348.75 82.3503 348.75 81.667C348.75 80.9837 349.317 80.417 350 80.417H380C380.683 80.417 381.25 80.9837 381.25 81.667C381.25 82.3503 380.683 82.917 380 82.917Z" fill="white"></path>
  <path d="M354.333 58.9668H351.667C350.75 58.9668 350 59.7168 350 60.6335V75.0001C350 75.9168 350.75 76.6668 351.667 76.6668H354.333C355.25 76.6668 356 75.9168 356 75.0001V60.6335C356 59.7001 355.25 58.9668 354.333 58.9668Z" fill="white"></path>
  <path d="M366.333 53.6504H363.667C362.75 53.6504 362 54.4004 362 55.3171V75.0004C362 75.9171 362.75 76.6671 363.667 76.6671H366.333C367.25 76.6671 368 75.9171 368 75.0004V55.3171C368 54.4004 367.25 53.6504 366.333 53.6504Z" fill="white"></path>
  <path d="M378.333 48.333H375.667C374.75 48.333 374 49.083 374 49.9997V74.9997C374 75.9163 374.75 76.6663 375.667 76.6663H378.333C379.25 76.6663 380 75.9163 380 74.9997V49.9997C380 49.083 379.25 48.333 378.333 48.333Z" fill="white"></path>
  <defs>
    <linearGradient id="paint0_linear_1013_3594" x1="-1.93715e-06" y1="130" x2="148.321" y2="103.828" gradientUnits="userSpaceOnUse">
      <stop stop-color="white" stop-opacity="0"></stop>
      <stop offset="1" stop-color="white" stop-opacity="0.1"></stop>
    </linearGradient>
    <linearGradient id="paint1_linear_1013_3594" x1="-1.93715e-06" y1="130" x2="148.321" y2="103.828" gradientUnits="userSpaceOnUse">
      <stop stop-color="white" stop-opacity="0"></stop>
      <stop offset="1" stop-color="white" stop-opacity="0.1"></stop>
    </linearGradient>
    <linearGradient id="paint2_linear_1013_3594" x1="100" y1="130" x2="248.321" y2="103.828" gradientUnits="userSpaceOnUse">
      <stop stop-color="white" stop-opacity="0"></stop>
      <stop offset="1" stop-color="white" stop-opacity="0.1"></stop>
    </linearGradient>
    <linearGradient id="paint3_linear_1013_3594" x1="100" y1="130" x2="248.321" y2="103.828" gradientUnits="userSpaceOnUse">
      <stop stop-color="white" stop-opacity="0"></stop>
      <stop offset="1" stop-color="white" stop-opacity="0.1"></stop>
    </linearGradient>
    <linearGradient id="paint4_linear_1013_3594" x1="200" y1="130" x2="348.321" y2="103.828" gradientUnits="userSpaceOnUse">
      <stop stop-color="white" stop-opacity="0"></stop>
      <stop offset="1" stop-color="white" stop-opacity="0.1"></stop>
    </linearGradient>
    <linearGradient id="paint5_linear_1013_3594" x1="200" y1="130" x2="348.321" y2="103.828" gradientUnits="userSpaceOnUse">
      <stop stop-color="white" stop-opacity="0"></stop>
      <stop offset="1" stop-color="white" stop-opacity="0.1"></stop>
    </linearGradient>
    <linearGradient id="paint6_linear_1013_3594" x1="300" y1="130" x2="448.321" y2="103.828" gradientUnits="userSpaceOnUse">
      <stop stop-color="white" stop-opacity="0"></stop>
      <stop offset="1" stop-color="white" stop-opacity="0.1"></stop>
    </linearGradient>
    <linearGradient id="paint7_linear_1013_3594" x1="300" y1="130" x2="448.321" y2="103.828" gradientUnits="userSpaceOnUse">
      <stop stop-color="white" stop-opacity="0"></stop>
      <stop offset="1" stop-color="white" stop-opacity="0.1"></stop>
    </linearGradient>
  </defs>
</svg>
