<?xml version="1.0" encoding="UTF-8"?>
<svg xmlns="http://www.w3.org/2000/svg" width="130" height="40" viewBox="0 0 130 40" fill="none">
  <g id="Airbnb svg" clip-path="url(#clip0_1166_5943)">
    <path id="Vector" d="M68.5129 10.05C68.5129 11.4915 67.3352 12.6527 65.8731 12.6527C64.4111 12.6527 63.2333 11.4915 63.2333 10.05C63.2333 8.60861 64.3705 7.44745 65.8731 7.44745C67.3758 7.48749 68.5129 8.64865 68.5129 10.05ZM57.6288 15.2953C57.6288 15.5355 57.6288 15.9359 57.6288 15.9359C57.6288 15.9359 56.3698 14.3343 53.6894 14.3343C49.2627 14.3343 45.8106 17.6577 45.8106 22.2623C45.8106 26.8268 49.2221 30.1902 53.6894 30.1902C56.4105 30.1902 57.6288 28.5485 57.6288 28.5485V29.2292C57.6288 29.5495 57.8725 29.7898 58.1974 29.7898H61.487V14.7347C61.487 14.7347 58.4817 14.7347 58.1974 14.7347C57.8725 14.7347 57.6288 15.015 57.6288 15.2953ZM57.6288 24.9449C57.0196 25.8258 55.8013 26.5866 54.3392 26.5866C51.74 26.5866 49.75 24.985 49.75 22.2623C49.75 19.5395 51.74 17.9379 54.3392 17.9379C55.7607 17.9379 57.0602 18.7387 57.6288 19.5796V24.9449ZM63.9237 14.7347H67.8225V29.7898H63.9237V14.7347ZM122.162 14.3343C119.481 14.3343 118.222 15.9359 118.222 15.9359V7.48749H114.324V29.7898C114.324 29.7898 117.329 29.7898 117.613 29.7898C117.938 29.7898 118.182 29.5095 118.182 29.2292V28.5485C118.182 28.5485 119.441 30.1902 122.121 30.1902C126.548 30.1902 130 26.8268 130 22.2623C130 17.6977 126.548 14.3343 122.162 14.3343ZM121.512 26.5465C120.009 26.5465 118.832 25.7858 118.222 24.9049V19.5395C118.832 18.7387 120.131 17.8979 121.512 17.8979C124.111 17.8979 126.101 19.4995 126.101 22.2222C126.101 24.9449 124.111 26.5465 121.512 26.5465ZM112.293 20.8609V29.8298H108.394V21.3013C108.394 18.8188 107.582 17.8178 105.389 17.8178C104.211 17.8178 102.993 18.4184 102.221 19.2993V29.7898H98.3224V14.7347H101.409C101.734 14.7347 101.977 15.015 101.977 15.2953V15.9359C103.115 14.7748 104.617 14.3343 106.12 14.3343C107.826 14.3343 109.247 14.8148 110.384 15.7758C111.765 16.8969 112.293 18.3383 112.293 20.8609ZM88.8597 14.3343C86.1793 14.3343 84.9203 15.9359 84.9203 15.9359V7.48749H81.0215V29.7898C81.0215 29.7898 84.0268 29.7898 84.3111 29.7898C84.636 29.7898 84.8797 29.5095 84.8797 29.2292V28.5485C84.8797 28.5485 86.1387 30.1902 88.8191 30.1902C93.2458 30.1902 96.6979 26.8268 96.6979 22.2623C96.7385 17.6977 93.2864 14.3343 88.8597 14.3343ZM88.2099 26.5465C86.7072 26.5465 85.5295 25.7858 84.9203 24.9049V19.5395C85.5295 18.7387 86.8291 17.8979 88.2099 17.8979C90.8091 17.8979 92.7991 19.4995 92.7991 22.2222C92.7991 24.9449 90.8091 26.5465 88.2099 26.5465ZM77.6507 14.3343C78.8284 14.3343 79.4376 14.5345 79.4376 14.5345V18.0981C79.4376 18.0981 76.1887 17.017 74.158 19.2993V29.8298H70.2593V14.7347C70.2593 14.7347 73.2646 14.7347 73.5489 14.7347C73.8737 14.7347 74.1174 15.015 74.1174 15.2953V15.9359C74.8484 15.0951 76.4323 14.3343 77.6507 14.3343ZM37.1602 28.4284C36.9572 27.9479 36.7541 27.4274 36.551 26.987C36.2261 26.2663 35.9012 25.5856 35.617 24.9449L35.5763 24.9049C32.7741 18.8989 29.7688 12.8128 26.601 6.80681L26.4792 6.56657C26.1543 5.96597 25.8294 5.32533 25.5045 4.68468C25.0984 3.96396 24.6922 3.2032 24.0425 2.48248C22.7429 0.880881 20.8747 0 18.8847 0C16.8541 0 15.0265 0.880881 13.6863 2.4024C13.0771 3.12312 12.6304 3.88388 12.2243 4.6046C11.8994 5.24525 11.5745 5.88589 11.2496 6.48649L11.1277 6.72673C8.00059 12.7327 4.95467 18.8188 2.15242 24.8248L2.11181 24.9049C1.82752 25.5455 1.50262 26.2262 1.17772 26.9469C0.974662 27.3874 0.7716 27.8679 0.568539 28.3884C0.0405787 29.8699 -0.121871 31.2713 0.081191 32.7127C0.527926 35.7157 2.55854 38.2382 5.36079 39.3594C6.41671 39.7998 7.51324 40 8.65039 40C8.97529 40 9.38141 39.96 9.70631 39.9199C11.0465 39.7598 12.4273 39.3193 13.7675 38.5586C15.4326 37.6376 17.0165 36.3163 18.8035 34.3944C20.5904 36.3163 22.2149 37.6376 23.8394 38.5586C25.1796 39.3193 26.5604 39.7598 27.9006 39.9199C28.2255 39.96 28.6316 40 28.9565 40C30.0937 40 31.2308 39.7998 32.2461 39.3594C35.089 38.2382 37.079 35.6757 37.5257 32.7127C37.8506 31.3113 37.6882 29.9099 37.1602 28.4284ZM18.8441 30.5105C16.651 27.7878 15.2296 25.2252 14.7422 23.0631C14.5392 22.1421 14.4986 21.3413 14.6204 20.6206C14.7016 19.98 14.9453 19.4194 15.2702 18.9389C16.0418 17.8579 17.3414 17.1772 18.8441 17.1772C20.3467 17.1772 21.6869 17.8178 22.418 18.9389C22.7429 19.4194 22.9865 19.98 23.0678 20.6206C23.1896 21.3413 23.149 22.1822 22.9459 23.0631C22.4586 25.1852 21.0371 27.7477 18.8441 30.5105ZM35.0484 32.3924C34.7641 34.4745 33.3427 36.2763 31.3527 37.0771C30.378 37.4775 29.322 37.5976 28.2661 37.4775C27.2508 37.3574 26.2355 37.037 25.1796 36.4364C23.7176 35.6356 22.2555 34.3944 20.5498 32.5526C23.2302 29.3093 24.8547 26.3463 25.4639 23.7037C25.7482 22.4625 25.7888 21.3413 25.6669 20.3003C25.5045 19.2993 25.139 18.3784 24.5704 17.5776C23.3114 15.7758 21.1996 14.7347 18.8441 14.7347C16.4886 14.7347 14.3767 15.8158 13.1177 17.5776C12.5492 18.3784 12.1837 19.2993 12.0212 20.3003C11.8588 21.3413 11.8994 22.5025 12.2243 23.7037C12.8335 26.3463 14.4986 29.3493 17.1384 32.5926C15.4733 34.4344 13.9706 35.6757 12.5086 36.4765C11.4526 37.0771 10.4373 37.3974 9.42202 37.5175C8.32549 37.6376 7.26957 37.4775 6.33549 37.1171C4.34548 36.3163 2.92405 34.5145 2.63977 32.4324C2.51793 31.4314 2.59915 30.4304 3.00528 29.3093C3.12711 28.9089 3.33018 28.5085 3.53324 28.028C3.81752 27.3874 4.14242 26.7067 4.46732 26.026L4.50793 25.9459C7.31018 19.98 10.3155 13.8939 13.4426 7.96797L13.5645 7.72773C13.8894 7.12713 14.2143 6.48649 14.5392 5.88589C14.8641 5.24524 15.2296 4.64464 15.6763 4.12412C16.5292 3.16316 17.6663 2.64264 18.9253 2.64264C20.1843 2.64264 21.3214 3.16316 22.1743 4.12412C22.621 4.64464 22.9865 5.24524 23.3114 5.88589C23.6363 6.48649 23.9612 7.12713 24.2861 7.72773L24.408 7.96797C27.4945 13.9339 30.4998 20.02 33.3021 25.986V26.026C33.627 26.6667 33.9112 27.3874 34.2361 28.028C34.4392 28.5085 34.6423 28.9089 34.7641 29.3093C35.089 30.3503 35.2108 31.3514 35.0484 32.3924Z" fill="white"></path>
  </g>
  <defs>
    <clipPath id="clip0_1166_5943">
      <rect width="130" height="40" fill="white"></rect>
    </clipPath>
  </defs>
</svg>
