<svg width="220" height="110" viewBox="0 0 220 110" fill="none" xmlns="http://www.w3.org/2000/svg">
<path d="M88.0932 62.6805C88.0932 63.3358 87.9266 63.9093 87.6768 64.4008C87.4269 64.8923 87.0938 65.302 86.6774 65.7116C86.261 66.0393 85.6781 66.3669 85.0951 66.5308C84.5122 66.6946 83.846 66.7766 83.1797 66.7766H75.3516V50.8018H83.6794C84.2624 50.8018 84.762 50.8837 85.1784 51.1294C85.5948 51.3752 86.0112 51.7029 86.3443 52.0306C86.6774 52.4402 86.9273 52.8498 87.0938 53.3413C87.2604 53.8329 87.3437 54.3244 87.3437 54.8159C87.3437 55.6352 87.1771 56.2905 86.7607 57.0278C86.3443 57.7651 85.7614 58.1747 85.0119 58.5024C85.9279 58.7482 86.6774 59.2397 87.1771 59.977C87.8433 60.7962 88.0932 61.6155 88.0932 62.6805ZM77.9332 53.0137V57.6832H82.5968C82.9299 57.6832 83.1797 57.6013 83.5129 57.5194C83.7627 57.4374 84.0125 57.2736 84.1791 57.0278C84.3456 56.7821 84.5122 56.6182 84.6787 56.2905C84.762 56.0448 84.8453 55.7171 84.8453 55.3075C84.8453 54.6521 84.6787 54.0786 84.2624 53.5871C83.846 53.1775 83.3463 52.9317 82.7633 52.9317H77.9332V53.0137ZM85.5115 62.1889C85.5115 61.8612 85.4283 61.5335 85.345 61.2059C85.2617 60.8782 85.0951 60.6324 84.9286 60.3866C84.762 60.1409 84.5122 59.977 84.2624 59.8132C84.0125 59.6493 83.6794 59.6493 83.3463 59.6493H77.9332V64.4827H83.0965C83.4296 64.4827 83.7627 64.4008 84.0125 64.3189C84.2624 64.1551 84.5122 63.9912 84.762 63.8274C85.0119 63.5816 85.1784 63.3358 85.2617 63.0901C85.4283 62.8443 85.5115 62.5166 85.5115 62.1889Z" fill="#121212"/>
<path d="M93.6731 67.0225C93.0902 67.0225 92.5905 66.9406 92.0909 66.7768C91.5912 66.6129 91.1748 66.3671 90.8417 66.0395C90.5086 65.7118 90.1755 65.3022 90.0089 64.8925C89.8423 64.4829 89.6758 63.9914 89.6758 63.418C89.6758 62.8445 89.7591 62.353 90.0089 61.9434C90.2587 61.5337 90.5918 61.1241 91.0082 60.7964C91.4246 60.4688 92.0076 60.223 92.5905 60.0591C93.1735 59.8953 93.923 59.8134 94.6725 59.8134C95.2554 59.8134 95.7551 59.8953 96.3381 59.9772C96.921 60.0591 97.4207 60.223 97.8371 60.3868V59.5676C97.8371 58.6665 97.5872 58.0111 97.0876 57.5196C96.5879 57.028 95.8384 56.7823 94.9223 56.7823C94.2561 56.7823 93.6731 56.8642 93.0069 57.11C92.424 57.3557 91.7577 57.6834 91.0915 58.093L90.342 56.5365C91.841 55.5534 93.5066 54.98 95.1722 54.98C96.8377 54.98 98.0869 55.3896 99.003 56.2088C99.919 57.028 100.335 58.1749 100.335 59.7315V63.9914C100.335 64.4829 100.585 64.8106 101.002 64.8106V66.9406C100.752 67.0225 100.585 67.0225 100.335 67.0225C100.086 67.0225 100.002 67.0225 99.8358 67.0225C99.3361 67.0225 99.003 66.9406 98.6699 66.6948C98.42 66.4491 98.2535 66.1214 98.1702 65.7937L98.0869 64.8925C97.5872 65.5479 96.921 66.1214 96.0882 66.4491C95.2554 66.7768 94.5059 67.0225 93.6731 67.0225ZM94.3394 65.2202C94.9223 65.2202 95.5053 65.1383 96.0882 64.8925C96.5879 64.6468 97.0876 64.401 97.3374 63.9914C97.6705 63.7456 97.8371 63.418 97.8371 63.1722V61.6157C97.4207 61.4518 96.921 61.288 96.5046 61.2061C96.0049 61.1241 95.5886 61.0422 95.0889 61.0422C94.1728 61.0422 93.4233 61.2061 92.9236 61.6157C92.3407 62.0253 92.0909 62.5168 92.0909 63.0903C92.0909 63.6637 92.3407 64.1552 92.7571 64.5649C93.0902 64.9745 93.6731 65.2202 94.3394 65.2202Z" fill="#121212"/>
<path d="M113.992 66.7766H111.494V60.2229C111.494 59.076 111.327 58.3387 110.994 57.8471C110.661 57.3556 110.078 57.1098 109.412 57.1098C109.079 57.1098 108.663 57.1918 108.329 57.2737C107.996 57.4375 107.663 57.6014 107.33 57.8471C106.997 58.0929 106.747 58.4206 106.497 58.7483C106.247 59.076 106.081 59.4856 105.914 59.8952V66.8586H103.416V55.0618H105.665V57.4375C106.081 56.6183 106.747 56.0449 107.663 55.5533C108.496 55.0618 109.495 54.8979 110.578 54.8979C111.327 54.8979 111.91 55.0618 112.327 55.3076C112.743 55.5533 113.16 55.881 113.409 56.3725C113.659 56.7822 113.826 57.3556 113.992 57.9291C114.076 58.5025 114.159 59.076 114.159 59.7313V66.7766H113.992Z" fill="#121212"/>
<path d="M125.235 66.7765L121.404 61.3696L119.406 63.1719V66.7765H116.907V50.3921H119.406V60.7962L124.902 55.0616H127.65L122.987 59.977L127.9 66.7765H125.235Z" fill="#121212"/>
<path d="M139.392 54.5701C139.226 54.4062 139.059 54.2424 138.726 54.0785C138.476 53.9147 138.06 53.7508 137.727 53.587C137.394 53.4232 136.894 53.2593 136.478 53.1774C136.061 53.0955 135.562 53.0135 135.062 53.0135C133.979 53.0135 133.146 53.1774 132.647 53.587C132.147 53.9966 131.897 54.4881 131.897 55.2254C131.897 55.6351 131.981 55.9627 132.147 56.2085C132.314 56.4543 132.564 56.7 132.897 56.8639C133.23 57.0277 133.646 57.1916 134.146 57.3554C134.645 57.5193 135.228 57.6831 135.895 57.8469C136.727 58.0108 137.477 58.2566 138.143 58.5023C138.809 58.7481 139.392 58.9939 139.809 59.4035C140.225 59.7312 140.642 60.1408 140.891 60.6323C141.141 61.1238 141.308 61.7792 141.308 62.4346C141.308 63.2538 141.141 63.9092 140.808 64.4826C140.475 65.0561 140.059 65.5476 139.559 65.8753C139.059 66.203 138.393 66.5307 137.644 66.6945C136.894 66.8584 136.144 66.9403 135.312 66.9403C134.063 66.9403 132.897 66.7764 131.731 66.3668C130.565 66.0391 129.565 65.4657 128.649 64.7284L129.815 62.5984C129.982 62.7623 130.315 63.008 130.648 63.2538C130.981 63.4996 131.481 63.7453 131.981 63.9092C132.48 64.073 132.98 64.3188 133.563 64.4007C134.146 64.5646 134.729 64.6465 135.395 64.6465C136.394 64.6465 137.144 64.4826 137.727 64.1549C138.31 63.8273 138.56 63.3357 138.56 62.5984C138.56 62.1888 138.476 61.8611 138.226 61.6154C138.06 61.3696 137.727 61.1238 137.31 60.8781C136.894 60.7142 136.478 60.4685 135.895 60.3046C135.312 60.1408 134.729 59.9769 134.063 59.8131C133.23 59.5673 132.564 59.4035 131.981 59.1577C131.398 58.9119 130.898 58.6662 130.482 58.3385C130.065 58.0108 129.815 57.6012 129.565 57.1916C129.399 56.782 129.232 56.2085 129.232 55.5531C129.232 54.8158 129.399 54.0785 129.649 53.5051C129.982 52.9316 130.398 52.3582 130.898 51.9486C131.398 51.5389 132.064 51.2113 132.73 51.0474C133.396 50.8836 134.229 50.7197 135.062 50.7197C136.144 50.7197 137.144 50.8836 138.06 51.2113C138.976 51.5389 139.809 51.9486 140.475 52.522L139.392 54.5701Z" fill="#121212"/>
<path d="M148.72 67.0224C147.804 67.0224 146.888 66.8586 146.139 66.5309C145.389 66.2032 144.723 65.7936 144.223 65.2201C143.724 64.6467 143.307 63.9913 142.974 63.254C142.724 62.5167 142.558 61.7794 142.558 60.9602C142.558 60.141 142.724 59.4037 142.974 58.6664C143.224 57.9291 143.64 57.2737 144.223 56.7002C144.723 56.1268 145.389 55.7172 146.139 55.3895C146.888 55.0618 147.721 54.8979 148.637 54.8979C149.553 54.8979 150.386 55.0618 151.135 55.3895C151.885 55.7172 152.551 56.1268 153.051 56.7002C153.55 57.2737 153.967 57.9291 154.3 58.6664C154.55 59.4037 154.716 60.141 154.716 60.9602C154.716 61.7794 154.55 62.5167 154.3 63.254C154.05 63.9913 153.634 64.6467 153.051 65.2201C152.468 65.7936 151.885 66.2032 151.135 66.5309C150.552 66.8586 149.72 67.0224 148.72 67.0224ZM145.223 60.9602C145.223 61.5336 145.306 62.0252 145.472 62.5167C145.639 63.0082 145.889 63.4178 146.222 63.7455C146.555 64.0732 146.888 64.4009 147.388 64.5647C147.804 64.7286 148.304 64.8924 148.803 64.8924C149.303 64.8924 149.803 64.8105 150.219 64.5647C150.636 64.4009 151.052 64.0732 151.385 63.7455C151.718 63.4178 151.968 62.9263 152.135 62.5167C152.301 62.0252 152.384 61.5336 152.384 60.9602C152.384 60.3867 152.301 59.8952 152.135 59.4037C151.968 58.9121 151.718 58.5025 151.385 58.1748C151.052 57.8471 150.719 57.5195 150.219 57.3556C149.72 57.1918 149.303 57.0279 148.803 57.0279C148.304 57.0279 147.887 57.1098 147.388 57.3556C146.888 57.6014 146.555 57.8471 146.222 58.1748C145.889 58.5025 145.639 58.9941 145.472 59.4037C145.306 59.8952 145.223 60.3867 145.223 60.9602Z" fill="#121212"/>
<path d="M156.382 60.8781C156.382 60.0589 156.548 59.2397 156.798 58.5843C157.048 57.847 157.464 57.1917 158.047 56.6182C158.547 56.0447 159.213 55.6351 159.963 55.3074C160.712 54.9798 161.545 54.8159 162.544 54.8159C163.794 54.8159 164.876 55.0617 165.709 55.6351C166.542 56.2086 167.291 56.864 167.708 57.7651L165.293 58.5024C165.043 58.0109 164.626 57.6013 164.127 57.3555C163.627 57.1097 163.127 56.9459 162.544 56.9459C162.045 56.9459 161.545 57.0278 161.129 57.2736C160.712 57.5193 160.296 57.7651 159.963 58.0928C159.63 58.4205 159.38 58.8301 159.213 59.3216C159.047 59.8132 158.963 60.3047 158.963 60.8781C158.963 61.4516 159.047 61.9431 159.213 62.4347C159.38 62.9262 159.63 63.3358 159.963 63.6635C160.296 63.9912 160.629 64.3189 161.129 64.4827C161.545 64.6466 162.045 64.8104 162.544 64.8104C162.878 64.8104 163.127 64.8104 163.461 64.6466C163.794 64.5646 164.043 64.4827 164.293 64.3189C164.543 64.155 164.793 63.9912 164.96 63.8273C165.126 63.6635 165.293 63.4177 165.376 63.172L167.874 63.9093C167.458 64.8104 166.792 65.5477 165.876 66.0392C164.96 66.6127 163.877 66.8585 162.628 66.8585C161.712 66.8585 160.879 66.6946 160.129 66.3669C159.38 66.0392 158.714 65.6296 158.214 65.0562C157.714 64.4827 157.215 63.8273 156.965 63.09C156.465 62.5166 156.382 61.6974 156.382 60.8781Z" fill="#121212"/>
<path d="M169.873 53.0955V50.3921H172.371V53.0955H169.873ZM169.873 66.7765V55.0616H172.371V66.7765H169.873Z" fill="#121212"/>
<path d="M178.534 67.0225C177.951 67.0225 177.451 66.9406 176.951 66.7768C176.452 66.6129 176.035 66.3671 175.702 66.0395C175.369 65.7118 175.036 65.3022 174.869 64.8925C174.703 64.4829 174.536 63.9914 174.536 63.418C174.536 62.8445 174.619 62.353 174.869 61.9434C175.119 61.5337 175.452 61.1241 175.869 60.7964C176.285 60.4688 176.868 60.223 177.451 60.0591C178.034 59.8953 178.783 59.8134 179.533 59.8134C180.116 59.8134 180.615 59.8953 181.198 59.9772C181.781 60.0591 182.198 60.223 182.697 60.3868V59.5676C182.697 58.6665 182.448 58.0111 181.948 57.5196C181.448 57.028 180.699 56.7823 179.783 56.7823C179.116 56.7823 178.534 56.8642 177.867 57.11C177.284 57.3557 176.618 57.6834 175.952 58.093L175.202 56.5365C176.701 55.5534 178.367 54.98 180.033 54.98C181.698 54.98 182.947 55.3896 183.863 56.2088C184.779 57.028 185.196 58.1749 185.196 59.7315V63.9914C185.196 64.4829 185.446 64.8106 185.862 64.8106V66.9406C185.612 67.0225 185.446 67.0225 185.196 67.0225C184.946 67.0225 184.863 67.0225 184.696 67.0225C184.196 67.0225 183.863 66.9406 183.53 66.6948C183.28 66.4491 183.114 66.1214 183.031 65.7937L182.947 65.0564C182.448 65.7118 181.781 66.2852 180.949 66.6129C180.116 66.9406 179.45 67.0225 178.534 67.0225ZM179.283 65.2202C179.866 65.2202 180.449 65.1383 181.032 64.8925C181.532 64.6468 182.031 64.401 182.281 63.9914C182.614 63.7456 182.781 63.418 182.781 63.1722V61.6157C182.364 61.4518 181.865 61.288 181.448 61.2061C180.949 61.1241 180.532 61.0422 180.033 61.0422C179.116 61.0422 178.367 61.2061 177.867 61.6157C177.284 62.0253 177.034 62.5168 177.034 63.0903C177.034 63.6637 177.284 64.1552 177.701 64.5649C178.034 64.9745 178.534 65.2202 179.283 65.2202Z" fill="#121212"/>
<path d="M188.277 50.3921H190.776V63.4177C190.776 63.8273 190.859 64.155 191.109 64.4008C191.359 64.6465 191.692 64.8104 192.108 64.8104C192.275 64.8104 192.441 64.8104 192.691 64.7284C192.941 64.6465 193.107 64.5646 193.357 64.5646L193.69 66.5307C193.357 66.6946 192.858 66.8584 192.358 66.9403C191.858 67.0223 191.442 67.1042 191.026 67.1042C190.193 67.1042 189.527 66.8584 189.027 66.4488C188.527 65.9573 188.277 65.3019 188.277 64.4827V50.3921Z" fill="#121212"/>
<path d="M36.6508 42.2715V61.351H49.6111V67.7283H30.1973V48.6488L36.6508 42.2715Z" fill="#747474"/>
<path d="M56.0652 42.2715L62.5453 48.6488H43.1315V54.9999V61.351H36.6514V42.2715H56.0652Z" fill="#989898"/>
<path d="M30.1973 67.7284H49.6111V61.3773V55H56.0647V74.0795H36.6508L30.1973 67.7284Z" fill="#565656"/>
<path d="M62.5181 48.6489V67.7285L56.0646 74.0796V55.0001H43.1309V48.6489H62.5181Z" fill="#121212"/>
<path d="M30.1973 35.9204L36.6774 42.2715V50.2431H30.1973V35.9204Z" fill="#747474"/>
</svg>
