<svg width="220" height="110" viewBox="0 0 220 110" fill="none" xmlns="http://www.w3.org/2000/svg">
<g clip-path="url(#clip0_772_1908)">
<path d="M92.7539 49.5938C92.8032 50.8583 92.4854 52.1106 91.8373 53.2057C91.1892 54.3008 90.2374 55.1938 89.092 55.7813C89.8016 56.2196 90.3751 56.8396 90.7504 57.5741C91.1257 58.3085 91.2884 59.1295 91.221 59.948C91.221 64.7084 87.9317 67.8021 83.631 67.8021H74.2207L78.7449 44.0938H86.9097C91.0507 44.0938 92.7539 46.7292 92.7539 49.5938ZM88.4959 50.323C88.5363 50.0107 88.504 49.6936 88.4013 49.3954C88.2985 49.0971 88.1281 48.8255 87.9027 48.601C87.6773 48.3764 87.4029 48.2048 87.1 48.0989C86.7971 47.993 86.4737 47.9557 86.1539 47.9896H82.1939L81.0549 53.823H85.0681C85.537 53.8311 86.0026 53.744 86.4354 53.5674C86.8682 53.3907 87.2589 53.1282 87.583 52.7965C87.907 52.4647 88.1573 52.0709 88.3181 51.6398C88.4788 51.2087 88.5466 50.7497 88.5172 50.2917L88.4959 50.323ZM87.0162 60.1459C87.0528 59.8274 87.0175 59.5049 86.9127 59.2013C86.8079 58.8976 86.6362 58.6202 86.4097 58.3887C86.1833 58.1572 85.9076 57.9771 85.6022 57.8614C85.2968 57.7456 84.9691 57.6969 84.6423 57.7188H80.331L79.1601 63.9063H83.5246C84.015 63.9084 84.5005 63.81 84.9497 63.6174C85.399 63.4249 85.802 63.1424 86.1329 62.7881C86.4639 62.4339 86.7153 62.0158 86.8711 61.5607C87.0269 61.1056 87.0836 60.6237 87.0375 60.1459H87.0162ZM102.217 45.5625C102.24 45.8926 102.192 46.2235 102.079 46.5349C101.965 46.8463 101.787 47.1315 101.556 47.3729C101.325 47.6144 101.046 47.8068 100.736 47.9384C100.425 48.0699 100.091 48.1378 99.7531 48.1378C99.4152 48.1378 99.0808 48.0699 98.7707 47.9384C98.4606 47.8068 98.1814 47.6144 97.9504 47.3729C97.7194 47.1315 97.5415 46.8463 97.4277 46.5349C97.3139 46.2235 97.2666 45.8926 97.2888 45.5625C97.2666 45.2325 97.3139 44.9016 97.4277 44.5902C97.5415 44.2788 97.7194 43.9936 97.9504 43.7521C98.1814 43.5107 98.4606 43.3183 98.7707 43.1867C99.0808 43.0552 99.4152 42.9873 99.7531 42.9873C100.091 42.9873 100.425 43.0552 100.736 43.1867C101.046 43.3183 101.325 43.5107 101.556 43.7521C101.787 43.9936 101.965 44.2788 102.079 44.5902C102.192 44.9016 102.24 45.2325 102.217 45.5625ZM100.919 50.4584L97.6294 67.8021H93.7014L96.9907 50.4584H100.919ZM112.203 50.9271L111.607 54.1146H108.903L107.295 62.6355C107.247 62.8439 107.226 63.0573 107.231 63.2709C107.231 63.9688 107.636 64.3125 108.498 64.3125H109.914L109.254 67.7813H107.231C106.709 67.8215 106.185 67.7529 105.692 67.5801C105.199 67.4074 104.749 67.1343 104.372 66.779C103.995 66.4237 103.699 65.9941 103.503 65.5187C103.308 65.0433 103.218 64.5328 103.239 64.0209C103.239 63.539 103.282 63.058 103.367 62.5834L104.985 54.0938H103.282L103.889 50.9063H105.56L106.539 45.7709H110.467L109.488 50.9063L112.203 50.9271ZM131.524 44.0938L130.8 47.9584H120.932L119.761 54.2084H128.202L127.478 58.0625H118.962L117.099 67.8542H112.958L117.483 44.0938H131.524ZM144.873 55.9792C144.843 57.027 144.736 58.0714 144.553 59.1042C143.925 62.6667 143.063 64.5313 141.615 65.9896C140.961 66.6436 140.176 67.1594 139.31 67.5052C138.444 67.8509 137.515 68.0194 136.58 68C134.089 68 130.991 66.4688 130.991 62.2396C131.027 61.1912 131.141 60.1468 131.332 59.1146C131.971 55.5521 132.822 53.7188 134.281 52.25C134.939 51.6073 135.723 51.1022 136.587 50.7655C137.451 50.4289 138.376 50.2677 139.305 50.2917C141.807 50.2917 144.873 51.75 144.873 55.9792V55.9792ZM140.977 56.4167C140.977 54.75 140.125 53.948 138.922 53.948C138.538 53.9492 138.158 54.0265 137.805 54.175C137.452 54.3236 137.133 54.5405 136.867 54.8125C136.08 55.6146 135.601 56.948 135.196 59.1146C135.003 60.0134 134.886 60.9262 134.845 61.8438C134.845 63.5105 135.728 64.3021 136.974 64.3021C137.354 64.3015 137.729 64.2244 138.077 64.0757C138.425 63.9269 138.738 63.7097 138.997 63.4375C139.795 62.6355 140.263 61.2709 140.678 59.1146C140.849 58.2242 140.949 57.3222 140.977 56.4167V56.4167ZM161.064 51.8855L157.679 55.0105C157.49 54.7053 157.227 54.4505 156.913 54.2688C156.599 54.0871 156.244 53.984 155.88 53.9688C154.326 53.9688 152.931 55.2917 152.558 57.2917L150.525 67.8021H146.608L149.897 50.4584H153.697L153.346 52.1563C153.852 51.5566 154.491 51.0772 155.213 50.7542C155.936 50.4312 156.725 50.2731 157.519 50.2917C158.199 50.2463 158.88 50.3684 159.499 50.6468C160.118 50.9252 160.656 51.3511 161.064 51.8855V51.8855ZM175.073 56.448C175.032 57.77 174.861 59.0851 174.562 60.375H164.694C164.622 60.7813 164.579 61.1921 164.566 61.6042C164.518 61.9842 164.556 62.3699 164.679 62.7335C164.801 63.0971 165.005 63.4295 165.275 63.7067C165.545 63.9838 165.875 64.1988 166.24 64.336C166.605 64.4732 166.997 64.5292 167.387 64.5C168.121 64.4975 168.846 64.3442 169.515 64.0499C170.185 63.7556 170.783 63.3269 171.273 62.7917L173.327 65.5209C172.492 66.3429 171.496 66.9909 170.398 67.426C169.301 67.861 168.124 68.074 166.94 68.0521C164.066 68.0521 160.84 66.5209 160.84 61.9584C160.84 56.1355 163.555 50.3125 169.218 50.3125C172.699 50.2917 175.041 52.6875 175.041 56.448H175.073ZM171.337 56.448C171.337 54.6563 170.421 53.6563 168.995 53.6563C167.323 53.6563 165.929 54.8125 165.205 57.6146H171.241C171.294 57.228 171.315 56.8379 171.305 56.448H171.337ZM192.999 50.4584L186.357 59.0834L190.253 67.8021H185.729L183.674 62.375L179.842 67.8021H175.009L181.992 58.8438L178.267 50.5105H182.78L184.717 55.6667L188.22 50.5105L192.999 50.4584Z" fill="#121212"/>
<path fill-rule="evenodd" clip-rule="evenodd" d="M54.3249 57.7187C54.2629 59.0884 53.6633 60.3818 52.6509 61.3295C51.6386 62.2773 50.2916 62.8063 48.8905 62.8063C47.4895 62.8063 46.1425 62.2773 45.1301 61.3295C44.1177 60.3818 43.5181 59.0884 43.4562 57.7187V52.1667H54.3249V57.7187ZM59.3494 47.3021V43H54.3249V52.1667H43.4562V43H38.4316V57.7187C38.5183 60.3766 39.6582 62.8971 41.6102 64.7472C43.5621 66.5973 46.173 67.6318 48.8905 67.6318C51.608 67.6318 54.2189 66.5973 56.1709 64.7472C58.1228 62.8971 59.2627 60.3766 59.3494 57.7187V47.3021Z" fill="#121212"/>
<path fill-rule="evenodd" clip-rule="evenodd" d="M64.5978 43C64.5978 44.152 64.1301 45.2569 63.2976 46.0715C62.4651 46.8861 61.336 47.3437 60.1587 47.3437H37.4845C36.3063 47.3438 35.1761 46.8864 34.3419 46.0721C33.5077 45.2578 33.0377 44.153 33.0349 43H27.9997C27.9846 44.2256 28.2236 45.4415 28.7025 46.5741C29.1813 47.7067 29.89 48.7324 30.7856 49.5893C31.6812 50.4462 32.7451 51.1165 33.913 51.5595C35.0809 52.0025 36.3285 52.209 37.5803 52.1667H60.212C61.4568 52.2052 62.6965 51.9951 63.8556 51.5491C65.0147 51.1032 66.0687 50.4307 66.9533 49.5729C67.8379 48.7151 68.5346 47.6898 69.0008 46.5597C69.467 45.4296 69.693 44.2184 69.6649 43H64.5978Z" fill="#121212"/>
<path fill-rule="evenodd" clip-rule="evenodd" d="M54.3249 57.7187C54.2629 59.0884 53.6633 60.3818 52.6509 61.3295C51.6386 62.2773 50.2916 62.8063 48.8905 62.8063C47.4895 62.8063 46.1425 62.2773 45.1301 61.3295C44.1177 60.3818 43.5181 59.0884 43.4562 57.7187V52.1667H54.3249V57.7187ZM54.3249 52.1667H43.4562V43H38.4316V57.7187C38.5183 60.3766 39.6582 62.8971 41.6102 64.7472C43.5621 66.5973 46.173 67.6318 48.8905 67.6318C51.608 67.6318 54.2189 66.5973 56.1709 64.7472C58.1228 62.8971 59.2627 60.3766 59.3494 57.7187V52.1667H54.3249Z" fill="#121212"/>
</g>
<defs>
<clipPath id="clip0_772_1908">
<rect width="165" height="25" fill="white" transform="translate(28 43)"/>
</clipPath>
</defs>
</svg>
