<svg width="199" height="199" viewBox="0 0 199 199" fill="none" xmlns="http://www.w3.org/2000/svg">
<path d="M5 55.7556H194.089V158.208C194.089 160.859 191.731 163 188.811 163H10.2777C7.35741 163 5 160.859 5 158.208V55.7556Z" stroke="black" stroke-width="0.71" stroke-miterlimit="10"/>
<path d="M10.2777 36H188.811C191.731 36 194.089 38.3136 194.089 41.1805V55.7556H5V41.1805C5 38.3136 7.37504 36 10.2777 36Z" stroke="black" stroke-width="0.71" stroke-miterlimit="10"/>
<path d="M99.8396 76.7243H101.364C101.993 76.7243 102.596 76.9715 103.043 77.4126C103.491 77.8537 103.747 78.4531 103.756 79.0815V83.3799C106.841 84.082 109.776 85.3323 112.419 87.0715L115.486 83.9691C115.937 83.5256 116.544 83.277 117.176 83.277C117.808 83.277 118.415 83.5256 118.865 83.9691L123.544 88.6314C123.979 89.0862 124.222 89.6916 124.222 90.3212C124.222 90.9509 123.979 91.5563 123.544 92.0111L120.425 95.1482C122.031 97.7768 123.158 100.67 123.752 103.693H128.534C129.17 103.693 129.78 103.944 130.231 104.392C130.682 104.84 130.938 105.449 130.943 106.085V112.653C130.943 113.292 130.689 113.905 130.237 114.357C129.785 114.809 129.173 115.063 128.534 115.063H123.474C122.772 117.917 121.601 120.634 120.009 123.105L123.752 126.831C124.186 127.283 124.428 127.885 124.428 128.512C124.428 129.139 124.186 129.741 123.752 130.193L119.073 134.873C118.623 135.317 118.016 135.565 117.384 135.565C116.752 135.565 116.145 135.317 115.694 134.873L111.761 130.991C109.326 132.48 106.662 133.557 103.877 134.18V139.743C103.868 140.373 103.612 140.975 103.165 141.418C102.719 141.862 102.116 142.113 101.486 142.118H94.8839C94.2557 142.113 93.6546 141.862 93.2103 141.417C92.7661 140.973 92.5146 140.372 92.5101 139.743V134.18C89.7188 133.559 87.0491 132.481 84.6087 130.991L80.7273 134.873C80.2797 135.315 79.6758 135.564 79.0465 135.564C78.4173 135.564 77.8134 135.315 77.3658 134.873L72.7047 130.193C72.2623 129.746 72.0143 129.142 72.0143 128.512C72.0143 127.883 72.2623 127.279 72.7047 126.831L76.4301 123.105C74.8244 120.642 73.6523 117.922 72.9646 115.063H67.8876C67.5736 115.06 67.2631 114.996 66.9738 114.874C66.6846 114.752 66.4223 114.574 66.2019 114.35C65.9814 114.126 65.8072 113.861 65.6891 113.57C65.5711 113.279 65.5115 112.968 65.5137 112.653V106.085C65.5137 105.453 65.7633 104.848 66.208 104.4C66.6527 103.951 67.2564 103.697 67.8876 103.693H72.6874C73.2874 100.672 74.4134 97.7795 76.0142 95.1482L72.774 91.9245C72.3306 91.4739 72.0821 90.8669 72.0821 90.2346C72.0821 89.6023 72.3306 88.9954 72.774 88.5447L77.4351 83.8824C77.8827 83.44 78.4866 83.1919 79.1159 83.1919C79.7451 83.1919 80.349 83.44 80.7966 83.8824L83.8983 86.9848C86.5357 85.2337 89.4724 83.9824 92.562 83.2931V78.9948C92.5666 78.3681 92.8187 77.7686 93.2634 77.327C93.7081 76.8854 94.3093 76.6377 94.9359 76.6377L99.8396 76.7243Z" fill="#3C39C6"/>
<path d="M99.8384 122.481C99.2649 122.566 98.6855 122.607 98.1057 122.602C94.5993 122.602 91.2365 121.209 88.7571 118.729C86.2777 116.249 84.8848 112.885 84.8848 109.378C84.8848 105.87 86.2777 102.507 88.7571 100.027C91.2365 97.5467 94.5993 96.1535 98.1057 96.1535C98.6855 96.1486 99.2649 96.1892 99.8384 96.2748C103.006 96.707 105.91 98.2725 108.012 100.682C110.114 103.091 111.273 106.18 111.273 109.378C111.273 112.575 110.114 115.665 108.012 118.074C105.91 120.483 103.006 122.049 99.8384 122.481Z" fill="white"/>
<path d="M142.18 81.1558L144.229 86.4446L149.501 88.4484L144.229 90.4917L142.18 95.7777L140.128 90.4917L134.822 88.4484L140.128 86.4446L142.18 81.1558Z" fill="black"/>
<path d="M54.6915 129.134L56.7404 134.422L62.0123 136.426L56.7404 138.469L54.6915 143.755L52.6397 138.469L47.334 136.426L52.6397 134.422L54.6915 129.134Z" fill="black"/>
<circle cx="13.4668" cy="47.289" r="2.82222" fill="black"/>
<circle cx="24.7539" cy="47.289" r="2.82222" fill="black"/>
<circle cx="36.0449" cy="47.289" r="2.82222" fill="black"/>
</svg>
