<svg width="199" height="199" viewBox="0 0 199 199" fill="none" xmlns="http://www.w3.org/2000/svg">
<rect x="26.4663" y="77.6883" width="168.179" height="30.9567" rx="3.645" stroke="black" stroke-width="0.71"/>
<path d="M175.646 106.889C175.646 119.503 164.95 129.756 151.723 129.756C138.496 129.756 127.8 119.503 127.8 106.889C127.8 94.2745 138.496 84.0217 151.723 84.0217C164.95 84.0217 175.646 94.2745 175.646 106.889Z" fill="white" stroke="black" stroke-width="0.71"/>
<path d="M182.052 147.215C182.171 147.371 182.393 147.401 182.549 147.282C182.705 147.163 182.735 146.941 182.617 146.785L182.052 147.215ZM165.163 125.048L182.052 147.215L182.617 146.785L165.728 124.618L165.163 125.048Z" fill="black"/>
<path d="M27.1126 52L33.4116 65.5129L41.5506 53.0179L40.2624 67.8539L53.5369 61.1028L44.9999 73.3297L59.8889 74.1087L46.3796 80.4312L58.8687 88.5479L44.0327 87.2619L50.7854 100.557L38.5603 92.021L37.7763 106.889L31.4601 93.4012L23.3423 105.892L24.6265 91.0336L11.3308 97.79L19.8718 85.5831L5 84.7802L18.492 78.483L5.99897 70.345L20.8561 71.627L14.1061 58.353L26.3113 66.8931L27.1126 52Z" fill="#4CBE9E"/>
</svg>
