<svg width="220" height="110" viewBox="0 0 220 110" fill="none" xmlns="http://www.w3.org/2000/svg">
<path fill-rule="evenodd" clip-rule="evenodd" d="M76.2008 62.1621H78.2903C79.2189 62.1621 80.083 62.0672 80.8826 61.8767C81.6823 61.6864 82.3745 61.3706 82.9593 60.9294C83.5437 60.4884 84.0041 59.9089 84.3393 59.1909C84.6746 58.4731 84.8422 57.5948 84.8422 56.557C84.8422 55.6575 84.6746 54.8745 84.3393 54.2084C84.0041 53.5427 83.5524 52.9932 82.9849 52.5605C82.4174 52.1283 81.7509 51.804 80.9857 51.5874C80.2203 51.3714 79.4164 51.2631 78.5741 51.2631H76.2008V62.1621ZM72.1768 49.1607C72.1768 48.2581 72.9041 47.5264 73.8014 47.5264H78.213C79.6745 47.5264 81.0631 47.6908 82.3788 48.0193C83.6944 48.3481 84.8422 48.8802 85.8224 49.6151C86.8027 50.3507 87.5807 51.3064 88.1568 52.4827C88.733 53.6596 89.0211 55.0867 89.0211 56.7646C89.0211 58.2526 88.7413 59.5629 88.1827 60.696C87.6237 61.8293 86.8712 62.7809 85.9256 63.5504C84.9797 64.3203 83.8876 64.9043 82.6497 65.3019C81.4115 65.7002 80.1128 65.8989 78.7547 65.8989H73.8014C72.9041 65.8989 72.1768 65.1672 72.1768 64.2645V49.1607Z" fill="#121212"/>
<path fill-rule="evenodd" clip-rule="evenodd" d="M94.7296 47.5264H106.014C106.324 47.5264 106.576 47.7793 106.576 48.0914V50.698C106.576 51.0102 106.324 51.2632 106.014 51.2632H98.1921V54.6886H105.549C105.86 54.6886 106.111 54.9415 106.111 55.2537V57.8603C106.111 58.1724 105.86 58.4254 105.549 58.4254H98.1921V62.1621H106.478C106.789 62.1621 107.04 62.4151 107.04 62.7272V65.3338C107.04 65.646 106.789 65.8989 106.478 65.8989H94.7296C94.4194 65.8989 94.168 65.646 94.168 65.3338V48.0914C94.168 47.7793 94.4194 47.5264 94.7296 47.5264" fill="#121212"/>
<path fill-rule="evenodd" clip-rule="evenodd" d="M124.99 51.9479C124.76 52.137 124.426 52.127 124.209 51.9222C123.888 51.6179 123.519 51.3721 123.104 51.1847C122.527 50.9253 121.861 50.7956 121.105 50.7956C120.348 50.7956 119.647 50.9425 119.002 51.2366C118.357 51.531 117.798 51.9418 117.326 52.4693C116.853 52.9971 116.483 53.624 116.216 54.3507C115.949 55.0772 115.817 55.8647 115.817 56.712C115.817 57.5772 115.949 58.3689 116.216 59.0865C116.483 59.8046 116.848 60.4273 117.313 60.9549C117.777 61.4829 118.323 61.8935 118.951 62.1875C119.578 62.4818 120.253 62.6287 120.976 62.6287C121.801 62.6287 122.532 62.4561 123.168 62.1098C123.643 61.8516 124.056 61.5161 124.406 61.1037C124.61 60.8638 124.963 60.8227 125.215 61.0116L127.609 62.8086C127.885 63.0161 127.927 63.4145 127.704 63.6792C127 64.5158 126.15 65.1518 125.155 65.587C123.968 66.1059 122.747 66.3656 121.491 66.3656C120.064 66.3656 118.748 66.1405 117.545 65.6908C116.341 65.2412 115.301 64.5968 114.424 63.7575C113.547 62.9186 112.863 61.9021 112.373 60.7084C111.883 59.5148 111.638 58.1827 111.638 56.712C111.638 55.2419 111.883 53.9094 112.373 52.7159C112.863 51.522 113.547 50.506 114.424 49.6667C115.301 48.8277 116.341 48.1836 117.545 47.7334C118.748 47.2838 120.064 47.0586 121.491 47.0586C122.008 47.0586 122.545 47.1066 123.104 47.2015C123.662 47.2966 124.213 47.448 124.755 47.6555C125.297 47.8631 125.816 48.1401 126.315 48.4861C126.642 48.7133 126.948 48.9738 127.23 49.268C127.473 49.5202 127.45 49.9274 127.18 50.1494L124.99 51.9479Z" fill="#121212"/>
<path fill-rule="evenodd" clip-rule="evenodd" d="M132.672 47.5264H143.981C144.285 47.5264 144.531 47.7738 144.531 48.0791V50.7105C144.531 51.0156 144.285 51.2632 143.981 51.2632H136.147V54.6886H143.517C143.82 54.6886 144.066 54.9361 144.066 55.2413V57.8727C144.066 58.1779 143.82 58.4254 143.517 58.4254H136.147V62.1621H144.445C144.749 62.1621 144.995 62.4097 144.995 62.7148V65.3462C144.995 65.6515 144.749 65.8989 144.445 65.8989H132.672C132.369 65.8989 132.123 65.6515 132.123 65.3462V48.0791C132.123 47.7738 132.369 47.5264 132.672 47.5264" fill="#121212"/>
<path fill-rule="evenodd" clip-rule="evenodd" d="M151.019 47.5264H155.641C155.83 47.5264 156.005 47.6252 156.104 47.7875L163.709 60.2938H163.761V48.0725C163.761 47.7708 164.004 47.5264 164.304 47.5264H167.242C167.542 47.5264 167.785 47.7708 167.785 48.0725V65.3528C167.785 65.6544 167.542 65.8989 167.242 65.8989H162.827C162.638 65.8989 162.463 65.8002 162.364 65.6382L154.552 52.82H154.501V65.3528C154.501 65.6544 154.258 65.8989 153.958 65.8989H151.019C150.72 65.8989 150.477 65.6544 150.477 65.3528V48.0725C150.477 47.7708 150.72 47.5264 151.019 47.5264" fill="#121212"/>
<path fill-rule="evenodd" clip-rule="evenodd" d="M177.877 51.1074H173.22C172.914 51.1074 172.666 50.8579 172.666 50.5502V48.0834C172.666 47.7758 172.914 47.5264 173.22 47.5264H186.558C186.864 47.5264 187.112 47.7758 187.112 48.0834V50.5502C187.112 50.8579 186.864 51.1074 186.558 51.1074H181.901V65.3417C181.901 65.6495 181.653 65.8989 181.347 65.8989H178.431C178.125 65.8989 177.877 65.6495 177.877 65.3417V51.1074Z" fill="#121212"/>
<path fill-rule="evenodd" clip-rule="evenodd" d="M48.0129 62.6785L57.3181 57.274C59.7572 55.8574 62.806 57.6281 62.806 60.4614V71.2705C62.806 74.1038 59.7572 75.8746 57.3181 74.458L48.0129 69.0534C45.5738 67.6368 45.5738 64.0951 48.0129 62.6785Z" fill="#121212"/>
<path fill-rule="evenodd" clip-rule="evenodd" d="M46.7024 47.8504L33.1618 39.9858C30.0782 38.1948 26.2236 40.4336 26.2236 44.0156V59.7447C26.2236 63.3268 30.0782 65.5656 33.1618 63.7745L46.7024 55.9099C49.786 54.1189 49.786 49.6414 46.7024 47.8504" fill="#121212"/>
</svg>
