<svg width="122" height="37" viewBox="0 0 122 37" fill="none" xmlns="http://www.w3.org/2000/svg">
<path d="M11.4098 2.30804C12.1777 1.89732 13.3461 1.89732 14.114 2.30804L21.9496 6.49907C22.412 6.74643 22.666 7.11504 22.7115 7.49555H22.719V28.5619C22.7088 28.9769 22.4524 29.3892 21.9496 29.6582L14.114 33.8492C13.3461 34.26 12.1777 34.26 11.4098 33.8492L3.57424 29.6582C3.07347 29.3904 2.83316 28.9751 2.82126 28.5619C2.82008 28.5212 2.81993 28.4873 2.82106 28.4591L2.82101 7.63086C2.82022 7.60805 2.82015 7.58526 2.82079 7.56257L2.82126 7.49555L2.82477 7.49552C2.85957 7.11084 3.10203 6.75166 3.57424 6.49907L11.4098 2.30804ZM21.4855 19.2483L14.114 23.1912C13.3461 23.6019 12.1777 23.6019 11.4098 23.1912L4.05442 19.2571V28.5202L11.4098 32.4336C11.8251 32.6584 12.2562 32.8775 12.6777 32.9054L12.7619 32.9081C13.2011 32.9096 13.6276 32.6838 14.06 32.47L21.4855 28.4865V19.2483ZM1.54681 28.1039C1.54681 28.9108 1.63944 29.4414 1.82336 29.8153C1.9758 30.125 2.20453 30.3617 2.62217 30.6498L2.64601 30.6662C2.73767 30.7287 2.83864 30.7943 2.96153 30.8712L3.10647 30.9611L3.55153 31.2332L2.9132 32.3019L2.41506 31.9972L2.33133 31.9452C2.1873 31.855 2.06793 31.7778 1.95658 31.7017C0.766285 30.889 0.322368 30.0032 0.313609 28.1599L0.313477 28.1039H1.54681ZM12.1451 13.6019C12.088 13.6218 12.0346 13.6447 11.9858 13.6708L4.15024 17.8618C4.14202 17.8662 4.13417 17.8706 4.12672 17.8749L4.12008 17.8788L4.13237 17.8859L4.15024 17.8957L11.9858 22.0868C12.0346 22.1128 12.088 22.1358 12.1451 22.1556V13.6019ZM13.3788 13.6019V22.1556C13.4358 22.1358 13.4893 22.1128 13.538 22.0868L21.3736 17.8957C21.3818 17.8913 21.3896 17.887 21.3971 17.8827L21.4037 17.8788L21.3914 17.8717L21.3736 17.8618L13.538 13.6708C13.4893 13.6447 13.4358 13.6218 13.3788 13.6019ZM21.4855 8.98993L14.4565 12.7496L21.4855 16.5092V8.98993ZM4.05442 8.99872V16.5004L11.0671 12.7496L4.05442 8.99872ZM13.538 3.41245C13.1305 3.1945 12.3933 3.1945 11.9858 3.41245L4.15024 7.6035C4.14202 7.60789 4.13417 7.61224 4.12672 7.61654L4.12008 7.62043L4.13237 7.62757L4.15024 7.63739L11.9858 11.8284C12.3933 12.0464 13.1305 12.0464 13.538 11.8284L21.3736 7.63739C21.3818 7.63299 21.3896 7.62865 21.3971 7.62433L21.4037 7.62043L21.3914 7.6133L21.3736 7.6035L13.538 3.41245ZM22.6435 3.87204L23.1416 4.1767L23.2254 4.22876C23.3694 4.31879 23.4888 4.39614 23.6001 4.47217C24.7904 5.28481 25.2343 6.17082 25.243 8.01393L25.2432 8.07008H24.0099C24.0099 7.26293 23.9173 6.73244 23.7333 6.35869C23.5809 6.04892 23.3522 5.81219 22.9345 5.52413L22.9107 5.50778C22.819 5.4452 22.7181 5.37965 22.5952 5.3026L22.4502 5.21271L22.0052 4.94073L22.6435 3.87204Z" fill="white"/>
<path d="M37.7724 27.6837V15.9353H40.9733V13.7843H37.7724V12.2399C37.7724 10.4933 38.523 9.62001 40.0239 9.62001C40.4579 9.62001 40.9192 9.69355 41.4074 9.84062V7.55165C40.8106 7.3678 40.1506 7.27588 39.4271 7.27588C38.0348 7.27588 36.9541 7.68036 36.1855 8.48931C35.4169 9.29827 35.0326 10.4749 35.0326 12.0193V13.7843H32.4014V15.9353H35.0326V27.6837H37.7724ZM48.8943 27.8766C49.9433 27.8766 50.861 27.656 51.6476 27.2146C52.4343 26.7735 53.0267 26.1392 53.4246 25.3119V27.6837H56.1372V13.7843H53.4246V16.0457C53.0084 15.2183 52.4118 14.5794 51.6341 14.129C50.8565 13.6786 49.9433 13.4533 48.8943 13.4533C47.7188 13.4533 46.6698 13.7567 45.7477 14.3634C44.8253 14.9701 44.1065 15.8251 43.5911 16.9281C43.0757 18.0313 42.8181 19.2999 42.8181 20.7339C42.8181 22.168 43.0711 23.4228 43.5775 24.4983C44.0838 25.5738 44.7937 26.4058 45.7069 26.9941C46.6202 27.5824 47.6826 27.8766 48.8943 27.8766ZM49.5454 25.6704C48.2974 25.6704 47.3254 25.2383 46.6293 24.3742C45.933 23.5101 45.5848 22.2967 45.5848 20.7339C45.5848 19.1528 45.933 17.9164 46.6293 17.0247C47.3254 16.133 48.2885 15.6872 49.5182 15.6872C50.766 15.6872 51.7291 16.1192 52.4071 16.9833C53.0854 17.8474 53.4246 19.0792 53.4246 20.6788C53.4246 22.2599 53.0854 23.4871 52.4071 24.3604C51.7291 25.2337 50.7751 25.6704 49.5454 25.6704ZM62.8645 27.6837V19.7687C62.8645 18.5369 63.2126 17.5533 63.9089 16.8179C64.6052 16.0824 65.532 15.7147 66.6894 15.7147C67.7021 15.7147 68.4389 15.9905 68.9003 16.5421C69.3613 17.0936 69.5919 17.9761 69.5919 19.1896V27.6837H72.3317V19.0241C72.3317 15.3103 70.695 13.4533 67.4217 13.4533C66.373 13.4533 65.437 13.6878 64.6141 14.1566C63.7914 14.6254 63.163 15.3011 62.7288 16.1836L62.4847 13.7843H59.9349C60.0796 14.9425 60.1519 16.2479 60.1519 17.7003V27.6837H62.8645ZM81.5004 27.8766C82.2599 27.8766 82.9382 27.7756 83.535 27.5734V25.3119C83.0465 25.4589 82.5674 25.5325 82.0972 25.5325C81.3738 25.5325 80.8088 25.3348 80.4018 24.9395C79.995 24.5443 79.7913 23.8686 79.7913 22.9126V15.9353H83.5622V13.7843H79.7913V9.34422L77.0518 10.3095V13.7843H74.3932V15.9353H77.0518V23.1332C77.0518 24.6776 77.4405 25.8542 78.2181 26.6632C78.9958 27.4721 80.0898 27.8766 81.5004 27.8766ZM91.9714 27.8766C93.2914 27.8766 94.4579 27.5824 95.4707 26.9941C96.4834 26.4058 97.2654 25.5692 97.817 24.4845C98.3687 23.3998 98.6444 22.1312 98.6444 20.6788C98.6444 19.2263 98.3687 17.9531 97.817 16.8592C97.2654 15.7653 96.4834 14.9242 95.4707 14.3358C94.4579 13.7475 93.2914 13.4533 91.9714 13.4533C90.6331 13.4533 89.4577 13.7475 88.4449 14.3358C87.4322 14.9242 86.65 15.7653 86.0983 16.8592C85.5469 17.9531 85.271 19.2263 85.271 20.6788C85.271 22.1312 85.5469 23.3998 86.0983 24.4845C86.65 25.5692 87.4322 26.4058 88.4449 26.9941C89.4577 27.5824 90.6331 27.8766 91.9714 27.8766ZM91.9442 25.6704C90.6963 25.6704 89.7334 25.2475 89.0551 24.4018C88.3771 23.5561 88.0379 22.3151 88.0379 20.6788C88.0379 19.0792 88.3815 17.8474 89.0687 16.9833C89.7558 16.1192 90.7234 15.6872 91.9714 15.6872C93.2011 15.6872 94.1551 16.1192 94.8331 16.9833C95.5114 17.8474 95.8503 19.0792 95.8503 20.6788C95.8503 22.3151 95.5159 23.5561 94.8467 24.4018C94.1775 25.2475 93.21 25.6704 91.9442 25.6704ZM104.558 27.6837V19.8238C104.558 18.5553 104.866 17.5533 105.48 16.8179C106.095 16.0824 106.927 15.7147 107.976 15.7147C108.88 15.7147 109.536 15.9905 109.943 16.5421C110.35 17.0936 110.553 17.9669 110.553 19.162V27.6837H113.293V19.8238C113.293 18.5553 113.596 17.5533 114.202 16.8179C114.807 16.0824 115.635 15.7147 116.684 15.7147C117.588 15.7147 118.243 15.9905 118.65 16.5421C119.057 17.0936 119.261 17.9669 119.261 19.162V27.6837H122V19.0241C122 15.3103 120.481 13.4533 117.443 13.4533C116.43 13.4533 115.522 13.6924 114.717 14.1704C113.912 14.6484 113.302 15.3011 112.886 16.1284C112.235 14.345 110.851 13.4533 108.736 13.4533C107.741 13.4533 106.873 13.6832 106.131 14.1428C105.39 14.6024 104.82 15.2551 104.422 16.1008L104.178 13.7843H101.628C101.773 14.9425 101.845 16.2479 101.845 17.7003V27.6837H104.558Z" fill="white"/>
</svg>
