<svg width="142" height="262" viewBox="0 0 142 262" fill="none" xmlns="http://www.w3.org/2000/svg"><path d="M0.00195312 131.07C35.3477 131.07 53.0202 98.6452 70.6935 66.22C88.3667 33.7948 106.041 1.36963 141.388 1.36963" stroke="white" stroke-miterlimit="10" stroke-linejoin="round"></path><path d="M141.386 66.189C106.04 66.189 88.3676 82.4094 70.6943 98.6299C53.0211 114.85 35.3471 131.071 0 131.071" stroke="white" stroke-miterlimit="10" stroke-linejoin="round"></path><path d="M141.386 131.003L0 131.066" stroke="white" stroke-miterlimit="10" stroke-linejoin="round"></path><path d="M141.386 195.816C106.04 195.816 88.3676 179.627 70.6943 163.439C53.0211 147.25 35.3471 131.061 0 131.061" stroke="white" stroke-miterlimit="10" stroke-linejoin="round"></path><path d="M141.386 260.63C106.04 260.63 88.3676 228.237 70.6943 195.843C53.0211 163.449 35.3471 131.056 0 131.056" stroke="white" stroke-miterlimit="10" stroke-linejoin="round"></path></svg>