<svg width="310" height="70" viewBox="0 0 310 70" fill="none" xmlns="http://www.w3.org/2000/svg">
<path d="M138.939 45.9503L154.044 54.6836C154.444 54.9169 154.893 55.0336 155.342 55.0336C155.791 55.0336 156.24 54.9169 156.64 54.6836L171.746 45.9503C172.161 45.7003 172.511 45.3503 172.727 44.9336H169.849L155.725 53.1002C155.492 53.2336 155.192 53.2336 154.959 53.1002L140.835 44.9336H137.957C138.173 45.3503 138.523 45.7003 138.939 45.9503Z" fill="white"/>
<path d="M153.994 21.0671L147.24 24.9837H150.9L154.909 22.6671C155.175 22.5171 155.508 22.5171 155.774 22.6671L159.784 24.9837H163.444L156.689 21.0671C155.874 20.5837 154.826 20.5837 153.994 21.0671Z" fill="white"/>
<path d="M134.43 24.9861V23.3195C134.43 23.0361 134.579 22.7695 134.829 22.6361L154.959 10.9861C155.209 10.8528 155.508 10.8528 155.758 10.9861L175.888 22.6361C176.137 22.7695 176.287 23.0361 176.287 23.3195V24.9861H178.117V23.3195C178.117 22.3861 177.618 21.5195 176.803 21.0528L156.673 9.4028C155.857 8.93613 154.859 8.93613 154.044 9.4028L133.914 21.0528C133.099 21.5195 132.6 22.3861 132.6 23.3361V25.0028H134.43V24.9861Z" fill="white"/>
<path d="M155.342 49.2003C155.807 49.2003 156.273 49.0837 156.689 48.8337L163.443 44.917H159.783L155.791 47.2503C155.525 47.4003 155.192 47.4003 154.926 47.2503L150.916 44.9337H147.256L154.011 48.8503C154.41 49.0837 154.876 49.2003 155.342 49.2003Z" fill="white"/>
<path d="M176.27 44.9337V46.6003C176.27 46.8837 176.121 47.1503 175.871 47.2837L155.741 58.9336C155.492 59.067 155.192 59.067 154.943 58.9336L134.813 47.2837C134.563 47.1503 134.413 46.8837 134.413 46.6003V44.9337H132.583V46.6003C132.583 47.5337 133.082 48.4003 133.898 48.867L154.028 60.517C154.427 60.7503 154.893 60.867 155.342 60.867C155.791 60.867 156.257 60.7503 156.656 60.517L176.786 48.867C177.601 48.4003 178.1 47.5337 178.1 46.5837V44.917H176.27V44.9337Z" fill="white"/>
<path d="M171.762 23.9691L156.656 15.2358C155.858 14.7691 154.859 14.7691 154.061 15.2358L138.955 23.9691C138.539 24.2191 138.19 24.5691 137.974 24.9858H140.852L154.976 16.8191C155.209 16.6858 155.508 16.6858 155.741 16.8191L169.865 24.9858H172.744C172.511 24.5691 172.178 24.2025 171.762 23.9691Z" fill="white"/>
<path d="M97.1622 42.61H95.132V27.289H97.1622V42.61Z" fill="white"/>
<path d="M111.77 39.4445C111.886 39.4445 111.985 39.4951 112.068 39.5793L112.86 40.4715C112.249 41.1955 111.506 41.7679 110.615 42.172C109.724 42.5761 108.684 42.7781 107.446 42.7781C106.356 42.7781 105.383 42.5929 104.508 42.2057C103.633 41.8184 102.874 41.2965 102.263 40.6062C101.652 39.916 101.157 39.091 100.81 38.1313C100.464 37.1717 100.299 36.1109 100.299 34.9492C100.299 33.7875 100.48 32.7437 100.843 31.7672C101.207 30.8075 101.718 29.9825 102.395 29.2923C103.055 28.602 103.848 28.0632 104.772 27.676C105.696 27.2887 106.72 27.1035 107.842 27.1035C108.948 27.1035 109.905 27.2719 110.698 27.6255C111.49 27.979 112.216 28.4504 112.827 29.0397L112.167 29.9994C112.117 30.0667 112.068 30.1341 112.002 30.1677C111.936 30.2183 111.853 30.2351 111.721 30.2351C111.622 30.2351 111.539 30.2014 111.44 30.1341C111.341 30.0667 111.226 29.9825 111.077 29.8815C110.945 29.7805 110.78 29.6795 110.582 29.5616C110.384 29.4438 110.169 29.3428 109.905 29.2417C109.641 29.1407 109.344 29.0566 108.997 28.9892C108.651 28.9219 108.255 28.8882 107.809 28.8882C107 28.8882 106.274 29.0229 105.597 29.3091C104.937 29.5953 104.359 29.9994 103.881 30.5045C103.402 31.0264 103.022 31.6662 102.758 32.407C102.494 33.1478 102.362 33.9896 102.362 34.9156C102.362 35.8753 102.494 36.7171 102.758 37.4747C103.022 38.2323 103.402 38.8552 103.864 39.3772C104.326 39.8991 104.871 40.2864 105.515 40.5557C106.158 40.8251 106.835 40.9598 107.561 40.9598C108.007 40.9598 108.403 40.9261 108.766 40.8756C109.13 40.8251 109.46 40.7409 109.757 40.6231C110.054 40.5052 110.351 40.3706 110.599 40.1853C110.863 40.017 111.127 39.7981 111.391 39.5624C111.556 39.4951 111.671 39.4445 111.77 39.4445Z" fill="white"/>
<path fill-rule="evenodd" clip-rule="evenodd" d="M128.97 38.1316C129.316 37.1719 129.498 36.1113 129.498 34.9663C129.498 33.8215 129.316 32.7608 128.97 31.8011C128.623 30.8415 128.112 30.0165 127.468 29.3262C126.824 28.6359 126.032 28.0971 125.124 27.7099C124.216 27.3227 123.209 27.1375 122.103 27.1375C120.997 27.1375 119.99 27.3227 119.083 27.7099C118.175 28.0971 117.383 28.6359 116.739 29.3262C116.095 30.0165 115.6 30.8415 115.237 31.8011C114.89 32.7608 114.708 33.8215 114.708 34.9663C114.708 36.1281 114.874 37.1719 115.237 38.1316C115.583 39.0912 116.095 39.9162 116.739 40.6065C117.399 41.3137 118.175 41.8355 119.083 42.2228C119.99 42.61 120.997 42.7952 122.103 42.7952C123.209 42.7952 124.216 42.61 125.124 42.2228C126.032 41.8355 126.824 41.2968 127.468 40.6065C128.112 39.9162 128.607 39.0912 128.97 38.1316ZM127.039 32.4409C127.286 33.1817 127.418 34.0235 127.418 34.9663C127.418 35.9092 127.286 36.751 127.039 37.4918C126.791 38.2326 126.428 38.8556 125.966 39.3775C125.504 39.8825 124.942 40.2866 124.282 40.556C123.638 40.8254 122.896 40.9601 122.087 40.9601C121.278 40.9601 120.552 40.8254 119.891 40.556C119.231 40.2866 118.67 39.8994 118.208 39.3775C117.746 38.8724 117.383 38.2326 117.135 37.4918C116.887 36.751 116.755 35.9092 116.755 34.9663C116.755 34.0404 116.887 33.1817 117.135 32.4409C117.383 31.6833 117.746 31.0603 118.208 30.5384C118.67 30.0165 119.231 29.6293 119.891 29.3431C120.552 29.0568 121.278 28.9221 122.087 28.9221C122.896 28.9221 123.622 29.0568 124.282 29.3431C124.942 29.6293 125.504 30.0165 125.966 30.5384C126.428 31.0603 126.791 31.7001 127.039 32.4409Z" fill="white"/>
<path d="M144.453 42.61H142.406V35.6398H134.318V42.61H132.271V27.289H134.318V34.1245H142.406V27.289H144.453V42.61Z" fill="white"/>
<path fill-rule="evenodd" clip-rule="evenodd" d="M161.536 38.1316C161.883 37.1719 162.064 36.1113 162.064 34.9663C162.064 33.8215 161.883 32.7608 161.536 31.8011C161.19 30.8415 160.678 30.0165 160.034 29.3262C159.39 28.6359 158.598 28.0971 157.69 27.7099C156.783 27.3227 155.776 27.1375 154.67 27.1375C153.564 27.1375 152.557 27.3227 151.649 27.7099C150.741 28.0971 149.949 28.6359 149.305 29.3262C148.661 30.0165 148.166 30.8415 147.803 31.8011C147.456 32.7608 147.275 33.8215 147.275 34.9663C147.275 36.1281 147.44 37.1719 147.803 38.1316C148.15 39.0912 148.661 39.9162 149.305 40.6065C149.965 41.3137 150.741 41.8355 151.649 42.2228C152.557 42.61 153.564 42.7952 154.67 42.7952C155.776 42.7952 156.783 42.61 157.69 42.2228C158.598 41.8355 159.39 41.2968 160.034 40.6065C160.678 39.9162 161.173 39.0912 161.536 38.1316ZM159.589 32.4409C159.836 33.1817 159.968 34.0235 159.968 34.9663C159.968 35.9092 159.853 36.751 159.589 37.4918C159.341 38.2326 158.978 38.8556 158.516 39.3775C158.053 39.8825 157.476 40.2866 156.832 40.556C156.188 40.8254 155.445 40.9601 154.637 40.9601C153.828 40.9601 153.102 40.8254 152.441 40.556C151.781 40.2866 151.22 39.8994 150.758 39.3775C150.296 38.8724 149.932 38.2326 149.685 37.4918C149.437 36.751 149.305 35.9092 149.305 34.9663C149.305 34.0404 149.437 33.1817 149.685 32.4409C149.932 31.6833 150.296 31.0603 150.758 30.5384C151.22 30.0165 151.781 29.6293 152.441 29.3431C153.102 29.0568 153.828 28.9221 154.637 28.9221C155.445 28.9221 156.172 29.0568 156.832 29.3431C157.492 29.6293 158.053 30.0165 158.516 30.5384C158.978 31.0603 159.341 31.7001 159.589 32.4409Z" fill="white"/>
<path d="M166.868 40.8758H173.371V42.61H164.838V27.289H166.868V40.8758Z" fill="white"/>
<path fill-rule="evenodd" clip-rule="evenodd" d="M188.095 38.0978C188.441 37.155 188.623 36.1112 188.623 34.9664C188.623 33.8214 188.441 32.7776 188.095 31.8348C187.748 30.8919 187.253 30.0838 186.593 29.4103C185.932 28.7369 185.157 28.2149 184.249 27.8446C183.341 27.4742 182.334 27.289 181.228 27.289H175.616V42.61H181.228C182.334 42.61 183.341 42.4247 184.249 42.0543C185.157 41.7008 185.949 41.1789 186.593 40.5054C187.236 39.8489 187.732 39.0407 188.095 38.0978ZM186.163 32.4409C186.411 33.1817 186.543 34.0235 186.543 34.9664C186.543 35.9092 186.411 36.7341 186.163 37.4749C185.916 38.2158 185.553 38.8387 185.09 39.3438C184.628 39.8657 184.067 40.2529 183.407 40.5223C182.747 40.7917 182.02 40.9264 181.212 40.9264H177.646V28.9726H181.212C182.02 28.9726 182.747 29.1073 183.407 29.3767C184.067 29.6461 184.628 30.0502 185.09 30.5552C185.553 31.0771 185.916 31.7001 186.163 32.4409Z" fill="white"/>
<path d="M200.639 27.306V28.9897H193.426V34.0742H199.269V35.6905H193.426V40.9097H200.639V42.5934H191.396V27.2724H200.639V27.306Z" fill="white"/>
<path fill-rule="evenodd" clip-rule="evenodd" d="M205.789 42.6265V36.2288V36.2119H207.374C207.654 36.2119 207.869 36.2624 208.001 36.3298C208.133 36.414 208.265 36.5318 208.381 36.7001L212.276 42.1719C212.458 42.4582 212.738 42.6096 213.102 42.6096H214.901L210.527 36.5318C210.328 36.2456 210.097 36.0267 209.85 35.8752C210.427 35.7405 210.939 35.5384 211.401 35.269C211.847 34.9997 212.243 34.6798 212.557 34.3094C212.87 33.939 213.118 33.5181 213.283 33.0467C213.448 32.5753 213.531 32.0702 213.531 31.5314C213.531 30.8916 213.415 30.3024 213.201 29.7805C212.986 29.2585 212.639 28.8039 212.194 28.4336C211.748 28.0631 211.17 27.7938 210.477 27.5917C209.784 27.4065 208.975 27.3055 208.018 27.3055H203.776V42.6265H205.789ZM207.919 34.7135H205.789V28.9218H208.018C209.19 28.9218 210.064 29.1406 210.659 29.6121C211.253 30.0835 211.55 30.7738 211.55 31.6829C211.55 32.1375 211.467 32.5415 211.319 32.912C211.154 33.2824 210.923 33.6023 210.626 33.8717C210.312 34.141 209.932 34.343 209.487 34.4946C209.041 34.6461 208.513 34.7135 207.919 34.7135Z" fill="white"/>
</svg>
