<svg width="199" height="199" viewBox="0 0 199 199" fill="none" xmlns="http://www.w3.org/2000/svg">
<g clip-path="url(#clip0_386_239)">
<mask id="path-1-inside-1_386_239" fill="white">
<path d="M11.2812 29.5559H188.49V129.677C188.49 132.439 186.252 134.677 183.49 134.677H16.2813C13.5198 134.677 11.2812 132.439 11.2812 129.677V29.5559Z"/>
</mask>
<path d="M11.2812 29.5559H188.49H11.2812ZM189.2 129.677C189.2 132.831 186.644 135.387 183.49 135.387H16.2813C13.1277 135.387 10.5713 132.831 10.5713 129.677L11.9912 129.677C11.9912 132.047 13.9119 133.967 16.2812 133.967H183.49C185.86 133.967 187.78 132.047 187.78 129.677L189.2 129.677ZM16.2813 135.387C13.1277 135.387 10.5713 132.831 10.5713 129.677V29.5559H11.9912V129.677C11.9912 132.047 13.9119 133.967 16.2812 133.967L16.2813 135.387ZM189.2 29.5559V129.677C189.2 132.831 186.644 135.387 183.49 135.387L183.49 133.967C185.86 133.967 187.78 132.047 187.78 129.677V29.5559H189.2Z" fill="black" mask="url(#path-1-inside-1_386_239)"/>
<path d="M118.708 54.8931L102.936 44.8561L105.5 41L109.5 39L112.973 40.5545L120.142 44.8561L121.576 47.7238L121 51.5L118.708 54.8931Z" fill="#3C39C6"/>
<path d="M75.5 114.5L67.5 110L67.0898 119.417L75.5 114.5Z" fill="#3C39C6"/>
<path d="M84 110L68.5 100.5L101 48.5L115.841 59.1948L84 110Z" fill="#3C39C6"/>
<path d="M68.292 100.509L67.6909 109.963M68.292 100.509L100.676 48.5097M68.292 100.509L71.8984 102.69M83.9197 109.963L75.5048 114.69M83.9197 109.963C92.6188 96.3433 108.778 71.0092 116.277 59.1459M83.9197 109.963L71.8984 102.69M75.5048 114.69L67.0898 119.417L67.6909 109.963M75.5048 114.69L67.6909 109.963M102.884 44.9644L104.356 42.6007C105.558 40.6311 108.924 37.4008 112.771 40.2371C116.618 43.0734 119.182 44.5704 119.984 44.9644C121.186 45.7522 122.869 48.5097 119.984 53.2369C119.754 53.6139 119.4 54.1838 118.938 54.9221M102.884 44.9644L118.938 54.9221M102.884 44.9644L100.676 48.5097M118.938 54.9221C118.264 55.9979 117.361 57.4312 116.277 59.1459M116.277 59.1459L104.356 51.0186M100.676 48.5097L104.356 51.0186M104.356 51.0186L71.8984 102.69" stroke="black" stroke-width="0.71" stroke-linejoin="round"/>
<path d="M65.9017 133.483L47.6953 182.46H58.6192C62.1079 173.662 64.8915 166.641 67.6187 159.763M78.0393 133.483C75.5481 139.766 73.4164 145.142 71.408 150.207M122.948 133.483C125.284 139.766 127.282 145.142 129.165 150.207M133.872 133.483L150.865 182.46H141.155C137.884 173.662 135.275 166.641 132.718 159.763M132.718 159.763H67.6187M132.718 159.763C131.542 156.601 130.378 153.468 129.165 150.207M67.6187 159.763C68.8727 156.601 70.1148 153.468 71.408 150.207M71.408 150.207H129.165" stroke="black" stroke-width="0.71" stroke-linejoin="round"/>
<path d="M67.0898 119.417H132.096" stroke="black" stroke-width="0.71"/>
<path d="M138.967 119.417H149.494" stroke="black" stroke-width="0.71"/>
<path d="M187.533 108.62C186.922 108.616 183.392 108.371 182.959 107.938C182.526 107.505 182.281 106.92 182.277 106.308V100.89C179.559 100.285 176.959 99.236 174.583 97.7845L170.803 101.565C170.367 101.996 169.779 102.238 169.166 102.238C168.554 102.238 167.966 101.996 167.53 101.565L162.991 97.0081C162.56 96.5721 162.319 95.984 162.319 95.371C162.319 94.7581 162.56 94.1698 162.991 93.7338L166.619 90.1052C165.055 87.7066 163.914 85.0579 163.244 82.2739H158.3C157.994 82.2717 157.692 82.2093 157.41 82.0902C157.129 81.9711 156.873 81.7977 156.658 81.5798C156.444 81.362 156.274 81.104 156.159 80.8205C156.044 80.5371 155.986 80.2338 155.988 79.9279V73.5313C155.988 72.9165 156.231 72.3266 156.664 71.8903C157.097 71.454 157.685 71.2067 158.3 71.2022H162.974C163.558 68.2602 164.655 65.4439 166.214 62.8815L163.058 59.7423C162.627 59.3035 162.385 58.7124 162.385 58.0967C162.385 57.481 162.627 56.89 163.058 56.4511L167.597 51.911C168.033 51.4802 168.621 51.2386 169.234 51.2386C169.847 51.2386 170.435 51.4802 170.871 51.911L173.891 54.9321C176.459 53.2269 179.319 52.0084 182.328 51.3372V47.1515C182.332 46.5412 182.578 45.9574 183.011 45.5274C183.444 45.0974 186.923 44.8562 187.533 44.8562" stroke="black" stroke-width="0.7" stroke-linecap="round" stroke-linejoin="round"/>
<mask id="path-11-inside-2_386_239" fill="white">
<path d="M188.482 93.0979C183.985 93.0556 179.684 91.2462 176.509 88.0605C173.334 84.8748 171.539 80.5683 171.512 76.0707C171.485 71.5731 173.228 67.2452 176.364 64.0213C179.5 60.7975 183.778 58.9363 188.275 58.8395L188.643 75.9671L188.482 93.0979Z"/>
</mask>
<path d="M188.482 93.0979C183.985 93.0556 179.684 91.2462 176.509 88.0605C173.334 84.8748 171.539 80.5683 171.512 76.0707C171.485 71.5731 173.228 67.2452 176.364 64.0213C179.5 60.7975 183.778 58.9363 188.275 58.8395L188.643 75.9671L188.482 93.0979Z" stroke="black" stroke-width="1.4" mask="url(#path-11-inside-2_386_239)"/>
<rect x="4.355" y="20.355" width="191.064" height="8.84651" rx="0.645" stroke="black" stroke-width="0.71"/>
</g>
<defs>
<clipPath id="clip0_386_239">
<rect width="199" height="199" fill="white"/>
</clipPath>
</defs>
</svg>
