<svg width="199" height="199" viewBox="0 0 199 199" fill="none" xmlns="http://www.w3.org/2000/svg">
<path d="M4 29H35.2143L41.7763 58.6893M62.3571 151.806L59.0761 136.961M41.7763 58.6893H73.2143M41.7763 58.6893L59.0761 136.961M135 58.6893H175L158.714 136.961H123.429M94.9286 136.961H59.0761M84.0714 168H132.929M126.143 81.6311C126.143 81.6311 138.55 93.9685 146.5 101.874" stroke="black" stroke-width="0.71" stroke-linecap="round" stroke-linejoin="round"/>
<mask id="path-2-inside-1_386_167" fill="white">
<path d="M114.594 30.8664C121.454 33.3608 127.213 38.1958 130.858 44.5198C134.503 50.8437 135.8 58.251 134.519 65.437C133.239 72.6231 129.464 79.1269 123.86 83.803C118.255 88.4792 111.18 91.0277 103.881 90.9998C96.5822 90.9718 89.527 88.3692 83.9584 83.6503C78.3898 78.9313 74.6649 72.3988 73.4398 65.2032C72.2147 58.0075 73.5679 50.6104 77.2611 44.3146C80.9544 38.0187 86.7508 33.228 93.6294 30.7861L93.8604 31.4369C87.135 33.8243 81.4677 38.5083 77.8567 44.6639C74.2458 50.8196 72.9227 58.0519 74.1205 65.0873C75.3183 72.1226 78.9603 78.5096 84.4048 83.1235C89.8494 87.7373 96.7474 90.2819 103.884 90.3093C111.02 90.3366 117.938 87.8448 123.418 83.2728C128.897 78.7008 132.588 72.3419 133.84 65.3159C135.091 58.29 133.824 51.0477 130.26 44.8646C126.696 38.6815 121.065 33.9542 114.358 31.5153L114.594 30.8664Z"/>
</mask>
<path d="M114.594 30.8664C121.454 33.3608 127.213 38.1958 130.858 44.5198C134.503 50.8437 135.8 58.251 134.519 65.437C133.239 72.6231 129.464 79.1269 123.86 83.803C118.255 88.4792 111.18 91.0277 103.881 90.9998C96.5822 90.9718 89.527 88.3692 83.9584 83.6503C78.3898 78.9313 74.6649 72.3988 73.4398 65.2032C72.2147 58.0075 73.5679 50.6104 77.2611 44.3146C80.9544 38.0187 86.7508 33.228 93.6294 30.7861L93.8604 31.4369C87.135 33.8243 81.4677 38.5083 77.8567 44.6639C74.2458 50.8196 72.9227 58.0519 74.1205 65.0873C75.3183 72.1226 78.9603 78.5096 84.4048 83.1235C89.8494 87.7373 96.7474 90.2819 103.884 90.3093C111.02 90.3366 117.938 87.8448 123.418 83.2728C128.897 78.7008 132.588 72.3419 133.84 65.3159C135.091 58.29 133.824 51.0477 130.26 44.8646C126.696 38.6815 121.065 33.9542 114.358 31.5153L114.594 30.8664Z" stroke="black" stroke-width="1.42" stroke-linejoin="bevel" mask="url(#path-2-inside-1_386_167)"/>
<circle cx="65.5" cy="168.5" r="17.145" stroke="black" stroke-width="0.71"/>
<circle cx="150.5" cy="168.5" r="17.145" stroke="black" stroke-width="0.71"/>
<path d="M166.807 91H182.196C184.12 91 185.687 88.8521 185.687 86.2109V47.8783C185.687 46.9954 186.207 46.282 186.85 46.282H192.499C193.938 46.282 195.174 45.1461 195.725 43.3245C196.276 41.4955 195.986 39.4968 194.969 38.1004L176.969 13.4012C175.608 11.5342 173.392 11.5317 172.031 13.4012L154.031 38.1004C153.014 39.4968 152.724 41.5005 153.275 43.3245C153.826 45.1461 155.062 46.282 156.501 46.282H162.152C162.796 46.282 163.318 46.9954 163.318 47.8783V86.2109C163.318 88.8521 164.883 91 166.807 91Z" fill="#4CBE9E"/>
<path d="M102.784 70.4617C100.75 70.4617 98.886 69.6988 97.4458 68.2581C96.0051 66.8174 95.2422 64.9527 95.2422 62.9186H97.9541C97.9541 64.1898 98.4624 65.461 99.3948 66.3087C100.327 67.241 101.513 67.7494 102.784 67.7494C105.496 67.7494 107.614 65.5458 107.614 62.9186C107.614 60.5455 105.665 58.5961 103.293 58.5961H102.784C98.6319 58.5961 95.2422 55.206 95.2422 51.0529C95.2422 46.8999 98.6319 43.5098 102.784 43.5098C104.818 43.5098 106.682 44.2727 108.123 45.7134C109.563 47.154 110.326 49.0188 110.326 51.0529V51.1376H107.614V51.0529C107.614 49.7817 107.106 48.5104 106.174 47.6628C105.242 46.7304 104.055 46.2221 102.784 46.2221C100.073 46.2221 97.9541 48.4257 97.9541 51.0529C97.9541 53.6801 100.073 55.8837 102.784 55.8837H103.293C107.191 55.8837 110.326 59.0197 110.326 62.9186C110.326 67.0716 106.937 70.4617 102.784 70.4617Z" fill="#4CBE9E"/>
<path d="M104.139 39.1875H101.428V44.7812H104.139V39.1875Z" fill="#4CBE9E"/>
<path d="M104.139 69.1057H101.428V74.6999H104.139V69.1057Z" fill="#4CBE9E"/>
<path d="M109.514 131L111.024 135.338L115 137.015L111.024 138.66L109.514 143L107.978 138.66L104 137.015L107.978 135.338L109.514 131Z" fill="black"/>
</svg>
