<svg width="82" height="37" viewBox="0 0 82 37" fill="none" xmlns="http://www.w3.org/2000/svg">
<path d="M5.1249 11.4331H0.995117V30.7112H5.1249V11.4331Z" fill="white"/>
<path d="M14.5587 16.2922C14.1776 16.1772 13.7554 16.125 13.3228 16.125C11.9119 16.125 10.7996 16.7833 10.0066 18.0998L9.89335 16.3967H6.12402V30.722H10.1096V21.3494C10.5731 20.3672 11.5617 19.8761 13.0757 19.8761C13.4876 19.8761 13.9613 19.9075 14.5072 19.9806L14.5587 16.2922Z" fill="white"/>
<path d="M19.5433 20.2943C20.0788 19.5629 20.8306 19.1972 21.7987 19.1972C22.777 19.1972 23.5392 19.5629 24.085 20.2943C24.6308 21.0257 24.8986 22.0601 24.8986 23.3976C24.8986 24.9649 24.6308 26.1038 24.085 26.8144C23.5392 27.5249 22.7873 27.8801 21.8296 27.8801C20.8409 27.8801 20.0788 27.5249 19.5433 26.8039C19.0077 26.0829 18.74 25.0381 18.74 23.6797C18.7503 22.1542 19.0077 21.0257 19.5433 20.2943ZM14.7646 23.5857C14.7646 25.8635 15.4032 27.6607 16.6905 28.9877C17.9675 30.3147 19.6874 30.973 21.8399 30.973C23.9923 30.973 25.7019 30.3043 26.9789 28.9773C28.256 27.6503 28.8945 25.8844 28.8945 23.6902L28.8636 22.708C28.7194 20.6809 28.0088 19.0718 26.7318 17.891C25.4547 16.7103 23.8172 16.1147 21.809 16.1147C20.398 16.1147 19.1519 16.4178 18.0808 17.0238C17.0098 17.6298 16.1962 18.4971 15.6194 19.6047C15.053 20.7122 14.7646 21.987 14.7646 23.408V23.5857Z" fill="white"/>
<path d="M29.7803 16.3864V30.7118H33.7659V20.6077C34.322 19.6883 35.1665 19.2285 36.2891 19.2285C37.1439 19.2285 37.7515 19.4166 38.1222 19.7823C38.493 20.148 38.6784 20.7331 38.6784 21.5481V30.7118H42.664V21.4541C42.6434 19.6778 42.252 18.3508 41.4796 17.4522C40.7072 16.564 39.5332 16.1147 37.9575 16.1147C36.1655 16.1147 34.734 16.7521 33.6732 18.0373L33.5496 16.3864H29.7803Z" fill="white"/>
<path d="M56.7326 15.4768V11.4331H43.6738V30.7112H47.9581V22.8328H53.2722V24.0553L56.5987 20.9938L53.2722 17.9323V19.1026H48.0302V20.1683L44.714 17.2949L48.0302 14.411V15.4768H56.7326Z" fill="white"/>
<path d="M68.6172 20.9938L74.4566 11.4331H69.7089L65.9395 18.0786L62.1805 11.4331H57.4328L63.2722 20.9938L57.2783 30.7112H62.0878L65.9395 23.9613L69.8016 30.7112H74.611L68.6172 20.9938Z" fill="white"/>
<path d="M73.8174 6H81.6135V13.9934L73.8174 6Z" fill="white"/>
</svg>
