<?xml version="1.0" encoding="UTF-8"?>
<svg xmlns="http://www.w3.org/2000/svg" width="162" height="40" viewBox="0 0 162 40" fill="none">
  <g id="logitechg 1">
    <path id="Vector" d="M32.0407 26.2387C29.5142 26.2387 27.5618 24.2995 27.5618 21.6756C27.5618 19.1658 29.5142 17.2264 32.0407 17.2264C34.5671 17.2264 36.5195 19.1658 36.5195 21.6756C36.6343 24.2995 34.5671 26.2387 32.0407 26.2387ZM40.3093 17.1123V14.0321H34.7969C33.8781 13.6899 32.9594 13.5758 32.0407 13.5758C27.3321 13.5758 23.6573 17.1123 23.6573 21.7897C23.6573 26.467 27.3321 30.0035 32.0407 30.0035C36.7492 30.0035 40.4242 26.467 40.4242 21.7897C40.4242 20.1925 39.9647 18.7094 39.1608 17.5686L40.3093 17.1123ZM13.8958 26.2387C11.3693 26.2387 9.41696 24.2995 9.41696 21.6756C9.41696 19.1658 11.3693 17.2264 13.8958 17.2264C16.4223 17.2264 18.3746 19.1658 18.3746 21.6756C18.3746 24.2995 16.4223 26.2387 13.8958 26.2387ZM13.8958 13.5758C9.18729 13.5758 5.51237 17.1123 5.51237 21.7897C5.51237 26.467 9.18729 30.0035 13.8958 30.0035C18.6043 30.0035 22.2792 26.467 22.2792 21.7897C22.2792 17.1123 18.6043 13.5758 13.8958 13.5758ZM0 29.5473H3.90459V7.52943H0V29.5473ZM42.0319 29.5473H45.9363V14.0321H42.0319V29.5473ZM32.0407 35.0233C29.5142 35.0233 27.5618 33.0838 27.5618 30.574H23.6573C23.6573 35.2513 27.3321 38.788 32.0407 38.788C36.7492 38.788 40.4242 35.2513 40.4242 30.574H36.5195C36.5195 33.1978 34.5671 35.0233 32.0407 35.0233ZM60.2915 20.1925C60.8659 18.139 62.3587 16.9982 64.4259 16.9982C66.4929 16.9982 67.986 18.139 68.4452 20.1925H60.2915ZM64.5408 13.5758C59.8322 13.5758 56.2722 17.1123 56.2722 21.9038C56.2722 26.581 59.4876 30.0035 64.5408 30.0035C67.297 30.0035 69.8235 28.9767 71.6609 27.0375L69.0196 24.4135C67.7563 25.6685 66.3783 26.467 64.6557 26.467C62.4736 26.467 60.8659 25.212 60.4064 23.2727H72.5797V22.3601C72.5797 17.1123 69.2491 13.5758 64.5408 13.5758ZM99.1079 13.5758C97.1556 13.5758 95.5478 14.2603 94.3994 15.5152V7.41533H90.4949V29.5473H94.3994V21.1052C94.3994 18.8235 95.7776 17.3405 98.1892 17.3405C100.371 17.3405 101.634 18.7094 101.634 21.1052V29.5473H105.539V20.4207C105.539 16.0856 102.783 13.5758 99.1079 13.5758ZM82.2263 17.3405C83.834 17.3405 85.212 18.139 86.2456 19.3939L89.0018 16.7701C87.509 14.8307 85.0974 13.6899 82.3412 13.6899C77.6326 13.6899 73.9577 17.2264 73.9577 21.9038C73.9577 26.581 77.6326 30.1178 82.3412 30.1178C85.0974 30.1178 87.509 28.8627 89.0018 27.0375L86.2456 24.2995C85.212 25.4403 83.834 26.353 82.2263 26.353C79.6998 26.353 77.8624 24.4136 77.8624 21.9038C77.7475 19.2799 79.6998 17.3405 82.2263 17.3405ZM53.6308 9.24065H49.7261V14.0321H47.6592V17.4545H49.7261V29.5473H53.6308V17.4545H55.8127V14.0321H53.6308V9.24065ZM43.9842 7.07308C42.606 7.07308 41.4578 8.2139 41.4578 9.69697C41.4578 11.0659 42.606 12.2068 43.9842 12.2068C45.4771 12.2068 46.6256 11.0659 46.6256 9.69697C46.6256 8.2139 45.4771 7.07308 43.9842 7.07308ZM135.168 0V7.87165C128.966 7.87165 124.028 12.7772 124.028 18.9376C124.028 24.9839 128.966 30.0035 135.168 30.0035V37.8752C124.603 37.8752 115.99 29.4332 115.99 18.9376C115.99 8.44208 124.603 0 135.168 0ZM135.398 15.5152V23.2727H144.585V32.3993H152.394V15.5152H135.398Z" fill="white"></path>
    <path id="Vector_2" d="M152.771 34.9785H155.28V35.498H154.276V38.8745H153.775V35.498H152.771V34.9785Z" fill="white"></path>
    <path id="Vector_3" d="M157.786 38.0953H157.41L156.281 36.277V38.8745H155.78V34.9785H156.156L157.661 37.316L159.04 34.9785H159.416V38.8745H158.915V36.277L157.786 38.0953Z" fill="white"></path>
  </g>
</svg>
