<svg width="199" height="199" viewBox="0 0 199 199" fill="none" xmlns="http://www.w3.org/2000/svg">
<path d="M5 79H161V164.023C161 166.223 159.055 168 156.646 168H9.35418C6.94488 168 5 166.223 5 164.023V79Z" stroke="black" stroke-width="0.71" stroke-miterlimit="10"/>
<path d="M9.35418 63H156.646C159.055 63 161 64.8738 161 67.1957V79H5V67.1957C5 64.8738 6.95943 63 9.35418 63Z" stroke="black" stroke-width="0.71" stroke-miterlimit="10"/>
<circle cx="12" cy="72" r="2" fill="black"/>
<circle cx="21" cy="72" r="2" fill="black"/>
<ellipse cx="30.5" cy="72" rx="1.5" ry="2" fill="black"/>
<path d="M120.663 95H45.3371C43.4941 95 42 96.5653 42 98.4962V127.504C42 129.435 43.4941 131 45.3371 131H120.663C122.506 131 124 129.435 124 127.504V98.4962C124 96.5653 122.506 95 120.663 95Z" stroke="black" stroke-width="0.71"/>
<path d="M54 114.493C55.9268 111.9 58.2588 108.433 66.0227 108.433C78.4428 108.433 76.9286 122 88.709 122C99.5086 122 99.3594 106.57 112 104" stroke="#232A33" stroke-width="0.71" stroke-miterlimit="10" stroke-linecap="round" stroke-linejoin="round"/>
<path d="M54 119C66.1818 119 63.6554 104 74.3791 104C84.9813 104 82.05 113.898 93.7766 113.898C100.153 113.898 107.04 110.359 112 107.135" stroke="#232A33" stroke-width="0.71" stroke-miterlimit="10" stroke-linecap="round" stroke-linejoin="round"/>
<path d="M161.001 96C179.225 96 194 81.2257 194 63C194 44.7743 179.225 30 161.001 30C142.775 30 128 44.7743 128 63C128 81.2257 142.775 96 161.001 96Z" fill="#4CBE9E"/>
<path d="M120.541 143H47.4592C45.5487 143 44 143.224 44 143.5C44 143.776 45.5487 144 47.4592 144H120.541C122.451 144 124 143.776 124 143.5C124 143.224 122.451 143 120.541 143Z" fill="black"/>
<path d="M120.541 152H47.4592C45.5487 152 44 152.224 44 152.5C44 152.776 45.5487 153 47.4592 153H120.541C122.451 153 124 152.776 124 152.5C124 152.224 122.451 152 120.541 152Z" fill="black"/>
<path fill-rule="evenodd" clip-rule="evenodd" d="M175.487 54.5014C175.816 54.8229 176 55.2587 176 55.713C176 56.1674 175.816 56.6032 175.487 56.9247L158.543 73.4987C158.215 73.8196 157.769 74 157.305 74C156.84 74 156.395 73.8196 156.066 73.4987L148.47 66.0689C148.161 65.7439 147.992 65.314 148 64.8698C148.008 64.4256 148.192 64.0019 148.513 63.6877C148.835 63.3736 149.268 63.1936 149.722 63.1858C150.176 63.178 150.616 63.3428 150.948 63.6457L157.305 69.8638L173.01 54.5014C173.339 54.1803 173.784 54 174.249 54C174.713 54 175.159 54.1803 175.487 54.5014Z" fill="white"/>
</svg>
