<svg width="97" height="37" viewBox="0 0 97 37" fill="none" xmlns="http://www.w3.org/2000/svg">
<path d="M22.9017 16.2087C22.0056 16.1975 21.1198 16.4037 20.3186 16.8099C19.5173 17.2162 18.8239 17.8107 18.2964 18.5437C17.0672 20.0773 16.4117 22.0002 16.4449 23.9744C16.3831 25.2442 16.798 26.4906 17.6066 27.4638C17.9893 27.9037 18.4648 28.2509 18.9981 28.4798C19.5313 28.7087 20.1086 28.8134 20.6872 28.786C21.542 28.7853 22.3853 28.5863 23.1522 28.2042C23.9191 27.8222 24.5893 27.2673 25.111 26.5822C26.4226 24.9902 27.1305 22.9773 27.1077 20.9049C27.1601 19.6899 26.8157 18.4913 26.1275 17.4942C25.4378 16.6494 24.3487 16.2087 22.9017 16.2087ZM22.9743 25.5276C22.6853 25.8262 22.341 26.0642 21.961 26.2281C21.581 26.3919 21.1729 26.4784 20.7598 26.4825C20.4832 26.4979 20.2069 26.4458 19.9542 26.3308C19.7015 26.2158 19.4798 26.0411 19.3077 25.8214C18.9275 25.2916 18.7439 24.6433 18.7891 23.9902C18.7382 22.5936 19.1328 21.2175 19.9145 20.0653C20.2199 19.577 20.6439 19.176 21.1459 18.9005C21.6479 18.6249 22.2113 18.484 22.7824 18.4912C24.0824 18.4912 24.7342 19.2975 24.7376 20.9101C24.7598 22.6216 24.1281 24.2757 22.9743 25.5276ZM93.1746 22.0068C92.9092 21.914 92.619 21.9269 92.3628 22.0429C92.1065 22.1589 91.9035 22.3692 91.795 22.6312C90.7837 25.2022 89.5494 26.4825 88.0247 26.4825C87.226 26.4825 86.8267 25.7847 86.8267 24.4676C86.9257 22.9732 87.1407 21.4889 87.4698 20.0286L87.7965 18.4859H90.9082C91.1673 18.4884 91.4188 18.3972 91.6174 18.2289C91.8161 18.0606 91.9489 17.8262 91.9921 17.5677C92.0249 17.4042 92.0217 17.2355 91.9827 17.0734C91.9436 16.9114 91.8696 16.76 91.7661 16.6302C91.6626 16.5004 91.532 16.3953 91.3837 16.3225C91.2354 16.2496 91.0731 16.2108 90.9082 16.2087H88.3151L88.8337 13.6428C88.8697 13.4718 88.8678 13.2948 88.8283 13.1246C88.7887 12.9543 88.7124 12.7951 88.6049 12.6582C88.4973 12.5213 88.3611 12.4101 88.2061 12.3327C88.0511 12.2553 87.8811 12.2135 87.7083 12.2104C87.4443 12.2064 87.1872 12.296 86.9816 12.4637C86.776 12.6315 86.635 12.8667 86.5829 13.1286L85.9139 16.172H78.6532C77.7523 16.1637 76.8626 16.3749 76.0592 16.7877C75.2559 17.2005 74.5625 17.8027 74.0375 18.5437C72.8084 20.0773 72.1528 22.0002 72.1861 23.9744C72.1859 24.5045 72.2468 25.0328 72.3676 25.5486C72.1333 25.826 71.8445 26.051 71.5194 26.2091C71.1944 26.3672 70.8403 26.455 70.4798 26.4668C70.2971 26.4846 70.1128 26.4571 69.9429 26.3867C69.7731 26.3163 69.6227 26.2051 69.5048 26.0628C69.2811 25.6626 69.18 25.2042 69.2144 24.7457C69.2629 23.422 69.4365 22.1059 69.733 20.8157L71.6156 11.9375C71.6496 11.7884 71.6543 11.6338 71.6293 11.4828C71.6044 11.3318 71.5503 11.1873 71.4701 11.0574C71.3899 10.9276 71.2852 10.815 71.162 10.7261C71.0388 10.6371 70.8995 10.5736 70.7521 10.5392C70.6046 10.5047 70.4519 10.5 70.3027 10.5253C70.1534 10.5505 70.0105 10.6053 69.8822 10.6864C69.7538 10.7675 69.6426 10.8734 69.5547 10.9981C69.4668 11.1227 69.404 11.2636 69.37 11.4128L68.2809 16.8331C67.5133 16.3685 66.634 16.1271 65.7396 16.1352C64.8409 16.1219 63.9506 16.313 63.1347 16.6944C62.3187 17.0759 61.5979 17.6379 61.0254 18.339C59.7522 19.907 59.0835 21.8884 59.1428 23.9167C59.1302 24.561 59.2159 25.2035 59.3969 25.8214C58.9526 26.2114 58.3876 26.4322 57.7996 26.4458C57.6077 26.4632 57.4144 26.4358 57.2346 26.3657C57.0547 26.2957 56.8932 26.1849 56.7623 26.0418C56.5073 25.6537 56.3919 25.1887 56.4356 24.7248C56.4744 23.8406 56.5959 22.9621 56.7986 22.1012C56.8305 21.9375 56.8285 21.7688 56.7926 21.6059C56.7568 21.443 56.688 21.2894 56.5905 21.1548C56.4931 21.0202 56.369 20.9075 56.2263 20.8238C56.0836 20.7402 55.9253 20.6874 55.7614 20.6687C55.4802 20.6323 55.1956 20.7021 54.9621 20.8647C54.7286 21.0274 54.5626 21.2715 54.496 21.5503C54.1924 22.8072 53.6498 23.9924 52.8986 25.0396C52.636 25.4492 52.2828 25.7913 51.8669 26.039C51.4511 26.2867 50.984 26.4332 50.5026 26.4668C50.2526 26.4618 50.008 26.3916 49.7927 26.2629C49.5773 26.1342 49.3985 25.9514 49.2735 25.7322C48.9382 25.1429 48.7729 24.4703 48.7964 23.7908C48.7293 22.4158 49.1241 21.0584 49.9166 19.9394C50.2485 19.4537 50.694 19.0587 51.2134 18.7896C51.7328 18.5204 52.31 18.3854 52.8934 18.3967C53.4926 18.4013 54.0849 18.5261 54.636 18.764C54.8 18.8452 54.9823 18.8812 55.1644 18.8683C55.3465 18.8554 55.522 18.7941 55.6732 18.6906C55.8516 18.5829 55.9968 18.4272 56.0927 18.2408C56.1886 18.0544 56.2314 17.8448 56.2163 17.6352C56.2012 17.4256 56.1289 17.2245 56.0074 17.0541C55.8858 16.8837 55.7199 16.7509 55.528 16.6704C55.2375 16.5428 54.9352 16.4444 54.6256 16.3766C54.0697 16.2194 53.4965 16.133 52.9194 16.1195C52.0289 16.1158 51.1486 16.3114 50.3416 16.6924C49.5346 17.0734 48.821 17.6304 48.2518 18.3233C47.564 19.1054 47.0558 20.0318 46.7634 21.036C45.638 24.6513 44.191 26.4143 42.4485 26.4143C42.1995 26.4343 41.9495 26.391 41.7212 26.2884C41.493 26.1857 41.2937 26.027 41.1415 25.8267C40.8536 25.4099 40.7129 24.9071 40.7422 24.3994C40.7332 24.2393 40.7454 24.0788 40.7785 23.9219C41.8286 23.5079 42.7456 22.8089 43.4286 21.9018C44.0921 21.0424 44.4567 19.9856 44.4659 18.8952C44.4659 17.0587 43.4909 16.1405 41.4942 16.1405C40.8076 16.1372 40.1272 16.2718 39.4924 16.5366C38.8577 16.8014 38.2812 17.1911 37.7964 17.6831L39.0308 11.9113C39.0655 11.7423 39.0625 11.5676 39.022 11.4C38.9815 11.2323 38.9046 11.0759 38.7967 10.9422C38.6889 10.8084 38.5529 10.7007 38.3987 10.6269C38.2445 10.5531 38.076 10.5151 37.9054 10.5156C37.6413 10.5116 37.3842 10.6012 37.1786 10.7689C36.9731 10.9366 36.832 11.1719 36.78 11.4338L33.4089 27.3588C33.3733 27.5275 33.3755 27.7021 33.4153 27.8697C33.4551 28.0374 33.5315 28.194 33.639 28.3279C33.7464 28.4617 33.8821 28.5696 34.0362 28.6434C34.1902 28.7172 34.3587 28.7552 34.5291 28.7545C34.7896 28.7463 35.0392 28.6472 35.2358 28.4741C35.4323 28.3011 35.5638 28.0646 35.6079 27.8048L36.6451 22.925C36.8236 22.2772 37.0669 21.6496 37.3712 21.0518C37.753 20.3649 38.2723 19.7662 38.8959 19.294C39.5281 18.7382 40.3404 18.4375 41.1778 18.4492C41.2963 18.4315 41.4172 18.4422 41.5309 18.4802C41.6446 18.5183 41.7479 18.5827 41.8325 18.6684C41.9172 18.754 41.9809 18.8585 42.0185 18.9735C42.0561 19.0886 42.0666 19.2109 42.0491 19.3307C42.0199 19.7154 41.9071 20.0889 41.7188 20.4245C41.5306 20.7601 41.2715 21.0495 40.96 21.2722C40.3003 21.8737 39.4825 22.2692 38.6055 22.4108C38.5329 23.1086 38.4966 23.6229 38.4966 23.9167C38.4408 25.1792 38.7961 26.4253 39.5079 27.4638C39.8519 27.9011 40.2963 28.2469 40.8024 28.4709C41.3086 28.695 41.8612 28.7905 42.4122 28.7493C43.1762 28.7423 43.9287 28.5601 44.6131 28.2166C45.2976 27.8731 45.8962 27.3771 46.364 26.7659L46.7997 26.2412C46.9638 26.6688 47.1969 27.066 47.4894 27.4165C47.8379 27.8497 48.2813 28.1947 48.7846 28.4242C49.2878 28.6537 49.837 28.7614 50.3885 28.7388C51.9444 28.7388 53.2565 28.0042 54.3456 26.4616C54.8123 28.0042 55.9014 28.7388 57.7166 28.7388C58.7361 28.7259 59.7199 28.357 60.5016 27.6946C61.2023 28.3592 62.1347 28.7158 63.0947 28.6863C64.6505 28.6863 65.9575 27.9517 67.0465 26.4091C67.5185 27.9517 68.6024 28.6863 70.4176 28.6863C71.5695 28.698 72.6825 28.2645 73.5293 27.4742C73.9066 27.874 74.3631 28.1887 74.869 28.3975C75.3748 28.6064 75.9186 28.7048 76.4647 28.6863C77.3196 28.6864 78.1632 28.4877 78.9302 28.1056C79.6973 27.7235 80.3672 27.1682 80.8885 26.4825C82.1943 24.8974 82.9018 22.8949 82.8852 20.8314C82.901 19.9918 82.7529 19.1574 82.4495 18.3757H85.4627L85.1723 19.698C84.8018 21.2279 84.5589 22.7865 84.4462 24.3575C84.4462 27.2171 85.6079 28.6863 87.8898 28.6863C90.4829 28.6863 92.4226 26.9233 93.8021 23.4392C93.8625 23.3045 93.894 23.1583 93.8946 23.0103C93.8952 22.8624 93.8649 22.716 93.8057 22.5807C93.7464 22.4454 93.6595 22.3243 93.5508 22.2254C93.442 22.1265 93.3138 22.052 93.1746 22.0068ZM67.4614 20.611C67.0621 22.6312 66.4242 24.1004 65.6826 25.0553C64.941 26.0103 64.0904 26.4825 63.2191 26.4825C62.9684 26.4774 62.7232 26.4072 62.507 26.2785C62.2909 26.1499 62.1111 25.9672 61.9848 25.7479C61.6578 25.1688 61.4946 24.5099 61.5129 23.8432C61.4453 22.4674 61.8422 21.1093 62.6383 19.9919C62.9039 19.579 63.2549 19.2295 63.6672 18.9675C64.0794 18.7054 64.5431 18.5371 65.0259 18.4743C65.5088 18.4114 65.9994 18.4554 66.4638 18.6033C66.9282 18.7512 67.3553 18.9994 67.7156 19.3307L67.4614 20.611ZM80.0846 23.3658C79.7334 24.1238 79.2947 24.8372 78.7777 25.4908C78.4928 25.7975 78.1501 26.0433 77.7697 26.2136C77.3894 26.3839 76.9791 26.4754 76.5632 26.4825C76.2873 26.4979 76.0118 26.4459 75.7599 26.3308C75.5081 26.2157 75.2873 26.041 75.1163 25.8214C74.7361 25.2916 74.5525 24.6433 74.5976 23.9902C74.5475 22.5945 74.94 21.2191 75.7179 20.0653C76.0265 19.5801 76.4512 19.1816 76.9525 18.9064C77.4538 18.6313 78.0155 18.4885 78.5858 18.4912C79.8927 18.4912 80.5462 19.2975 80.5462 20.9101C80.5211 21.7505 80.3563 22.5807 80.0587 23.3658H80.0846ZM32.7295 10.5208C32.4655 10.5168 32.2084 10.6064 32.0028 10.7742C31.7972 10.9419 31.6562 11.1771 31.6041 11.4391L28.2331 27.3641C28.1975 27.5327 28.1996 27.7073 28.2394 27.875C28.2792 28.0427 28.3557 28.1992 28.4631 28.3331C28.5706 28.467 28.7063 28.5748 28.8604 28.6487C29.0144 28.7225 29.1829 28.7605 29.3533 28.7598C29.6174 28.7638 29.8745 28.6742 30.0801 28.5065C30.2856 28.3387 30.4267 28.1035 30.4787 27.8415L33.8549 11.9165C33.8868 11.7479 33.8817 11.5742 33.8401 11.4078C33.7985 11.2413 33.7213 11.0861 33.614 10.9531C33.5068 10.82 33.372 10.7124 33.2192 10.6377C33.0664 10.563 32.8992 10.5231 32.7295 10.5208ZM8.60858 7C6.41862 7.00829 4.32069 7.89215 2.77214 9.45889C1.22359 11.0256 0.349994 13.1482 0.341797 15.3639C0.341691 16.2877 0.488792 17.2055 0.777437 18.0819C0.881075 18.3687 1.08921 18.6046 1.3592 18.7412C1.62919 18.8778 1.94058 18.9047 2.22957 18.8165C2.51005 18.7087 2.73924 18.4966 2.87033 18.2235C3.00142 17.9504 3.02451 17.637 2.93489 17.3473C2.68935 16.6657 2.58005 15.9416 2.61335 15.217C2.64765 14.0472 3.01742 12.9128 3.67764 11.9518C4.33785 10.9909 5.26 10.2449 6.33179 9.80475C7.40357 9.36461 8.57874 9.2493 9.71414 9.47286C10.8496 9.69642 11.8962 10.2492 12.7266 11.0639C13.557 11.8785 14.1354 12.92 14.3912 14.0613C14.6471 15.2026 14.5694 16.3945 14.1676 17.492C13.7658 18.5894 13.0572 19.5449 12.1282 20.2422C11.1993 20.9394 10.0899 21.3483 8.93531 21.4191C8.93531 21.4191 7.77879 21.4925 7.19794 21.566C6.98494 21.5964 6.77373 21.6384 6.56522 21.6919C6.55024 21.7033 6.53171 21.7088 6.51303 21.7075C6.49435 21.7061 6.47678 21.698 6.46354 21.6846C6.4503 21.6712 6.44228 21.6534 6.44095 21.6345C6.43962 21.6156 6.44508 21.5969 6.45631 21.5817L6.63783 20.59L7.72693 15.6C7.78951 15.3029 7.73288 14.9928 7.56948 14.738C7.40608 14.4831 7.14931 14.3043 6.85565 14.241C6.56199 14.1777 6.25549 14.235 6.00359 14.4003C5.75169 14.5656 5.57501 14.8254 5.51243 15.1225C5.51243 15.1225 2.91933 27.3063 2.91933 27.4165C2.88363 27.5635 2.87795 27.7164 2.90265 27.8657C2.92735 28.015 2.98192 28.1576 3.06299 28.2848C3.14407 28.412 3.24997 28.5212 3.37419 28.6056C3.49841 28.6899 3.63834 28.7478 3.78543 28.7755C3.93105 28.8108 4.08225 28.8158 4.22984 28.7902C4.37742 28.7645 4.51831 28.7088 4.64394 28.6263C4.76958 28.5439 4.87733 28.4364 4.96065 28.3105C5.04398 28.1847 5.10113 28.0429 5.12865 27.894C5.16495 27.7471 5.49168 26.131 5.49168 26.131C5.61204 25.5361 5.90972 24.9929 6.34462 24.5744C6.77952 24.156 7.33074 23.8825 7.924 23.7908C8.17294 23.754 9.22574 23.6806 9.22574 23.6806C11.3296 23.4838 13.279 22.479 14.6732 20.8728C16.0673 19.2665 16.8002 17.1809 16.7212 15.0447C16.6422 12.9086 15.7572 10.8842 14.2483 9.38789C12.7393 7.89158 10.7211 7.03705 8.60858 7V7Z" fill="white"/>
<path d="M95.5812 26.2623C95.4023 26.2256 95.2181 26.2251 95.0391 26.2607C94.8601 26.2962 94.6897 26.3673 94.5379 26.4697C94.3861 26.5721 94.2558 26.7038 94.1545 26.8573C94.0532 27.0108 93.9828 27.1831 93.9475 27.3642C93.9091 27.5453 93.9069 27.7323 93.9412 27.9142C93.9754 28.0962 94.0454 28.2693 94.1469 28.4234C94.2485 28.5775 94.3795 28.7094 94.5323 28.8114C94.6851 28.9134 94.8566 28.9833 95.0366 29.017C95.2154 29.0582 95.4006 29.062 95.5809 29.0283C95.7613 28.9945 95.9329 28.9239 96.0853 28.8208C96.2377 28.7176 96.3677 28.5841 96.4674 28.4284C96.5671 28.2727 96.6344 28.0981 96.6651 27.9151C96.7262 27.5518 96.6481 27.1786 96.4467 26.8715C96.2453 26.5644 95.9358 26.3465 95.5812 26.2623Z" fill="white"/>
</svg>
