<?xml version="1.0" encoding="UTF-8"?>
<svg xmlns="http://www.w3.org/2000/svg" width="430" height="256" viewBox="0 0 430 256" fill="none">
  <rect x="0.5" y="0.5" width="429" height="255" rx="15.5" fill="url(#paint0_linear_1013_3609)"></rect>
  <rect x="0.5" y="0.5" width="429" height="255" rx="15.5" stroke="url(#paint1_linear_1013_3609)"></rect>
  <path d="M40 48C40 43.5817 43.5817 40 48 40H344C348.418 40 352 43.5817 352 48V70C352 74.4183 348.418 78 344 78H40V48Z" fill="#E2E2E9"></path>
  <path d="M59.284 58.8H60.136V62.004C59.744 62.348 59.28 62.612 58.744 62.796C58.208 62.98 57.644 63.072 57.052 63.072C56.212 63.072 55.456 62.888 54.784 62.52C54.112 62.152 53.584 61.644 53.2 60.996C52.816 60.34 52.624 59.608 52.624 58.8C52.624 57.992 52.816 57.264 53.2 56.616C53.584 55.96 54.112 55.448 54.784 55.08C55.456 54.712 56.216 54.528 57.064 54.528C57.704 54.528 58.292 54.632 58.828 54.84C59.364 55.04 59.816 55.34 60.184 55.74L59.632 56.304C58.968 55.648 58.124 55.32 57.1 55.32C56.42 55.32 55.804 55.472 55.252 55.776C54.708 56.072 54.28 56.488 53.968 57.024C53.656 57.552 53.5 58.144 53.5 58.8C53.5 59.456 53.656 60.048 53.968 60.576C54.28 61.104 54.708 61.52 55.252 61.824C55.796 62.128 56.408 62.28 57.088 62.28C57.952 62.28 58.684 62.064 59.284 61.632V58.8ZM65.0493 63.06C64.4413 63.06 63.8933 62.924 63.4053 62.652C62.9173 62.372 62.5333 61.988 62.2533 61.5C61.9733 61.012 61.8333 60.46 61.8333 59.844C61.8333 59.228 61.9733 58.676 62.2533 58.188C62.5333 57.7 62.9173 57.32 63.4053 57.048C63.8933 56.776 64.4413 56.64 65.0493 56.64C65.6573 56.64 66.2053 56.776 66.6933 57.048C67.1813 57.32 67.5613 57.7 67.8333 58.188C68.1133 58.676 68.2533 59.228 68.2533 59.844C68.2533 60.46 68.1133 61.012 67.8333 61.5C67.5613 61.988 67.1813 62.372 66.6933 62.652C66.2053 62.924 65.6573 63.06 65.0493 63.06ZM65.0493 62.304C65.4973 62.304 65.8973 62.204 66.2493 62.004C66.6093 61.796 66.8893 61.504 67.0893 61.128C67.2893 60.752 67.3893 60.324 67.3893 59.844C67.3893 59.364 67.2893 58.936 67.0893 58.56C66.8893 58.184 66.6093 57.896 66.2493 57.696C65.8973 57.488 65.4973 57.384 65.0493 57.384C64.6013 57.384 64.1973 57.488 63.8373 57.696C63.4853 57.896 63.2053 58.184 62.9973 58.56C62.7973 58.936 62.6973 59.364 62.6973 59.844C62.6973 60.324 62.7973 60.752 62.9973 61.128C63.2053 61.504 63.4853 61.796 63.8373 62.004C64.1973 62.204 64.6013 62.304 65.0493 62.304ZM72.5727 63.06C71.9647 63.06 71.4167 62.924 70.9287 62.652C70.4407 62.372 70.0567 61.988 69.7767 61.5C69.4967 61.012 69.3567 60.46 69.3567 59.844C69.3567 59.228 69.4967 58.676 69.7767 58.188C70.0567 57.7 70.4407 57.32 70.9287 57.048C71.4167 56.776 71.9647 56.64 72.5727 56.64C73.1807 56.64 73.7287 56.776 74.2167 57.048C74.7047 57.32 75.0847 57.7 75.3567 58.188C75.6367 58.676 75.7767 59.228 75.7767 59.844C75.7767 60.46 75.6367 61.012 75.3567 61.5C75.0847 61.988 74.7047 62.372 74.2167 62.652C73.7287 62.924 73.1807 63.06 72.5727 63.06ZM72.5727 62.304C73.0207 62.304 73.4207 62.204 73.7727 62.004C74.1327 61.796 74.4127 61.504 74.6127 61.128C74.8127 60.752 74.9127 60.324 74.9127 59.844C74.9127 59.364 74.8127 58.936 74.6127 58.56C74.4127 58.184 74.1327 57.896 73.7727 57.696C73.4207 57.488 73.0207 57.384 72.5727 57.384C72.1247 57.384 71.7207 57.488 71.3607 57.696C71.0087 57.896 70.7287 58.184 70.5207 58.56C70.3207 58.936 70.2207 59.364 70.2207 59.844C70.2207 60.324 70.3207 60.752 70.5207 61.128C70.7287 61.504 71.0087 61.796 71.3607 62.004C71.7207 62.204 72.1247 62.304 72.5727 62.304ZM83.2761 54.096V63H82.4601V61.752C82.2041 62.176 81.8641 62.5 81.4401 62.724C81.0241 62.948 80.5521 63.06 80.0241 63.06C79.4321 63.06 78.8961 62.924 78.4161 62.652C77.9361 62.38 77.5601 62 77.2881 61.512C77.0161 61.024 76.8801 60.468 76.8801 59.844C76.8801 59.22 77.0161 58.664 77.2881 58.176C77.5601 57.688 77.9361 57.312 78.4161 57.048C78.8961 56.776 79.4321 56.64 80.0241 56.64C80.5361 56.64 80.9961 56.748 81.4041 56.964C81.8201 57.172 82.1601 57.48 82.4241 57.888V54.096H83.2761ZM80.0961 62.304C80.5361 62.304 80.9321 62.204 81.2841 62.004C81.6441 61.796 81.9241 61.504 82.1241 61.128C82.3321 60.752 82.4361 60.324 82.4361 59.844C82.4361 59.364 82.3321 58.936 82.1241 58.56C81.9241 58.184 81.6441 57.896 81.2841 57.696C80.9321 57.488 80.5361 57.384 80.0961 57.384C79.6481 57.384 79.2441 57.488 78.8841 57.696C78.5321 57.896 78.2521 58.184 78.0441 58.56C77.8441 58.936 77.7441 59.364 77.7441 59.844C77.7441 60.324 77.8441 60.752 78.0441 61.128C78.2521 61.504 78.5321 61.796 78.8841 62.004C79.2441 62.204 79.6481 62.304 80.0961 62.304ZM90.9976 56.64C91.8216 56.64 92.4536 56.848 92.8936 57.264C93.3336 57.672 93.5536 58.28 93.5536 59.088V63H92.7376V62.016C92.5456 62.344 92.2616 62.6 91.8856 62.784C91.5176 62.968 91.0776 63.06 90.5656 63.06C89.8616 63.06 89.3016 62.892 88.8856 62.556C88.4696 62.22 88.2616 61.776 88.2616 61.224C88.2616 60.688 88.4536 60.256 88.8376 59.928C89.2296 59.6 89.8496 59.436 90.6976 59.436H92.7016V59.052C92.7016 58.508 92.5496 58.096 92.2456 57.816C91.9416 57.528 91.4976 57.384 90.9136 57.384C90.5136 57.384 90.1296 57.452 89.7616 57.588C89.3936 57.716 89.0776 57.896 88.8136 58.128L88.4296 57.492C88.7496 57.22 89.1336 57.012 89.5816 56.868C90.0296 56.716 90.5016 56.64 90.9976 56.64ZM90.6976 62.388C91.1776 62.388 91.5896 62.28 91.9336 62.064C92.2776 61.84 92.5336 61.52 92.7016 61.104V60.072H90.7216C89.6416 60.072 89.1016 60.448 89.1016 61.2C89.1016 61.568 89.2416 61.86 89.5216 62.076C89.8016 62.284 90.1936 62.388 90.6976 62.388ZM97.9557 54.756C97.5877 54.756 97.3077 54.856 97.1157 55.056C96.9317 55.256 96.8397 55.552 96.8397 55.944V56.688H98.7837V57.408H96.8637V63H96.0117V57.408H94.8837V56.688H96.0117V55.908C96.0117 55.332 96.1757 54.876 96.5037 54.54C96.8397 54.204 97.3117 54.036 97.9197 54.036C98.1597 54.036 98.3917 54.072 98.6157 54.144C98.8397 54.208 99.0277 54.304 99.1797 54.432L98.8917 55.068C98.6437 54.86 98.3317 54.756 97.9557 54.756ZM103.258 62.616C103.098 62.76 102.898 62.872 102.658 62.952C102.426 63.024 102.182 63.06 101.926 63.06C101.334 63.06 100.878 62.9 100.558 62.58C100.238 62.26 100.078 61.808 100.078 61.224V57.408H98.9501V56.688H100.078V55.308H100.93V56.688H102.85V57.408H100.93V61.176C100.93 61.552 101.022 61.84 101.206 62.04C101.398 62.232 101.67 62.328 102.022 62.328C102.198 62.328 102.366 62.3 102.526 62.244C102.694 62.188 102.838 62.108 102.958 62.004L103.258 62.616ZM110.082 60.108H104.802C104.85 60.764 105.102 61.296 105.558 61.704C106.014 62.104 106.59 62.304 107.286 62.304C107.678 62.304 108.038 62.236 108.366 62.1C108.694 61.956 108.978 61.748 109.218 61.476L109.698 62.028C109.418 62.364 109.066 62.62 108.642 62.796C108.226 62.972 107.766 63.06 107.262 63.06C106.614 63.06 106.038 62.924 105.534 62.652C105.038 62.372 104.65 61.988 104.37 61.5C104.09 61.012 103.95 60.46 103.95 59.844C103.95 59.228 104.082 58.676 104.346 58.188C104.618 57.7 104.986 57.32 105.45 57.048C105.922 56.776 106.45 56.64 107.034 56.64C107.618 56.64 108.142 56.776 108.606 57.048C109.07 57.32 109.434 57.7 109.698 58.188C109.962 58.668 110.094 59.22 110.094 59.844L110.082 60.108ZM107.034 57.372C106.426 57.372 105.914 57.568 105.498 57.96C105.09 58.344 104.858 58.848 104.802 59.472H109.278C109.222 58.848 108.986 58.344 108.57 57.96C108.162 57.568 107.65 57.372 107.034 57.372ZM112.645 57.924C112.845 57.5 113.141 57.18 113.533 56.964C113.933 56.748 114.425 56.64 115.009 56.64V57.468L114.805 57.456C114.141 57.456 113.621 57.66 113.245 58.068C112.869 58.476 112.681 59.048 112.681 59.784V63H111.829V56.688H112.645V57.924ZM119.767 56.64C120.559 56.64 121.187 56.872 121.651 57.336C122.123 57.792 122.359 58.46 122.359 59.34V63H121.507V59.424C121.507 58.768 121.343 58.268 121.015 57.924C120.687 57.58 120.219 57.408 119.611 57.408C118.931 57.408 118.391 57.612 117.991 58.02C117.599 58.42 117.403 58.976 117.403 59.688V63H116.551V56.688H117.367V57.852C117.599 57.468 117.919 57.172 118.327 56.964C118.743 56.748 119.223 56.64 119.767 56.64ZM127.276 63.06C126.668 63.06 126.12 62.924 125.632 62.652C125.144 62.372 124.76 61.988 124.48 61.5C124.2 61.012 124.06 60.46 124.06 59.844C124.06 59.228 124.2 58.676 124.48 58.188C124.76 57.7 125.144 57.32 125.632 57.048C126.12 56.776 126.668 56.64 127.276 56.64C127.884 56.64 128.432 56.776 128.92 57.048C129.408 57.32 129.788 57.7 130.06 58.188C130.34 58.676 130.48 59.228 130.48 59.844C130.48 60.46 130.34 61.012 130.06 61.5C129.788 61.988 129.408 62.372 128.92 62.652C128.432 62.924 127.884 63.06 127.276 63.06ZM127.276 62.304C127.724 62.304 128.124 62.204 128.476 62.004C128.836 61.796 129.116 61.504 129.316 61.128C129.516 60.752 129.616 60.324 129.616 59.844C129.616 59.364 129.516 58.936 129.316 58.56C129.116 58.184 128.836 57.896 128.476 57.696C128.124 57.488 127.724 57.384 127.276 57.384C126.828 57.384 126.424 57.488 126.064 57.696C125.712 57.896 125.432 58.184 125.224 58.56C125.024 58.936 124.924 59.364 124.924 59.844C124.924 60.324 125.024 60.752 125.224 61.128C125.432 61.504 125.712 61.796 126.064 62.004C126.424 62.204 126.828 62.304 127.276 62.304ZM134.799 63.06C134.191 63.06 133.643 62.924 133.155 62.652C132.667 62.372 132.283 61.988 132.003 61.5C131.723 61.012 131.583 60.46 131.583 59.844C131.583 59.228 131.723 58.676 132.003 58.188C132.283 57.7 132.667 57.32 133.155 57.048C133.643 56.776 134.191 56.64 134.799 56.64C135.407 56.64 135.955 56.776 136.443 57.048C136.931 57.32 137.311 57.7 137.583 58.188C137.863 58.676 138.003 59.228 138.003 59.844C138.003 60.46 137.863 61.012 137.583 61.5C137.311 61.988 136.931 62.372 136.443 62.652C135.955 62.924 135.407 63.06 134.799 63.06ZM134.799 62.304C135.247 62.304 135.647 62.204 135.999 62.004C136.359 61.796 136.639 61.504 136.839 61.128C137.039 60.752 137.139 60.324 137.139 59.844C137.139 59.364 137.039 58.936 136.839 58.56C136.639 58.184 136.359 57.896 135.999 57.696C135.647 57.488 135.247 57.384 134.799 57.384C134.351 57.384 133.947 57.488 133.587 57.696C133.235 57.896 132.955 58.184 132.747 58.56C132.547 58.936 132.447 59.364 132.447 59.844C132.447 60.324 132.547 60.752 132.747 61.128C132.955 61.504 133.235 61.796 133.587 62.004C133.947 62.204 134.351 62.304 134.799 62.304ZM142.959 56.64C143.751 56.64 144.379 56.872 144.843 57.336C145.315 57.792 145.551 58.46 145.551 59.34V63H144.699V59.424C144.699 58.768 144.535 58.268 144.207 57.924C143.879 57.58 143.411 57.408 142.803 57.408C142.123 57.408 141.583 57.612 141.183 58.02C140.791 58.42 140.595 58.976 140.595 59.688V63H139.743V56.688H140.559V57.852C140.791 57.468 141.111 57.172 141.519 56.964C141.935 56.748 142.415 56.64 142.959 56.64ZM147.96 61.752C148.144 61.752 148.296 61.816 148.416 61.944C148.536 62.064 148.596 62.216 148.596 62.4C148.596 62.496 148.58 62.6 148.548 62.712C148.524 62.824 148.484 62.952 148.428 63.096L147.924 64.752H147.348L147.756 63.012C147.628 62.972 147.524 62.9 147.444 62.796C147.364 62.684 147.324 62.552 147.324 62.4C147.324 62.216 147.384 62.064 147.504 61.944C147.624 61.816 147.776 61.752 147.96 61.752ZM156.871 62.616C156.711 62.76 156.511 62.872 156.271 62.952C156.039 63.024 155.795 63.06 155.539 63.06C154.947 63.06 154.491 62.9 154.171 62.58C153.851 62.26 153.691 61.808 153.691 61.224V57.408H152.563V56.688H153.691V55.308H154.543V56.688H156.463V57.408H154.543V61.176C154.543 61.552 154.635 61.84 154.819 62.04C155.011 62.232 155.283 62.328 155.635 62.328C155.811 62.328 155.979 62.3 156.139 62.244C156.307 62.188 156.451 62.108 156.571 62.004L156.871 62.616ZM161.638 56.64C162.43 56.64 163.058 56.872 163.522 57.336C163.994 57.792 164.23 58.46 164.23 59.34V63H163.378V59.424C163.378 58.768 163.214 58.268 162.886 57.924C162.558 57.58 162.09 57.408 161.482 57.408C160.802 57.408 160.262 57.612 159.862 58.02C159.47 58.42 159.274 58.976 159.274 59.688V63H158.422V54.096H159.274V57.792C159.506 57.424 159.826 57.14 160.234 56.94C160.642 56.74 161.11 56.64 161.638 56.64ZM166.543 56.688H167.395V63H166.543V56.688ZM166.975 55.308C166.799 55.308 166.651 55.248 166.531 55.128C166.411 55.008 166.351 54.864 166.351 54.696C166.351 54.536 166.411 54.396 166.531 54.276C166.651 54.156 166.799 54.096 166.975 54.096C167.151 54.096 167.299 54.156 167.419 54.276C167.539 54.388 167.599 54.524 167.599 54.684C167.599 54.86 167.539 55.008 167.419 55.128C167.299 55.248 167.151 55.308 166.975 55.308ZM171.458 63.06C170.946 63.06 170.454 62.988 169.982 62.844C169.518 62.692 169.154 62.504 168.89 62.28L169.274 61.608C169.538 61.816 169.87 61.988 170.27 62.124C170.67 62.252 171.086 62.316 171.518 62.316C172.094 62.316 172.518 62.228 172.79 62.052C173.07 61.868 173.21 61.612 173.21 61.284C173.21 61.052 173.134 60.872 172.982 60.744C172.83 60.608 172.638 60.508 172.406 60.444C172.174 60.372 171.866 60.304 171.482 60.24C170.97 60.144 170.558 60.048 170.246 59.952C169.934 59.848 169.666 59.676 169.442 59.436C169.226 59.196 169.118 58.864 169.118 58.44C169.118 57.912 169.338 57.48 169.778 57.144C170.218 56.808 170.83 56.64 171.614 56.64C172.022 56.64 172.43 56.696 172.838 56.808C173.246 56.912 173.582 57.052 173.846 57.228L173.474 57.912C172.954 57.552 172.334 57.372 171.614 57.372C171.07 57.372 170.658 57.468 170.378 57.66C170.106 57.852 169.97 58.104 169.97 58.416C169.97 58.656 170.046 58.848 170.198 58.992C170.358 59.136 170.554 59.244 170.786 59.316C171.018 59.38 171.338 59.448 171.746 59.52C172.25 59.616 172.654 59.712 172.958 59.808C173.262 59.904 173.522 60.068 173.738 60.3C173.954 60.532 174.062 60.852 174.062 61.26C174.062 61.812 173.83 62.252 173.366 62.58C172.91 62.9 172.274 63.06 171.458 63.06ZM178.778 56.688H179.63V63H178.778V56.688ZM179.21 55.308C179.034 55.308 178.886 55.248 178.766 55.128C178.646 55.008 178.586 54.864 178.586 54.696C178.586 54.536 178.646 54.396 178.766 54.276C178.886 54.156 179.034 54.096 179.21 54.096C179.386 54.096 179.534 54.156 179.654 54.276C179.774 54.388 179.834 54.524 179.834 54.684C179.834 54.86 179.774 55.008 179.654 55.128C179.534 55.248 179.386 55.308 179.21 55.308ZM183.693 63.06C183.181 63.06 182.689 62.988 182.217 62.844C181.753 62.692 181.389 62.504 181.125 62.28L181.509 61.608C181.773 61.816 182.105 61.988 182.505 62.124C182.905 62.252 183.321 62.316 183.753 62.316C184.329 62.316 184.753 62.228 185.025 62.052C185.305 61.868 185.445 61.612 185.445 61.284C185.445 61.052 185.369 60.872 185.217 60.744C185.065 60.608 184.873 60.508 184.641 60.444C184.409 60.372 184.101 60.304 183.717 60.24C183.205 60.144 182.793 60.048 182.481 59.952C182.169 59.848 181.901 59.676 181.677 59.436C181.461 59.196 181.353 58.864 181.353 58.44C181.353 57.912 181.573 57.48 182.013 57.144C182.453 56.808 183.065 56.64 183.849 56.64C184.257 56.64 184.665 56.696 185.073 56.808C185.481 56.912 185.817 57.052 186.081 57.228L185.709 57.912C185.189 57.552 184.569 57.372 183.849 57.372C183.305 57.372 182.893 57.468 182.613 57.66C182.341 57.852 182.205 58.104 182.205 58.416C182.205 58.656 182.281 58.848 182.433 58.992C182.593 59.136 182.789 59.244 183.021 59.316C183.253 59.38 183.573 59.448 183.98 59.52C184.485 59.616 184.889 59.712 185.193 59.808C185.497 59.904 185.757 60.068 185.973 60.3C186.189 60.532 186.297 60.852 186.297 61.26C186.297 61.812 186.065 62.252 185.601 62.58C185.145 62.9 184.509 63.06 183.693 63.06ZM196.316 56.688L193.16 63.756C192.904 64.348 192.608 64.768 192.272 65.016C191.936 65.264 191.532 65.388 191.06 65.388C190.756 65.388 190.472 65.34 190.208 65.244C189.944 65.148 189.716 65.004 189.524 64.812L189.92 64.176C190.24 64.496 190.624 64.656 191.072 64.656C191.36 64.656 191.604 64.576 191.804 64.416C192.012 64.256 192.204 63.984 192.38 63.6L192.656 62.988L189.836 56.688H190.724L193.1 62.052L195.476 56.688H196.316ZM199.92 63.06C199.312 63.06 198.764 62.924 198.276 62.652C197.788 62.372 197.404 61.988 197.124 61.5C196.844 61.012 196.704 60.46 196.704 59.844C196.704 59.228 196.844 58.676 197.124 58.188C197.404 57.7 197.788 57.32 198.276 57.048C198.764 56.776 199.312 56.64 199.92 56.64C200.528 56.64 201.076 56.776 201.564 57.048C202.052 57.32 202.432 57.7 202.704 58.188C202.984 58.676 203.124 59.228 203.124 59.844C203.124 60.46 202.984 61.012 202.704 61.5C202.432 61.988 202.052 62.372 201.564 62.652C201.076 62.924 200.528 63.06 199.92 63.06ZM199.92 62.304C200.368 62.304 200.768 62.204 201.12 62.004C201.48 61.796 201.76 61.504 201.96 61.128C202.16 60.752 202.26 60.324 202.26 59.844C202.26 59.364 202.16 58.936 201.96 58.56C201.76 58.184 201.48 57.896 201.12 57.696C200.768 57.488 200.368 57.384 199.92 57.384C199.472 57.384 199.068 57.488 198.708 57.696C198.356 57.896 198.076 58.184 197.868 58.56C197.668 58.936 197.568 59.364 197.568 59.844C197.568 60.324 197.668 60.752 197.868 61.128C198.076 61.504 198.356 61.796 198.708 62.004C199.068 62.204 199.472 62.304 199.92 62.304ZM210.552 56.688V63H209.736V61.848C209.512 62.232 209.204 62.532 208.812 62.748C208.42 62.956 207.972 63.06 207.468 63.06C206.644 63.06 205.992 62.832 205.512 62.376C205.04 61.912 204.804 61.236 204.804 60.348V56.688H205.656V60.264C205.656 60.928 205.82 61.432 206.148 61.776C206.476 62.12 206.944 62.292 207.552 62.292C208.216 62.292 208.74 62.092 209.124 61.692C209.508 61.284 209.7 60.72 209.7 60V56.688H210.552ZM213.754 57.924C213.954 57.5 214.25 57.18 214.642 56.964C215.042 56.748 215.534 56.64 216.118 56.64V57.468L215.914 57.456C215.25 57.456 214.73 57.66 214.354 58.068C213.978 58.476 213.79 59.048 213.79 59.784V63H212.938V56.688H213.754V57.924ZM221.711 57.924C221.911 57.5 222.207 57.18 222.599 56.964C222.999 56.748 223.491 56.64 224.075 56.64V57.468L223.871 57.456C223.207 57.456 222.687 57.66 222.311 58.068C221.935 58.476 221.747 59.048 221.747 59.784V63H220.895V56.688H221.711V57.924ZM231.055 60.108H225.775C225.823 60.764 226.075 61.296 226.531 61.704C226.987 62.104 227.563 62.304 228.259 62.304C228.651 62.304 229.011 62.236 229.339 62.1C229.667 61.956 229.951 61.748 230.191 61.476L230.671 62.028C230.391 62.364 230.039 62.62 229.615 62.796C229.199 62.972 228.739 63.06 228.235 63.06C227.587 63.06 227.011 62.924 226.507 62.652C226.011 62.372 225.623 61.988 225.343 61.5C225.063 61.012 224.923 60.46 224.923 59.844C224.923 59.228 225.055 58.676 225.319 58.188C225.591 57.7 225.959 57.32 226.423 57.048C226.895 56.776 227.423 56.64 228.007 56.64C228.591 56.64 229.115 56.776 229.579 57.048C230.043 57.32 230.407 57.7 230.671 58.188C230.935 58.668 231.067 59.22 231.067 59.844L231.055 60.108ZM228.007 57.372C227.399 57.372 226.887 57.568 226.471 57.96C226.063 58.344 225.831 58.848 225.775 59.472H230.251C230.195 58.848 229.959 58.344 229.543 57.96C229.135 57.568 228.623 57.372 228.007 57.372ZM236.053 56.64C236.645 56.64 237.181 56.776 237.661 57.048C238.141 57.312 238.517 57.688 238.789 58.176C239.061 58.664 239.197 59.22 239.197 59.844C239.197 60.476 239.061 61.036 238.789 61.524C238.517 62.012 238.141 62.392 237.661 62.664C237.189 62.928 236.653 63.06 236.053 63.06C235.541 63.06 235.077 62.956 234.661 62.748C234.253 62.532 233.917 62.22 233.653 61.812V65.328H232.801V56.688H233.617V57.936C233.873 57.52 234.209 57.2 234.625 56.976C235.049 56.752 235.525 56.64 236.053 56.64ZM235.993 62.304C236.433 62.304 236.833 62.204 237.193 62.004C237.553 61.796 237.833 61.504 238.033 61.128C238.241 60.752 238.345 60.324 238.345 59.844C238.345 59.364 238.241 58.94 238.033 58.572C237.833 58.196 237.553 57.904 237.193 57.696C236.833 57.488 236.433 57.384 235.993 57.384C235.545 57.384 235.141 57.488 234.781 57.696C234.429 57.904 234.149 58.196 233.941 58.572C233.741 58.94 233.641 59.364 233.641 59.844C233.641 60.324 233.741 60.752 233.941 61.128C234.149 61.504 234.429 61.796 234.781 62.004C235.141 62.204 235.545 62.304 235.993 62.304ZM243.514 63.06C242.906 63.06 242.358 62.924 241.87 62.652C241.382 62.372 240.998 61.988 240.718 61.5C240.438 61.012 240.298 60.46 240.298 59.844C240.298 59.228 240.438 58.676 240.718 58.188C240.998 57.7 241.382 57.32 241.87 57.048C242.358 56.776 242.906 56.64 243.514 56.64C244.122 56.64 244.67 56.776 245.158 57.048C245.646 57.32 246.026 57.7 246.298 58.188C246.578 58.676 246.718 59.228 246.718 59.844C246.718 60.46 246.578 61.012 246.298 61.5C246.026 61.988 245.646 62.372 245.158 62.652C244.67 62.924 244.122 63.06 243.514 63.06ZM243.514 62.304C243.962 62.304 244.362 62.204 244.714 62.004C245.074 61.796 245.354 61.504 245.554 61.128C245.754 60.752 245.854 60.324 245.854 59.844C245.854 59.364 245.754 58.936 245.554 58.56C245.354 58.184 245.074 57.896 244.714 57.696C244.362 57.488 243.962 57.384 243.514 57.384C243.066 57.384 242.662 57.488 242.302 57.696C241.95 57.896 241.67 58.184 241.462 58.56C241.262 58.936 241.162 59.364 241.162 59.844C241.162 60.324 241.262 60.752 241.462 61.128C241.67 61.504 241.95 61.796 242.302 62.004C242.662 62.204 243.066 62.304 243.514 62.304ZM249.274 57.924C249.474 57.5 249.77 57.18 250.162 56.964C250.562 56.748 251.054 56.64 251.638 56.64V57.468L251.434 57.456C250.77 57.456 250.25 57.66 249.874 58.068C249.498 58.476 249.31 59.048 249.31 59.784V63H248.458V56.688H249.274V57.924ZM256.774 62.616C256.614 62.76 256.414 62.872 256.174 62.952C255.942 63.024 255.698 63.06 255.442 63.06C254.85 63.06 254.394 62.9 254.074 62.58C253.754 62.26 253.594 61.808 253.594 61.224V57.408H252.466V56.688H253.594V55.308H254.446V56.688H256.366V57.408H254.446V61.176C254.446 61.552 254.538 61.84 254.722 62.04C254.914 62.232 255.186 62.328 255.538 62.328C255.714 62.328 255.882 62.3 256.042 62.244C256.21 62.188 256.354 62.108 256.474 62.004L256.774 62.616ZM263.553 54.756C263.185 54.756 262.905 54.856 262.713 55.056C262.529 55.256 262.437 55.552 262.437 55.944V56.688H264.381V57.408H262.461V63H261.609V57.408H260.481V56.688H261.609V55.908C261.609 55.332 261.773 54.876 262.101 54.54C262.437 54.204 262.909 54.036 263.517 54.036C263.757 54.036 263.989 54.072 264.213 54.144C264.437 54.208 264.625 54.304 264.777 54.432L264.489 55.068C264.241 54.86 263.929 54.756 263.553 54.756ZM268.006 63.06C267.398 63.06 266.85 62.924 266.362 62.652C265.874 62.372 265.49 61.988 265.21 61.5C264.93 61.012 264.79 60.46 264.79 59.844C264.79 59.228 264.93 58.676 265.21 58.188C265.49 57.7 265.874 57.32 266.362 57.048C266.85 56.776 267.398 56.64 268.006 56.64C268.614 56.64 269.162 56.776 269.65 57.048C270.138 57.32 270.518 57.7 270.79 58.188C271.07 58.676 271.21 59.228 271.21 59.844C271.21 60.46 271.07 61.012 270.79 61.5C270.518 61.988 270.138 62.372 269.65 62.652C269.162 62.924 268.614 63.06 268.006 63.06ZM268.006 62.304C268.454 62.304 268.854 62.204 269.206 62.004C269.566 61.796 269.846 61.504 270.046 61.128C270.246 60.752 270.346 60.324 270.346 59.844C270.346 59.364 270.246 58.936 270.046 58.56C269.846 58.184 269.566 57.896 269.206 57.696C268.854 57.488 268.454 57.384 268.006 57.384C267.558 57.384 267.154 57.488 266.794 57.696C266.442 57.896 266.162 58.184 265.954 58.56C265.754 58.936 265.654 59.364 265.654 59.844C265.654 60.324 265.754 60.752 265.954 61.128C266.162 61.504 266.442 61.796 266.794 62.004C267.154 62.204 267.558 62.304 268.006 62.304ZM273.766 57.924C273.966 57.5 274.262 57.18 274.654 56.964C275.054 56.748 275.546 56.64 276.13 56.64V57.468L275.926 57.456C275.262 57.456 274.742 57.66 274.366 58.068C273.99 58.476 273.802 59.048 273.802 59.784V63H272.95V56.688H273.766V57.924ZM284.231 62.616C284.071 62.76 283.871 62.872 283.631 62.952C283.399 63.024 283.155 63.06 282.899 63.06C282.307 63.06 281.851 62.9 281.531 62.58C281.211 62.26 281.051 61.808 281.051 61.224V57.408H279.923V56.688H281.051V55.308H281.903V56.688H283.823V57.408H281.903V61.176C281.903 61.552 281.995 61.84 282.179 62.04C282.371 62.232 282.643 62.328 282.995 62.328C283.171 62.328 283.339 62.3 283.499 62.244C283.667 62.188 283.811 62.108 283.931 62.004L284.231 62.616ZM288.998 56.64C289.79 56.64 290.418 56.872 290.882 57.336C291.354 57.792 291.59 58.46 291.59 59.34V63H290.738V59.424C290.738 58.768 290.574 58.268 290.246 57.924C289.918 57.58 289.45 57.408 288.842 57.408C288.162 57.408 287.622 57.612 287.222 58.02C286.83 58.42 286.634 58.976 286.634 59.688V63H285.782V54.096H286.634V57.792C286.866 57.424 287.186 57.14 287.594 56.94C288.002 56.74 288.47 56.64 288.998 56.64ZM293.903 56.688H294.755V63H293.903V56.688ZM294.335 55.308C294.159 55.308 294.011 55.248 293.891 55.128C293.771 55.008 293.711 54.864 293.711 54.696C293.711 54.536 293.771 54.396 293.891 54.276C294.011 54.156 294.159 54.096 294.335 54.096C294.511 54.096 294.659 54.156 294.779 54.276C294.899 54.388 294.959 54.524 294.959 54.684C294.959 54.86 294.899 55.008 294.779 55.128C294.659 55.248 294.511 55.308 294.335 55.308ZM298.818 63.06C298.306 63.06 297.814 62.988 297.342 62.844C296.878 62.692 296.514 62.504 296.25 62.28L296.634 61.608C296.898 61.816 297.23 61.988 297.63 62.124C298.03 62.252 298.446 62.316 298.878 62.316C299.454 62.316 299.878 62.228 300.15 62.052C300.43 61.868 300.57 61.612 300.57 61.284C300.57 61.052 300.494 60.872 300.342 60.744C300.19 60.608 299.998 60.508 299.766 60.444C299.534 60.372 299.226 60.304 298.842 60.24C298.33 60.144 297.918 60.048 297.606 59.952C297.294 59.848 297.026 59.676 296.802 59.436C296.586 59.196 296.478 58.864 296.478 58.44C296.478 57.912 296.698 57.48 297.138 57.144C297.578 56.808 298.19 56.64 298.974 56.64C299.382 56.64 299.79 56.696 300.198 56.808C300.606 56.912 300.942 57.052 301.206 57.228L300.834 57.912C300.314 57.552 299.694 57.372 298.974 57.372C298.43 57.372 298.018 57.468 297.738 57.66C297.466 57.852 297.33 58.104 297.33 58.416C297.33 58.656 297.406 58.848 297.558 58.992C297.718 59.136 297.914 59.244 298.146 59.316C298.378 59.38 298.698 59.448 299.105 59.52C299.61 59.616 300.014 59.712 300.318 59.808C300.622 59.904 300.882 60.068 301.098 60.3C301.314 60.532 301.422 60.852 301.422 61.26C301.422 61.812 301.19 62.252 300.726 62.58C300.27 62.9 299.634 63.06 298.818 63.06ZM315.401 56.688L313.013 63H312.209L310.217 57.828L308.225 63H307.421L305.045 56.688H305.861L307.841 62.052L309.869 56.688H310.601L312.617 62.052L314.621 56.688H315.401ZM322.004 60.108H316.724C316.772 60.764 317.024 61.296 317.48 61.704C317.936 62.104 318.512 62.304 319.208 62.304C319.6 62.304 319.96 62.236 320.288 62.1C320.616 61.956 320.9 61.748 321.14 61.476L321.62 62.028C321.34 62.364 320.988 62.62 320.564 62.796C320.148 62.972 319.688 63.06 319.184 63.06C318.536 63.06 317.96 62.924 317.456 62.652C316.96 62.372 316.572 61.988 316.292 61.5C316.012 61.012 315.872 60.46 315.872 59.844C315.872 59.228 316.004 58.676 316.268 58.188C316.54 57.7 316.908 57.32 317.372 57.048C317.844 56.776 318.372 56.64 318.956 56.64C319.54 56.64 320.064 56.776 320.528 57.048C320.992 57.32 321.356 57.7 321.62 58.188C321.884 58.668 322.016 59.22 322.016 59.844L322.004 60.108ZM318.956 57.372C318.348 57.372 317.836 57.568 317.42 57.96C317.012 58.344 316.78 58.848 316.724 59.472H321.2C321.144 58.848 320.908 58.344 320.492 57.96C320.084 57.568 319.572 57.372 318.956 57.372ZM329.247 60.108H323.967C324.015 60.764 324.267 61.296 324.723 61.704C325.179 62.104 325.755 62.304 326.451 62.304C326.843 62.304 327.203 62.236 327.531 62.1C327.859 61.956 328.143 61.748 328.383 61.476L328.863 62.028C328.583 62.364 328.231 62.62 327.807 62.796C327.391 62.972 326.931 63.06 326.427 63.06C325.779 63.06 325.203 62.924 324.699 62.652C324.203 62.372 323.815 61.988 323.535 61.5C323.255 61.012 323.115 60.46 323.115 59.844C323.115 59.228 323.247 58.676 323.511 58.188C323.783 57.7 324.151 57.32 324.615 57.048C325.087 56.776 325.615 56.64 326.199 56.64C326.783 56.64 327.307 56.776 327.771 57.048C328.235 57.32 328.599 57.7 328.863 58.188C329.127 58.668 329.259 59.22 329.259 59.844L329.247 60.108ZM326.199 57.372C325.591 57.372 325.079 57.568 324.663 57.96C324.255 58.344 324.023 58.848 323.967 59.472H328.443C328.387 58.848 328.151 58.344 327.735 57.96C327.327 57.568 326.815 57.372 326.199 57.372ZM333.333 59.832L331.845 61.2V63H330.993V54.096H331.845V60.132L335.613 56.688H336.669L333.969 59.268L336.921 63H335.877L333.333 59.832ZM338.401 63.06C338.225 63.06 338.073 62.996 337.945 62.868C337.825 62.74 337.765 62.584 337.765 62.4C337.765 62.216 337.825 62.064 337.945 61.944C338.073 61.816 338.225 61.752 338.401 61.752C338.577 61.752 338.729 61.816 338.857 61.944C338.985 62.064 339.049 62.216 339.049 62.4C339.049 62.584 338.985 62.74 338.857 62.868C338.729 62.996 338.577 63.06 338.401 63.06Z" fill="#121212"></path>
  <path d="M40 78V68L30 78H40Z" fill="#E2E2E9"></path>
  <path d="M40 106C40 101.582 43.5817 98 48 98H173C177.418 98 181 101.582 181 106V150C181 154.418 177.418 158 173 158H40V106Z" fill="#E2E2E9"></path>
  <rect x="52" y="108" width="40" height="40" rx="20" fill="white"></rect>
  <path d="M75.1667 119.842C74.8251 119.5 74.2334 119.733 74.2334 120.208V123.117C74.2334 124.333 75.2667 125.342 76.5251 125.342C77.3167 125.35 78.4167 125.35 79.3584 125.35C79.8334 125.35 80.0834 124.792 79.7501 124.458C78.5501 123.25 76.4001 121.075 75.1667 119.842Z" fill="#292D32"></path>
  <path d="M79.0835 126.492H76.6752C74.7002 126.492 73.0918 124.883 73.0918 122.908V120.5C73.0918 120.042 72.7168 119.667 72.2585 119.667H68.7252C66.1585 119.667 64.0835 121.333 64.0835 124.308V131.692C64.0835 134.667 66.1585 136.333 68.7252 136.333H75.2752C77.8418 136.333 79.9168 134.667 79.9168 131.692V127.325C79.9168 126.867 79.5418 126.492 79.0835 126.492ZM71.5835 132.792H68.2502C67.9085 132.792 67.6252 132.508 67.6252 132.167C67.6252 131.825 67.9085 131.542 68.2502 131.542H71.5835C71.9252 131.542 72.2085 131.825 72.2085 132.167C72.2085 132.508 71.9252 132.792 71.5835 132.792ZM73.2502 129.458H68.2502C67.9085 129.458 67.6252 129.175 67.6252 128.833C67.6252 128.492 67.9085 128.208 68.2502 128.208H73.2502C73.5918 128.208 73.8752 128.492 73.8752 128.833C73.8752 129.175 73.5918 129.458 73.2502 129.458Z" fill="#292D32"></path>
  <path d="M108.624 132L106.908 129.54C106.836 129.548 106.728 129.552 106.584 129.552H104.688V132H103.128V123.6H106.584C107.312 123.6 107.944 123.72 108.48 123.96C109.024 124.2 109.44 124.544 109.728 124.992C110.016 125.44 110.16 125.972 110.16 126.588C110.16 127.22 110.004 127.764 109.692 128.22C109.388 128.676 108.948 129.016 108.372 129.24L110.304 132H108.624ZM108.588 126.588C108.588 126.052 108.412 125.64 108.06 125.352C107.708 125.064 107.192 124.92 106.512 124.92H104.688V128.268H106.512C107.192 128.268 107.708 128.124 108.06 127.836C108.412 127.54 108.588 127.124 108.588 126.588ZM117.785 128.832C117.785 128.936 117.777 129.084 117.761 129.276H112.733C112.821 129.748 113.049 130.124 113.417 130.404C113.793 130.676 114.257 130.812 114.809 130.812C115.513 130.812 116.093 130.58 116.549 130.116L117.353 131.04C117.065 131.384 116.701 131.644 116.261 131.82C115.821 131.996 115.325 132.084 114.773 132.084C114.069 132.084 113.449 131.944 112.913 131.664C112.377 131.384 111.961 130.996 111.665 130.5C111.377 129.996 111.233 129.428 111.233 128.796C111.233 128.172 111.373 127.612 111.653 127.116C111.941 126.612 112.337 126.22 112.841 125.94C113.345 125.66 113.913 125.52 114.545 125.52C115.169 125.52 115.725 125.66 116.213 125.94C116.709 126.212 117.093 126.6 117.365 127.104C117.645 127.6 117.785 128.176 117.785 128.832ZM114.545 126.72C114.065 126.72 113.657 126.864 113.321 127.152C112.993 127.432 112.793 127.808 112.721 128.28H116.357C116.293 127.816 116.097 127.44 115.769 127.152C115.441 126.864 115.033 126.72 114.545 126.72ZM122.778 125.52C123.402 125.52 123.958 125.656 124.446 125.928C124.942 126.2 125.33 126.584 125.61 127.08C125.89 127.576 126.03 128.148 126.03 128.796C126.03 129.444 125.89 130.02 125.61 130.524C125.33 131.02 124.942 131.404 124.446 131.676C123.958 131.948 123.402 132.084 122.778 132.084C121.914 132.084 121.23 131.796 120.726 131.22V134.328H119.226V125.592H120.654V126.432C120.902 126.128 121.206 125.9 121.566 125.748C121.934 125.596 122.338 125.52 122.778 125.52ZM122.61 130.8C123.162 130.8 123.614 130.616 123.966 130.248C124.326 129.88 124.506 129.396 124.506 128.796C124.506 128.196 124.326 127.712 123.966 127.344C123.614 126.976 123.162 126.792 122.61 126.792C122.25 126.792 121.926 126.876 121.638 127.044C121.35 127.204 121.122 127.436 120.954 127.74C120.786 128.044 120.702 128.396 120.702 128.796C120.702 129.196 120.786 129.548 120.954 129.852C121.122 130.156 121.35 130.392 121.638 130.56C121.926 130.72 122.25 130.8 122.61 130.8ZM130.333 132.084C129.685 132.084 129.101 131.944 128.581 131.664C128.061 131.384 127.653 130.996 127.357 130.5C127.069 129.996 126.925 129.428 126.925 128.796C126.925 128.164 127.069 127.6 127.357 127.104C127.653 126.608 128.061 126.22 128.581 125.94C129.101 125.66 129.685 125.52 130.333 125.52C130.989 125.52 131.577 125.66 132.097 125.94C132.617 126.22 133.021 126.608 133.309 127.104C133.605 127.6 133.753 128.164 133.753 128.796C133.753 129.428 133.605 129.996 133.309 130.5C133.021 130.996 132.617 131.384 132.097 131.664C131.577 131.944 130.989 132.084 130.333 132.084ZM130.333 130.8C130.885 130.8 131.341 130.616 131.701 130.248C132.061 129.88 132.241 129.396 132.241 128.796C132.241 128.196 132.061 127.712 131.701 127.344C131.341 126.976 130.885 126.792 130.333 126.792C129.781 126.792 129.325 126.976 128.965 127.344C128.613 127.712 128.437 128.196 128.437 128.796C128.437 129.396 128.613 129.88 128.965 130.248C129.325 130.616 129.781 130.8 130.333 130.8ZM136.615 126.528C137.047 125.856 137.807 125.52 138.895 125.52V126.948C138.767 126.924 138.651 126.912 138.547 126.912C137.963 126.912 137.507 127.084 137.179 127.428C136.851 127.764 136.687 128.252 136.687 128.892V132H135.187V125.592H136.615V126.528ZM144.254 131.652C144.078 131.796 143.862 131.904 143.606 131.976C143.358 132.048 143.094 132.084 142.814 132.084C142.11 132.084 141.566 131.9 141.182 131.532C140.798 131.164 140.606 130.628 140.606 129.924V126.84H139.55V125.64H140.606V124.176H142.106V125.64H143.822V126.84H142.106V129.888C142.106 130.2 142.182 130.44 142.334 130.608C142.486 130.768 142.706 130.848 142.994 130.848C143.33 130.848 143.61 130.76 143.834 130.584L144.254 131.652ZM146.085 132.084C145.813 132.084 145.581 131.992 145.389 131.808C145.197 131.616 145.101 131.376 145.101 131.088C145.101 130.792 145.193 130.552 145.377 130.368C145.569 130.184 145.805 130.092 146.085 130.092C146.365 130.092 146.597 130.184 146.781 130.368C146.973 130.552 147.069 130.792 147.069 131.088C147.069 131.376 146.973 131.616 146.781 131.808C146.589 131.992 146.357 132.084 146.085 132.084ZM152.087 125.52C152.711 125.52 153.267 125.656 153.755 125.928C154.251 126.2 154.639 126.584 154.919 127.08C155.199 127.576 155.339 128.148 155.339 128.796C155.339 129.444 155.199 130.02 154.919 130.524C154.639 131.02 154.251 131.404 153.755 131.676C153.267 131.948 152.711 132.084 152.087 132.084C151.223 132.084 150.539 131.796 150.035 131.22V134.328H148.535V125.592H149.963V126.432C150.211 126.128 150.515 125.9 150.875 125.748C151.243 125.596 151.647 125.52 152.087 125.52ZM151.919 130.8C152.471 130.8 152.923 130.616 153.275 130.248C153.635 129.88 153.815 129.396 153.815 128.796C153.815 128.196 153.635 127.712 153.275 127.344C152.923 126.976 152.471 126.792 151.919 126.792C151.559 126.792 151.235 126.876 150.947 127.044C150.659 127.204 150.431 127.436 150.263 127.74C150.095 128.044 150.011 128.396 150.011 128.796C150.011 129.196 150.095 129.548 150.263 129.852C150.431 130.156 150.659 130.392 150.947 130.56C151.235 130.72 151.559 130.8 151.919 130.8ZM163.037 123.096V132H161.597V131.172C161.349 131.476 161.041 131.704 160.673 131.856C160.313 132.008 159.913 132.084 159.473 132.084C158.857 132.084 158.301 131.948 157.805 131.676C157.317 131.404 156.933 131.02 156.653 130.524C156.373 130.02 156.233 129.444 156.233 128.796C156.233 128.148 156.373 127.576 156.653 127.08C156.933 126.584 157.317 126.2 157.805 125.928C158.301 125.656 158.857 125.52 159.473 125.52C159.897 125.52 160.285 125.592 160.637 125.736C160.989 125.88 161.289 126.096 161.537 126.384V123.096H163.037ZM159.653 130.8C160.013 130.8 160.337 130.72 160.625 130.56C160.913 130.392 161.141 130.156 161.309 129.852C161.477 129.548 161.561 129.196 161.561 128.796C161.561 128.396 161.477 128.044 161.309 127.74C161.141 127.436 160.913 127.204 160.625 127.044C160.337 126.876 160.013 126.792 159.653 126.792C159.293 126.792 158.969 126.876 158.681 127.044C158.393 127.204 158.165 127.436 157.997 127.74C157.829 128.044 157.745 128.396 157.745 128.796C157.745 129.196 157.829 129.548 157.997 129.852C158.165 130.156 158.393 130.392 158.681 130.56C158.969 130.72 159.293 130.8 159.653 130.8ZM167.604 124.224C166.972 124.224 166.656 124.568 166.656 125.256V125.64H168.42V126.84H166.704V132H165.204V126.84H164.148V125.64H165.204V125.232C165.204 124.544 165.404 124.004 165.804 123.612C166.204 123.212 166.768 123.012 167.496 123.012C168.072 123.012 168.524 123.128 168.852 123.36L168.432 124.488C168.176 124.312 167.9 124.224 167.604 124.224Z" fill="#121212"></path>
  <path d="M40 158V148L30 158H40Z" fill="#E2E2E9"></path>
  <path d="M232 186C232 181.582 235.582 178 240 178H382C386.418 178 390 181.582 390 186V216H240C235.582 216 232 212.418 232 208V186Z" fill="#AA90F4"></path>
  <path d="M251.284 196.8H252.136V200.004C251.744 200.348 251.28 200.612 250.744 200.796C250.208 200.98 249.644 201.072 249.052 201.072C248.212 201.072 247.456 200.888 246.784 200.52C246.112 200.152 245.584 199.644 245.2 198.996C244.816 198.34 244.624 197.608 244.624 196.8C244.624 195.992 244.816 195.264 245.2 194.616C245.584 193.96 246.112 193.448 246.784 193.08C247.456 192.712 248.216 192.528 249.064 192.528C249.704 192.528 250.292 192.632 250.828 192.84C251.364 193.04 251.816 193.34 252.184 193.74L251.632 194.304C250.968 193.648 250.124 193.32 249.1 193.32C248.42 193.32 247.804 193.472 247.252 193.776C246.708 194.072 246.28 194.488 245.968 195.024C245.656 195.552 245.5 196.144 245.5 196.8C245.5 197.456 245.656 198.048 245.968 198.576C246.28 199.104 246.708 199.52 247.252 199.824C247.796 200.128 248.408 200.28 249.088 200.28C249.952 200.28 250.684 200.064 251.284 199.632V196.8ZM255.285 195.924C255.485 195.5 255.781 195.18 256.173 194.964C256.573 194.748 257.065 194.64 257.649 194.64V195.468L257.445 195.456C256.781 195.456 256.261 195.66 255.885 196.068C255.509 196.476 255.321 197.048 255.321 197.784V201H254.469V194.688H255.285V195.924ZM264.629 198.108H259.349C259.397 198.764 259.649 199.296 260.105 199.704C260.561 200.104 261.137 200.304 261.833 200.304C262.225 200.304 262.585 200.236 262.913 200.1C263.241 199.956 263.525 199.748 263.765 199.476L264.245 200.028C263.965 200.364 263.613 200.62 263.189 200.796C262.773 200.972 262.313 201.06 261.809 201.06C261.161 201.06 260.585 200.924 260.081 200.652C259.585 200.372 259.197 199.988 258.917 199.5C258.637 199.012 258.497 198.46 258.497 197.844C258.497 197.228 258.629 196.676 258.893 196.188C259.165 195.7 259.533 195.32 259.997 195.048C260.469 194.776 260.997 194.64 261.581 194.64C262.165 194.64 262.689 194.776 263.153 195.048C263.617 195.32 263.981 195.7 264.245 196.188C264.509 196.668 264.641 197.22 264.641 197.844L264.629 198.108ZM261.581 195.372C260.973 195.372 260.461 195.568 260.045 195.96C259.637 196.344 259.405 196.848 259.349 197.472H263.825C263.769 196.848 263.533 196.344 263.117 195.96C262.709 195.568 262.197 195.372 261.581 195.372ZM268.408 194.64C269.232 194.64 269.864 194.848 270.304 195.264C270.744 195.672 270.964 196.28 270.964 197.088V201H270.148V200.016C269.956 200.344 269.672 200.6 269.296 200.784C268.928 200.968 268.488 201.06 267.976 201.06C267.272 201.06 266.712 200.892 266.296 200.556C265.88 200.22 265.672 199.776 265.672 199.224C265.672 198.688 265.864 198.256 266.248 197.928C266.64 197.6 267.26 197.436 268.108 197.436H270.112V197.052C270.112 196.508 269.96 196.096 269.656 195.816C269.352 195.528 268.908 195.384 268.324 195.384C267.924 195.384 267.54 195.452 267.172 195.588C266.804 195.716 266.488 195.896 266.224 196.128L265.84 195.492C266.16 195.22 266.544 195.012 266.992 194.868C267.44 194.716 267.912 194.64 268.408 194.64ZM268.108 200.388C268.588 200.388 269 200.28 269.344 200.064C269.688 199.84 269.944 199.52 270.112 199.104V198.072H268.132C267.052 198.072 266.512 198.448 266.512 199.2C266.512 199.568 266.652 199.86 266.932 200.076C267.212 200.284 267.604 200.388 268.108 200.388ZM276.602 200.616C276.442 200.76 276.242 200.872 276.002 200.952C275.77 201.024 275.526 201.06 275.27 201.06C274.678 201.06 274.222 200.9 273.902 200.58C273.582 200.26 273.422 199.808 273.422 199.224V195.408H272.294V194.688H273.422V193.308H274.274V194.688H276.194V195.408H274.274V199.176C274.274 199.552 274.366 199.84 274.55 200.04C274.742 200.232 275.014 200.328 275.366 200.328C275.542 200.328 275.71 200.3 275.87 200.244C276.038 200.188 276.182 200.108 276.302 200.004L276.602 200.616ZM280.357 203.388C280.093 203.388 279.845 203.352 279.613 203.28C279.373 203.216 279.177 203.116 279.025 202.98L279.325 202.332C279.573 202.548 279.901 202.656 280.309 202.656C280.645 202.656 280.901 202.556 281.077 202.356C281.261 202.156 281.353 201.86 281.353 201.468V194.688H282.205V201.468C282.205 202.06 282.045 202.528 281.725 202.872C281.405 203.216 280.949 203.388 280.357 203.388ZM281.785 193.296C281.609 193.296 281.461 193.236 281.341 193.116C281.221 192.996 281.161 192.852 281.161 192.684C281.161 192.524 281.221 192.384 281.341 192.264C281.461 192.144 281.609 192.084 281.785 192.084C281.961 192.084 282.109 192.144 282.229 192.264C282.349 192.376 282.409 192.512 282.409 192.672C282.409 192.848 282.349 192.996 282.229 193.116C282.109 193.236 281.961 193.296 281.785 193.296ZM287.166 201.06C286.558 201.06 286.01 200.924 285.522 200.652C285.034 200.372 284.65 199.988 284.37 199.5C284.09 199.012 283.95 198.46 283.95 197.844C283.95 197.228 284.09 196.676 284.37 196.188C284.65 195.7 285.034 195.32 285.522 195.048C286.01 194.776 286.558 194.64 287.166 194.64C287.774 194.64 288.322 194.776 288.81 195.048C289.298 195.32 289.678 195.7 289.95 196.188C290.23 196.676 290.37 197.228 290.37 197.844C290.37 198.46 290.23 199.012 289.95 199.5C289.678 199.988 289.298 200.372 288.81 200.652C288.322 200.924 287.774 201.06 287.166 201.06ZM287.166 200.304C287.614 200.304 288.014 200.204 288.366 200.004C288.726 199.796 289.006 199.504 289.206 199.128C289.406 198.752 289.506 198.324 289.506 197.844C289.506 197.364 289.406 196.936 289.206 196.56C289.006 196.184 288.726 195.896 288.366 195.696C288.014 195.488 287.614 195.384 287.166 195.384C286.718 195.384 286.314 195.488 285.954 195.696C285.602 195.896 285.322 196.184 285.114 196.56C284.914 196.936 284.814 197.364 284.814 197.844C284.814 198.324 284.914 198.752 285.114 199.128C285.322 199.504 285.602 199.796 285.954 200.004C286.314 200.204 286.718 200.304 287.166 200.304ZM295.362 194.64C295.954 194.64 296.49 194.776 296.97 195.048C297.45 195.312 297.826 195.688 298.098 196.176C298.37 196.664 298.506 197.22 298.506 197.844C298.506 198.468 298.37 199.024 298.098 199.512C297.826 200 297.45 200.38 296.97 200.652C296.49 200.924 295.954 201.06 295.362 201.06C294.834 201.06 294.358 200.948 293.934 200.724C293.518 200.5 293.182 200.176 292.926 199.752V201H292.11V192.096H292.962V195.888C293.226 195.48 293.562 195.172 293.97 194.964C294.386 194.748 294.85 194.64 295.362 194.64ZM295.302 200.304C295.742 200.304 296.142 200.204 296.502 200.004C296.862 199.796 297.142 199.504 297.342 199.128C297.55 198.752 297.654 198.324 297.654 197.844C297.654 197.364 297.55 196.936 297.342 196.56C297.142 196.184 296.862 195.896 296.502 195.696C296.142 195.488 295.742 195.384 295.302 195.384C294.854 195.384 294.45 195.488 294.09 195.696C293.738 195.896 293.458 196.184 293.25 196.56C293.05 196.936 292.95 197.364 292.95 197.844C292.95 198.324 293.05 198.752 293.25 199.128C293.458 199.504 293.738 199.796 294.09 200.004C294.45 200.204 294.854 200.304 295.302 200.304ZM300.163 199.752C300.347 199.752 300.499 199.816 300.619 199.944C300.739 200.064 300.799 200.216 300.799 200.4C300.799 200.496 300.783 200.6 300.751 200.712C300.727 200.824 300.687 200.952 300.631 201.096L300.127 202.752H299.551L299.959 201.012C299.831 200.972 299.727 200.9 299.647 200.796C299.567 200.684 299.527 200.552 299.527 200.4C299.527 200.216 299.587 200.064 299.707 199.944C299.827 199.816 299.979 199.752 300.163 199.752ZM309.075 200.616C308.915 200.76 308.715 200.872 308.475 200.952C308.243 201.024 307.999 201.06 307.743 201.06C307.151 201.06 306.695 200.9 306.375 200.58C306.055 200.26 305.895 199.808 305.895 199.224V195.408H304.767V194.688H305.895V193.308H306.747V194.688H308.667V195.408H306.747V199.176C306.747 199.552 306.839 199.84 307.023 200.04C307.215 200.232 307.487 200.328 307.839 200.328C308.015 200.328 308.183 200.3 308.343 200.244C308.511 200.188 308.655 200.108 308.775 200.004L309.075 200.616ZM313.842 194.64C314.634 194.64 315.262 194.872 315.726 195.336C316.198 195.792 316.434 196.46 316.434 197.34V201H315.582V197.424C315.582 196.768 315.418 196.268 315.09 195.924C314.762 195.58 314.294 195.408 313.686 195.408C313.006 195.408 312.466 195.612 312.066 196.02C311.674 196.42 311.478 196.976 311.478 197.688V201H310.626V192.096H311.478V195.792C311.71 195.424 312.03 195.14 312.438 194.94C312.846 194.74 313.314 194.64 313.842 194.64ZM320.955 194.64C321.779 194.64 322.411 194.848 322.851 195.264C323.291 195.672 323.511 196.28 323.511 197.088V201H322.695V200.016C322.503 200.344 322.219 200.6 321.843 200.784C321.475 200.968 321.035 201.06 320.523 201.06C319.819 201.06 319.259 200.892 318.843 200.556C318.427 200.22 318.219 199.776 318.219 199.224C318.219 198.688 318.411 198.256 318.795 197.928C319.187 197.6 319.807 197.436 320.655 197.436H322.659V197.052C322.659 196.508 322.507 196.096 322.203 195.816C321.899 195.528 321.455 195.384 320.871 195.384C320.471 195.384 320.087 195.452 319.719 195.588C319.351 195.716 319.035 195.896 318.771 196.128L318.387 195.492C318.707 195.22 319.091 195.012 319.539 194.868C319.987 194.716 320.459 194.64 320.955 194.64ZM320.655 200.388C321.135 200.388 321.547 200.28 321.891 200.064C322.235 199.84 322.491 199.52 322.659 199.104V198.072H320.679C319.599 198.072 319.059 198.448 319.059 199.2C319.059 199.568 319.199 199.86 319.479 200.076C319.759 200.284 320.151 200.388 320.655 200.388ZM329.041 194.64C329.833 194.64 330.461 194.872 330.925 195.336C331.397 195.792 331.633 196.46 331.633 197.34V201H330.781V197.424C330.781 196.768 330.617 196.268 330.289 195.924C329.961 195.58 329.493 195.408 328.885 195.408C328.205 195.408 327.665 195.612 327.265 196.02C326.873 196.42 326.677 196.976 326.677 197.688V201H325.825V194.688H326.641V195.852C326.873 195.468 327.193 195.172 327.601 194.964C328.017 194.748 328.497 194.64 329.041 194.64ZM336.286 197.832L334.798 199.2V201H333.946V192.096H334.798V198.132L338.566 194.688H339.622L336.922 197.268L339.874 201H338.83L336.286 197.832ZM342.657 201.06C342.145 201.06 341.653 200.988 341.181 200.844C340.717 200.692 340.353 200.504 340.089 200.28L340.473 199.608C340.737 199.816 341.069 199.988 341.469 200.124C341.869 200.252 342.285 200.316 342.717 200.316C343.293 200.316 343.717 200.228 343.989 200.052C344.269 199.868 344.409 199.612 344.409 199.284C344.409 199.052 344.333 198.872 344.181 198.744C344.029 198.608 343.837 198.508 343.605 198.444C343.373 198.372 343.065 198.304 342.681 198.24C342.169 198.144 341.757 198.048 341.445 197.952C341.133 197.848 340.865 197.676 340.641 197.436C340.425 197.196 340.317 196.864 340.317 196.44C340.317 195.912 340.537 195.48 340.977 195.144C341.417 194.808 342.029 194.64 342.813 194.64C343.221 194.64 343.629 194.696 344.037 194.808C344.445 194.912 344.781 195.052 345.045 195.228L344.673 195.912C344.153 195.552 343.533 195.372 342.813 195.372C342.269 195.372 341.857 195.468 341.577 195.66C341.305 195.852 341.169 196.104 341.169 196.416C341.169 196.656 341.245 196.848 341.397 196.992C341.557 197.136 341.753 197.244 341.985 197.316C342.217 197.38 342.537 197.448 342.945 197.52C343.449 197.616 343.853 197.712 344.157 197.808C344.461 197.904 344.721 198.068 344.937 198.3C345.153 198.532 345.261 198.852 345.261 199.26C345.261 199.812 345.029 200.252 344.565 200.58C344.109 200.9 343.473 201.06 342.657 201.06ZM352.185 194.64C353.009 194.64 353.641 194.848 354.081 195.264C354.521 195.672 354.741 196.28 354.741 197.088V201H353.925V200.016C353.733 200.344 353.449 200.6 353.073 200.784C352.705 200.968 352.265 201.06 351.753 201.06C351.049 201.06 350.489 200.892 350.073 200.556C349.657 200.22 349.449 199.776 349.449 199.224C349.449 198.688 349.641 198.256 350.025 197.928C350.417 197.6 351.037 197.436 351.885 197.436H353.889V197.052C353.889 196.508 353.737 196.096 353.433 195.816C353.129 195.528 352.685 195.384 352.101 195.384C351.701 195.384 351.317 195.452 350.949 195.588C350.581 195.716 350.265 195.896 350.001 196.128L349.617 195.492C349.937 195.22 350.321 195.012 350.769 194.868C351.217 194.716 351.689 194.64 352.185 194.64ZM351.885 200.388C352.365 200.388 352.777 200.28 353.121 200.064C353.465 199.84 353.721 199.52 353.889 199.104V198.072H351.909C350.829 198.072 350.289 198.448 350.289 199.2C350.289 199.568 350.429 199.86 350.709 200.076C350.989 200.284 351.381 200.388 351.885 200.388ZM360.196 192.096H361.048V201H360.196V192.096ZM365.998 201.06C365.39 201.06 364.842 200.924 364.354 200.652C363.866 200.372 363.482 199.988 363.202 199.5C362.922 199.012 362.782 198.46 362.782 197.844C362.782 197.228 362.922 196.676 363.202 196.188C363.482 195.7 363.866 195.32 364.354 195.048C364.842 194.776 365.39 194.64 365.998 194.64C366.606 194.64 367.154 194.776 367.642 195.048C368.13 195.32 368.51 195.7 368.782 196.188C369.062 196.676 369.202 197.228 369.202 197.844C369.202 198.46 369.062 199.012 368.782 199.5C368.51 199.988 368.13 200.372 367.642 200.652C367.154 200.924 366.606 201.06 365.998 201.06ZM365.998 200.304C366.446 200.304 366.846 200.204 367.198 200.004C367.558 199.796 367.838 199.504 368.038 199.128C368.238 198.752 368.338 198.324 368.338 197.844C368.338 197.364 368.238 196.936 368.038 196.56C367.838 196.184 367.558 195.896 367.198 195.696C366.846 195.488 366.446 195.384 365.998 195.384C365.55 195.384 365.146 195.488 364.786 195.696C364.434 195.896 364.154 196.184 363.946 196.56C363.746 196.936 363.646 197.364 363.646 197.844C363.646 198.324 363.746 198.752 363.946 199.128C364.154 199.504 364.434 199.796 364.786 200.004C365.146 200.204 365.55 200.304 365.998 200.304ZM374.266 200.616C374.106 200.76 373.906 200.872 373.666 200.952C373.434 201.024 373.19 201.06 372.934 201.06C372.342 201.06 371.886 200.9 371.566 200.58C371.246 200.26 371.086 199.808 371.086 199.224V195.408H369.958V194.688H371.086V193.308H371.938V194.688H373.858V195.408H371.938V199.176C371.938 199.552 372.03 199.84 372.214 200.04C372.406 200.232 372.678 200.328 373.03 200.328C373.206 200.328 373.374 200.3 373.534 200.244C373.702 200.188 373.846 200.108 373.966 200.004L374.266 200.616ZM375.685 192.6H376.693L376.513 198.48H375.853L375.685 192.6ZM376.189 201.06C376.013 201.06 375.861 201 375.733 200.88C375.613 200.752 375.553 200.604 375.553 200.436C375.553 200.26 375.613 200.116 375.733 200.004C375.853 199.884 376.005 199.824 376.189 199.824C376.365 199.824 376.513 199.884 376.633 200.004C376.753 200.116 376.813 200.26 376.813 200.436C376.813 200.604 376.753 200.752 376.633 200.88C376.513 201 376.365 201.06 376.189 201.06Z" fill="#121212"></path>
  <path d="M390 216H400L390 206V216Z" fill="#AA90F4"></path>
  <defs>
    <linearGradient id="paint0_linear_1013_3609" x1="-6.4075e-06" y1="256" x2="465.025" y2="118.173" gradientUnits="userSpaceOnUse">
      <stop stop-color="white" stop-opacity="0"></stop>
      <stop offset="1" stop-color="white" stop-opacity="0.1"></stop>
    </linearGradient>
    <linearGradient id="paint1_linear_1013_3609" x1="215" y1="0" x2="215" y2="256" gradientUnits="userSpaceOnUse">
      <stop stop-color="#D8D7F4"></stop>
      <stop offset="1" stop-color="#FFEDF7"></stop>
    </linearGradient>
  </defs>
</svg>
