<?xml version="1.0" encoding="UTF-8"?>
<svg xmlns="http://www.w3.org/2000/svg" width="153" height="40" viewBox="0 0 153 40" fill="none">
  <g id="Samsung 1">
    <path id="Vector" d="M15.1978 15.4104C15.1004 15.0269 15.1247 14.6435 15.1734 14.4278C15.2952 13.8286 15.7093 13.1815 16.9027 13.1815C18.023 13.1815 18.6562 13.8526 18.6562 14.8831C18.6562 15.2187 18.6562 16.0335 18.6562 16.0335H23.3812V14.7154C23.3812 10.6651 19.6548 10.018 16.9757 10.018C13.6391 9.99399 10.8869 11.0964 10.3754 14.1402C10.2293 14.979 10.205 15.722 10.4242 16.6567C11.2522 20.4673 17.9987 21.5698 18.9729 23.9904C19.1677 24.4458 19.0946 25.021 19.0216 25.3805C18.8754 26.0036 18.4371 26.6507 17.1706 26.6507C15.9772 26.6507 15.2709 25.9796 15.2709 24.9491V23.1516H10.1562V24.5896C10.1562 28.7597 13.4929 30.006 17.0488 30.006C20.4829 30.006 23.2838 28.8556 23.7465 25.7399C23.9657 24.1342 23.7952 23.0797 23.7222 22.6962C22.9428 18.7417 15.7336 17.5914 15.1978 15.4104ZM76.8898 15.4583C76.8167 15.0988 76.8411 14.6914 76.8654 14.4997C77.0115 13.9005 77.4012 13.2534 78.5946 13.2534C79.6906 13.2534 80.3239 13.9245 80.3239 14.9311C80.3239 15.2666 80.3239 16.0815 80.3239 16.0815H85.0001V14.7873C85.0001 10.7609 81.3468 10.1378 78.6921 10.1378C75.3554 10.1378 72.6276 11.2163 72.1161 14.2361C71.9944 15.0509 71.9456 15.7939 72.1648 16.7286C72.9686 20.4673 79.6419 21.5698 80.6161 23.9664C80.7866 24.4218 80.7379 24.997 80.6405 25.3325C80.4944 25.9556 80.0803 26.5788 78.8138 26.5788C77.6448 26.5788 76.9141 25.9077 76.9141 24.9011V23.1036H71.8726V24.5177C71.8726 28.6399 75.1605 29.8861 78.6921 29.8861C82.0774 29.8861 84.8783 28.7358 85.3167 25.668C85.5359 24.0623 85.3654 23.0317 85.2924 22.6483C84.5373 18.7657 77.4256 17.6153 76.8898 15.4583ZM119.95 25.6201L115.493 10.5932H108.454V29.0713H113.106L112.838 13.565L117.636 29.0713H124.383V10.5932H119.706L119.95 25.6201ZM30.4686 10.5932L26.9614 29.263H32.076L34.7307 11.9832L37.3124 29.263H42.4027L38.8955 10.5932H30.4686ZM59.1104 10.5932L56.7236 25.1887L54.3368 10.5932H46.5918L46.1777 29.263H50.927L51.0488 11.9832L54.3124 29.263H59.1104L62.3984 11.9832L62.5201 29.263H67.2694L66.8554 10.5932H59.1104ZM103.193 10.5932H98.3955V24.3978C98.3955 24.6375 98.3955 24.9011 98.3468 25.1168C98.2494 25.5722 97.8597 26.4829 96.5201 26.4829C95.2049 26.4829 94.8153 25.5962 94.7178 25.1168C94.6691 24.9251 94.6691 24.6375 94.6691 24.3978V10.5932H89.8711V23.9664C89.8711 24.302 89.8955 25.021 89.9199 25.1887C90.2608 28.6639 93.0373 29.8142 96.5201 29.8142C100.003 29.8142 102.804 28.6878 103.145 25.1887C103.169 24.997 103.218 24.302 103.193 23.9664V10.5932ZM136.122 18.7897V21.5219H138.07V24.2061C138.07 24.4458 138.07 24.7094 138.022 24.9251C137.949 25.4284 137.461 26.2912 136.073 26.2912C134.709 26.2912 134.222 25.4284 134.149 24.9251C134.125 24.7094 134.1 24.4458 134.1 24.2061V15.674C134.1 15.3625 134.125 15.0509 134.198 14.7873C134.295 14.3319 134.709 13.4452 136.073 13.4452C137.534 13.4452 137.875 14.3799 137.973 14.7873C138.022 15.0509 138.022 15.5063 138.022 15.5063V16.5368H142.795V15.9137C142.795 15.9137 142.82 15.2666 142.771 14.6675C142.406 11.1683 139.483 10.0659 136.122 10.0659C132.761 10.0659 129.887 11.1923 129.473 14.6675C129.424 14.979 129.375 15.5542 129.375 15.9137V23.7507C129.375 24.0863 129.375 24.3499 129.449 24.973C129.765 28.3763 132.761 29.5746 136.122 29.5746C139.507 29.5746 142.479 28.3763 142.795 24.973C142.844 24.3499 142.868 24.0863 142.868 23.7507V18.7897H136.122Z" fill="white"></path>
  </g>
</svg>
