<svg width="435" height="435" viewBox="0 0 435 435" fill="none" xmlns="http://www.w3.org/2000/svg">
<path d="M83.873 181.301L83.8731 277.716" stroke="black" stroke-width="0.71" stroke-miterlimit="2.6131" stroke-linecap="round" stroke-linejoin="round" stroke-dasharray="3.32 3.32"/>
<path d="M74.7324 195.959L74.7324 263.058" stroke="black" stroke-width="0.71" stroke-miterlimit="2.6131" stroke-linecap="round" stroke-linejoin="round" stroke-dasharray="3.32 3.32"/>
<path d="M355.488 181.301L355.488 277.716" stroke="black" stroke-width="0.71" stroke-miterlimit="2.6131" stroke-linecap="round" stroke-linejoin="round" stroke-dasharray="3.32 3.32"/>
<path d="M364.633 195.959L364.633 263.058" stroke="black" stroke-width="0.71" stroke-miterlimit="2.6131" stroke-linecap="round" stroke-linejoin="round" stroke-dasharray="3.32 3.32"/>
<path d="M63.4695 222.267L57.9341 224.108C57.4069 224.372 57.1433 224.635 57.1433 225.161L55.2982 230.686L53.4531 225.161C53.1895 224.635 52.9259 224.372 52.6623 224.108L47.127 222.267L52.6623 220.425C53.1895 220.162 53.4531 219.899 53.4531 219.373L55.2982 213.847L57.1433 219.373C57.4069 219.899 57.6705 220.162 57.9341 220.425L63.4695 222.267Z" fill="#3C39C6"/>
<path d="M47.713 213.266L42.2078 214.861C41.8527 215.039 41.4975 215.393 41.3199 215.748L39.7216 221.243L37.9458 215.925C37.7682 215.57 37.413 215.216 37.0579 215.039L31.5527 213.443L37.0579 211.848C37.413 211.671 37.7682 211.316 37.9458 210.962L39.5441 205.467L41.1423 210.962C41.3199 211.316 41.6751 211.671 42.0302 211.848L47.713 213.266Z" stroke="black" stroke-width="0.71" stroke-miterlimit="10"/>
<path d="M340.234 56.9177L348.392 69.2913L363.06 71.5304L350.706 79.7009L348.47 94.3921L340.273 82.0185L325.645 79.7795L337.999 71.5697L340.234 56.9177Z" stroke="black" stroke-width="0.71"/>
<path d="M367.957 78.2532L370.649 85.2338L377.618 87.9297L370.649 90.5776L367.957 97.5582L365.265 90.5776L358.344 87.9297L365.265 85.2338L367.957 78.2532Z" fill="#3C39C6"/>
<path d="M334.996 287.895H104.372C98.818 287.895 94.3164 283.391 94.3164 277.837V133V127.713C94.3164 122.158 98.818 117.655 104.372 117.655H334.996C340.55 117.655 345.052 122.158 345.052 127.713V133V277.839C345.054 283.391 340.55 287.895 334.996 287.895Z" fill="white"/>
<path d="M94.3164 133V277.837C94.3164 283.391 98.818 287.895 104.372 287.895H334.996C340.55 287.895 345.054 283.391 345.052 277.839V133M94.3164 133V127.713C94.3164 122.158 98.818 117.655 104.372 117.655H334.996C340.55 117.655 345.052 122.158 345.052 127.713V133M94.3164 133H345.052" stroke="black" stroke-width="0.71"/>
<path d="M144.611 237.64C144.611 235.515 178.123 202.141 184.5 196C185.917 201.734 189.249 198.5 189.722 198.972L213.812 211.188C214.284 211.661 215.229 211.661 215.701 211.188L269.55 167.023C270.259 166.55 270.259 165.369 269.787 164.897L264.118 158.756C263.174 157.811 263.882 156.394 265.063 156.158L298.128 153.088C299.073 153.088 300.018 154.033 299.782 154.977L291.988 184.736C291.751 185.917 290.334 186.153 289.39 185.445L283.485 178.595C283.013 177.887 282.068 177.887 281.359 178.359L215.701 232.444C215.229 232.917 214.284 232.917 213.812 232.444L189.722 213.314C189.013 212.841 188.305 212.841 187.596 213.55L147.209 257.007C146.501 257.952 144.611 257.243 144.611 255.826V237.64Z" fill="#3C39C6"/>
<path d="M139.18 226.068C139.18 224.887 187.597 175.289 187.597 175.289L214.049 197.018L258.687 163.48" stroke="black" stroke-width="0.71" stroke-miterlimit="2.6131" stroke-linecap="round" stroke-linejoin="round" stroke-dasharray="2.83 2.83"/>
<path d="M94.3164 271.03V282.528C94.3164 285.492 98.818 287.894 104.372 287.894H334.996C340.55 287.894 345.052 285.491 345.052 282.528V271.03H94.3164Z" fill="#3C39C6" stroke="black" stroke-width="0.71"/>
<path d="M232.394 287.894H206.979V318.688H232.394V287.894Z" fill="white" stroke="black" stroke-width="0.71"/>
<path d="M266.606 330.083H172.764V321.564C172.764 318.988 177 316.901 182.223 316.901H257.146C262.372 316.901 266.606 318.989 266.606 321.564V330.083Z" fill="#3C39C6" stroke="black" stroke-width="0.71"/>
<path d="M58.819 145.923L59.1035 149.913L62.4833 152.397L58.1832 152.645L55.5061 155.781L55.2216 151.791L51.8418 149.307L56.1419 149.043L58.819 145.923Z" fill="#3C39C6"/>
<path d="M312.569 195.662H108.111V214.317H312.569V195.662Z" fill="white" stroke="black" stroke-width="0.71" stroke-miterlimit="10"/>
<path d="M331.261 195.662H312.57V214.317H331.261V195.662Z" fill="black" stroke="black" stroke-width="0.71" stroke-miterlimit="10"/>
<path d="M323.497 206.999C325.483 206.999 327.093 205.392 327.093 203.41C327.093 201.428 325.483 199.821 323.497 199.821C321.51 199.821 319.9 201.428 319.9 203.41C319.9 205.392 321.51 206.999 323.497 206.999Z" stroke="white" stroke-width="0.71" stroke-miterlimit="10"/>
<path d="M320.95 205.952L316.752 210.142" stroke="white" stroke-width="0.71" stroke-miterlimit="10"/>
<path d="M263.807 205.891C263.051 203.827 265.058 201.809 267.141 202.563L283.394 208.525L299.538 214.456C301.621 215.226 301.838 218.091 299.893 219.154L287.314 226.025L280.43 238.579C279.365 240.536 276.494 240.32 275.723 238.225L269.781 222.112L263.807 205.891Z" fill="#3C39C6" stroke="#3C39C6" stroke-width="0.71" stroke-miterlimit="10"/>
<path d="M266.03 184.355L268.654 194.861L276.201 187.082L273.222 197.48L283.64 194.507L275.846 202.039L286.372 204.658L275.846 207.292L283.64 214.81L273.222 211.837L276.201 222.25L268.654 214.471L266.03 224.962L263.391 214.471L255.859 222.25L258.838 211.837L248.404 214.81L256.198 207.292L245.688 204.658L256.198 202.039L248.404 194.507L258.838 197.48L255.859 187.082L263.391 194.861L266.03 184.355Z" fill="white" stroke="black" stroke-width="0.71" stroke-miterlimit="10"/>
<path fill-rule="evenodd" clip-rule="evenodd" d="M278.336 206.67L275.847 207.293L283.641 214.81L273.223 211.837L276.202 222.251L268.654 214.471L267.972 217.2L263.807 205.891C263.051 203.827 265.058 201.809 267.141 202.564L278.336 206.67Z" fill="#3C39C6"/>
<path d="M278.336 206.67L278.422 207.014L279.541 206.734L278.458 206.337L278.336 206.67ZM275.847 207.293L275.761 206.948L275.139 207.104L275.6 207.548L275.847 207.293ZM283.641 214.81L283.544 215.152L284.911 215.542L283.888 214.555L283.641 214.81ZM273.223 211.837L273.32 211.496L272.706 211.32L272.882 211.935L273.223 211.837ZM276.202 222.251L275.947 222.498L276.932 223.513L276.543 222.153L276.202 222.251ZM268.654 214.471L268.909 214.224L268.465 213.766L268.31 214.385L268.654 214.471ZM267.972 217.2L267.639 217.323L268.037 218.404L268.316 217.286L267.972 217.2ZM263.807 205.891L263.474 206.013L263.474 206.014L263.807 205.891ZM267.141 202.564L267.264 202.23L267.262 202.23L267.141 202.564ZM278.249 206.326L275.761 206.948L275.933 207.637L278.422 207.014L278.249 206.326ZM275.6 207.548L283.395 215.066L283.888 214.555L276.093 207.037L275.6 207.548ZM283.738 214.469L273.32 211.496L273.126 212.178L283.544 215.152L283.738 214.469ZM272.882 211.935L275.86 222.348L276.543 222.153L273.564 211.739L272.882 211.935ZM276.457 222.003L268.909 214.224L268.4 214.718L275.947 222.498L276.457 222.003ZM268.31 214.385L267.627 217.114L268.316 217.286L268.999 214.557L268.31 214.385ZM268.305 217.078L264.141 205.768L263.474 206.014L267.639 217.323L268.305 217.078ZM264.141 205.769C263.489 203.989 265.219 202.245 267.02 202.897L267.262 202.23C264.896 201.373 262.614 203.664 263.474 206.013L264.141 205.769ZM267.019 202.897L278.213 207.003L278.458 206.337L267.264 202.23L267.019 202.897Z" fill="white"/>
<path d="M139.48 142.278H138.875V169.284H139.48V142.278Z" fill="black"/>
<path d="M152.623 156.078V155.47H125.734V156.078H152.623Z" fill="black"/>
<path d="M129.889 146.019L129.461 146.449L148.474 165.545L148.902 165.115L129.889 146.019Z" fill="black"/>
<path d="M148.897 146.444L148.469 146.014L129.456 165.11L129.884 165.54L148.897 146.444Z" fill="black"/>
<path d="M139.181 158.19C140.506 158.19 141.58 157.111 141.58 155.781C141.58 154.451 140.506 153.372 139.181 153.372C137.857 153.372 136.783 154.451 136.783 155.781C136.783 157.111 137.857 158.19 139.181 158.19Z" fill="black"/>
<path d="M105.541 127.39C106.838 127.39 107.889 126.343 107.889 125.052C107.889 123.76 106.838 122.713 105.541 122.713C104.244 122.713 103.193 123.76 103.193 125.052C103.193 126.343 104.244 127.39 105.541 127.39Z" fill="black"/>
<path d="M113.648 127.39C114.945 127.39 115.996 126.343 115.996 125.052C115.996 123.76 114.945 122.713 113.648 122.713C112.352 122.713 111.301 123.76 111.301 125.052C111.301 126.343 112.352 127.39 113.648 127.39Z" fill="black"/>
<path d="M121.742 127.39C123.039 127.39 124.09 126.343 124.09 125.052C124.09 123.76 123.039 122.713 121.742 122.713C120.446 122.713 119.395 123.76 119.395 125.052C119.395 126.343 120.446 127.39 121.742 127.39Z" fill="black"/>
</svg>
