<svg width="199" height="199" viewBox="0 0 199 199" fill="none" xmlns="http://www.w3.org/2000/svg">
<path d="M140.319 197.214C140.437 197.371 140.66 197.401 140.816 197.283C140.972 197.165 141.003 196.942 140.885 196.786L140.319 197.214ZM99.217 142.96L140.319 197.214L140.885 196.786L99.783 142.531L99.217 142.96Z" fill="black"/>
<path d="M127.094 93.4238C127.094 126.815 99.2913 153.899 64.9746 153.899C30.6579 153.899 2.855 126.815 2.855 93.4238C2.855 60.0329 30.6579 32.9483 64.9746 32.9483C99.2913 32.9483 127.094 60.0329 127.094 93.4238Z" stroke="black" stroke-width="0.71"/>
<path d="M105.818 121.373H129.354C132.296 121.373 134.694 118.155 134.694 114.197V56.7598C134.694 55.4368 135.488 54.3678 136.473 54.3678H145.112C147.312 54.3678 149.203 52.6658 150.045 49.9364C150.888 47.1957 150.444 44.201 148.89 42.1085L121.36 5.09959C119.279 2.30203 115.89 2.29824 113.809 5.09959L86.2794 42.1085C84.7245 44.201 84.2808 47.2033 85.1235 49.9364C85.9662 52.6658 87.8567 54.3678 90.0567 54.3678H98.7001C99.6845 54.3678 100.482 55.4368 100.482 56.7598V114.197C100.482 118.155 102.876 121.373 105.818 121.373Z" fill="white" stroke="black" stroke-width="0.71"/>
<path d="M130.253 141.102H144.375C146.14 141.102 147.579 139.224 147.579 136.916V103.411C147.579 102.639 148.055 102.015 148.646 102.015H153.829C155.149 102.015 156.284 101.022 156.789 99.4304C157.295 97.8316 157.029 96.0847 156.096 94.8641L139.578 73.2755C138.33 71.6436 136.296 71.6414 135.048 73.2755L118.53 94.8641C117.597 96.0847 117.331 97.836 117.836 99.4304C118.342 101.022 119.476 102.015 120.796 102.015H125.982C126.573 102.015 127.052 102.639 127.052 103.411V136.916C127.052 139.224 128.488 141.102 130.253 141.102Z" fill="#4CBE9E"/>
<path d="M28.8051 183.699L19.8433 186.36C19.2656 186.655 18.6879 187.247 18.3983 187.838L15.7962 197L12.906 188.133C12.618 187.542 12.0386 186.952 11.4609 186.655L2.5 183.996L11.4609 181.335C12.0386 181.04 12.618 180.449 12.906 179.857L15.5081 170.695L18.1086 179.857C18.3983 180.449 18.976 181.04 19.5553 181.335L28.8051 183.699Z" fill="black"/>
<path d="M196.498 62.0381L187.537 64.6986C186.959 64.9937 186.381 65.5855 186.092 66.1772L183.49 75.339L180.599 66.4723C180.311 65.8805 179.732 65.2904 179.154 64.9937L170.193 62.3348L179.154 59.6743C179.732 59.3793 180.311 58.7875 180.599 58.1957L183.201 49.0339L185.802 58.1957C186.092 58.7875 186.669 59.3793 187.249 59.6743L196.498 62.0381Z" fill="black"/>
</svg>
