<?xml version="1.0" encoding="UTF-8"?>
<svg xmlns="http://www.w3.org/2000/svg" width="280" height="80" viewBox="0 0 280 80" fill="none">
  <g clip-path="url(#clip0_1150_6488)">
    <path d="M145.237 52.7455C144.667 53.3237 143.681 53.6916 142.644 53.6916C141.244 53.6916 140.104 52.4302 140.104 50.6432V37.1881H145.963V32.0373H140.104V24.8368H134.193V51.4315C134.193 55.8465 137.2 59 141.504 59C143.526 59 145.652 58.1591 147.104 56.8976L145.237 52.7455ZM12.4444 42.4965C8.45185 41.2877 6.84444 40.8147 6.84444 39.0802C6.84444 37.2407 8.65926 36.1895 10.9926 36.1895C13.3778 36.1895 16.0741 37.1881 18.5111 38.7649L20.8963 34.5602C18.0963 32.668 14.5185 31.4066 10.9926 31.4066C5.18519 31.4592 1.19259 34.823 1.19259 39.7109C1.19259 44.4938 4.77037 46.0705 10.3704 47.5947C13.4815 48.4357 15.9185 49.1189 15.9185 51.2213C15.9185 53.0609 14.2593 54.2171 11.5111 54.2171C8.65926 54.2171 5.39259 53.0609 2.59259 51.0111L0 55.1106C3.11111 57.6335 7.41481 59.0526 11.4074 59.0526C17.4222 59.0526 21.6222 55.7939 21.6222 50.6957C21.6222 45.2296 16.8519 43.758 12.4444 42.4965ZM103.756 28.0954C105.674 28.0954 107.178 26.4136 107.178 24.5214C107.178 22.6293 105.674 21 103.756 21C101.785 21 100.23 22.6293 100.23 24.5214C100.23 26.4136 101.785 28.0954 103.756 28.0954ZM106.815 32.0373H100.696V58.3693H106.815V32.0373ZM95.3037 22.787H89.1852V58.4218H95.3037V22.787ZM82.3926 53.7441C80.9926 53.7441 79.8519 52.4827 79.8519 50.6957V37.1881H85.7111V32.0373H79.8519V24.8368H76.4815C76.4815 26.6763 75.9111 28.3582 74.9778 29.6196C73.9407 31.0387 72.3852 31.9848 70.6741 31.9848H69.8444L68.9111 37.2407H73.8889V51.4841C73.8889 55.899 76.8963 59.0526 81.2 59.0526C83.2222 59.0526 85.3481 58.2116 86.8 56.9502L85.037 52.7455C84.4148 53.3237 83.4296 53.7441 82.3926 53.7441ZM59.3185 37.6086V32.0373H53.2V58.3693H59.3185V45.6501C59.3185 40.657 62.1704 37.2407 67.1481 37.2407L68.1333 32.0373C62.5333 31.9848 60.9778 34.1923 59.3185 37.6086ZM36.7111 31.4592C29.037 31.4592 22.7111 37.6086 22.7111 45.2296C22.7111 52.8506 28.9852 59.0526 36.7111 59.0526C44.3333 59.0526 50.6074 52.8506 50.6074 45.2296C50.6074 37.6086 44.3333 31.4592 36.7111 31.4592ZM36.7111 53.7441C32.3556 53.7441 28.7778 49.9073 28.7778 45.2296C28.7778 40.5519 32.3556 36.7676 36.7111 36.7676C41.0148 36.7676 44.5407 40.5519 44.5407 45.2296C44.5407 49.9073 41.0148 53.7441 36.7111 53.7441ZM122.474 42.4965C118.481 41.2877 116.874 40.8147 116.874 39.0802C116.874 37.2407 118.689 36.1895 121.022 36.1895C123.407 36.1895 126.104 37.1881 128.541 38.7649L130.926 34.5602C128.126 32.668 124.548 31.4066 121.022 31.4066C115.215 31.4066 111.222 34.7704 111.222 39.6584C111.222 44.4412 114.8 46.018 120.4 47.5422C123.511 48.3831 125.948 49.0664 125.948 51.1687C125.948 53.0083 124.289 54.1646 121.541 54.1646C118.689 54.1646 115.422 53.0083 112.622 50.9585L110.03 55.0581C113.141 57.5809 117.444 59 121.437 59C127.452 59 131.652 55.7414 131.652 50.6432C131.652 45.2296 126.881 43.758 122.474 42.4965Z" fill="white"></path>
  </g>
  <defs>
    <clipPath id="clip0_1150_6488">
      <rect width="147" height="38" fill="white" transform="translate(0 21)"></rect>
    </clipPath>
  </defs>
</svg>
