<svg width="199" height="199" viewBox="0 0 199 199" fill="none" xmlns="http://www.w3.org/2000/svg">
<mask id="path-1-inside-1_386_195" fill="white">
<path d="M21.0566 69C21.0566 67.3431 22.3998 66 24.0566 66H175.944C177.601 66 178.944 67.3431 178.944 69V162.511H21.0566V69Z"/>
</mask>
<path d="M20.3466 69C20.3466 66.951 22.0077 65.29 24.0566 65.29H175.944C177.993 65.29 179.654 66.951 179.654 69L178.234 69C178.234 67.7353 177.209 66.71 175.944 66.71H24.0566C22.7919 66.71 21.7666 67.7353 21.7666 69L20.3466 69ZM178.944 162.511H21.0566H178.944ZM20.3466 162.511V69C20.3466 66.951 22.0077 65.29 24.0566 65.29L24.0566 66.71C22.7919 66.71 21.7666 67.7353 21.7666 69V162.511H20.3466ZM175.944 65.29C177.993 65.29 179.654 66.951 179.654 69V162.511H178.234V69C178.234 67.7353 177.209 66.71 175.944 66.71L175.944 65.29Z" fill="black" mask="url(#path-1-inside-1_386_195)"/>
<path d="M30.084 74.3975H169.915C170.271 74.3975 170.56 74.6863 170.56 75.0425V154.113H29.439V75.0425C29.439 74.6863 29.7278 74.3975 30.084 74.3975Z" stroke="black" stroke-width="0.71"/>
<path d="M5.355 162.866H194.645V181.638C194.645 184.204 192.565 186.283 190 186.283H10C7.43464 186.283 5.355 184.204 5.355 181.638V162.866Z" stroke="black" stroke-width="0.71"/>
<ellipse cx="100.001" cy="174.574" rx="6.69014" ry="6.70213" fill="#4CBE9E"/>
<path d="M100.259 95.5121C124.701 95.5121 144.515 75.6987 144.515 51.2561C144.515 26.8135 124.701 7 100.259 7C75.8193 7 56.0059 26.8135 56.0059 51.2561C56.0059 75.6987 75.8193 95.5121 100.259 95.5121Z" fill="#4CBE9E"/>
<path d="M70.6953 51.2563H129.829" stroke="white" stroke-width="0.71" stroke-miterlimit="10"/>
<path d="M100.262 21.7466V80.7655" stroke="white" stroke-width="0.71" stroke-miterlimit="10"/>
<path d="M100.262 80.7655C100.262 80.7655 110.108 67.7275 110.108 51.256C110.108 34.7846 100.262 21.7466 100.262 21.7466" stroke="white" stroke-width="0.71" stroke-miterlimit="10"/>
<path d="M100.26 80.7655C116.591 80.7655 129.829 67.5544 129.829 51.256C129.829 34.9577 116.591 21.7466 100.26 21.7466C83.9326 21.7466 70.6953 34.9577 70.6953 51.256C70.6953 67.5544 83.9326 80.7655 100.26 80.7655Z" stroke="white" stroke-width="0.71" stroke-miterlimit="10"/>
<path d="M100.262 80.7655C100.262 80.7655 119.98 74.1763 119.98 51.256C119.98 28.3358 100.262 21.7466 100.262 21.7466" stroke="white" stroke-width="0.71" stroke-miterlimit="10"/>
<path d="M100.258 80.7655C100.258 80.7655 90.4121 67.7275 90.4121 51.256C90.4121 34.7846 100.258 21.7466 100.258 21.7466" stroke="white" stroke-width="0.71" stroke-miterlimit="10"/>
<path d="M100.265 80.7655C100.265 80.7655 80.543 74.1763 80.543 51.256C80.543 28.3358 100.265 21.7466 100.265 21.7466" stroke="white" stroke-width="0.71" stroke-miterlimit="10"/>
<path d="M73.8047 64.4908C76.967 63.1514 85.4119 60.2766 100.24 60.2766C115.065 60.2766 123.513 63.1514 126.672 64.4908" stroke="white" stroke-width="0.71" stroke-miterlimit="10"/>
<path d="M80.7949 73.4811C83.869 72.0273 89.9127 70.0737 100.262 70.0737C110.5 70.0737 116.544 72.0012 119.648 73.4255" stroke="white" stroke-width="0.71" stroke-miterlimit="10"/>
<path d="M73.8047 38.052C76.967 39.3914 85.4119 42.2663 100.24 42.2663C115.065 42.2663 123.513 39.3914 126.672 38.052" stroke="white" stroke-width="0.71" stroke-miterlimit="10"/>
<path d="M80.7949 29.0615C83.869 30.512 89.9127 32.4688 100.262 32.4688C110.5 32.4688 116.544 30.5414 119.648 29.1171" stroke="white" stroke-width="0.71" stroke-miterlimit="10"/>
</svg>
